{
.appVersion = "1271";
DisplayStrings = (
"/ke-hira",
"/esmall-hira",
"",
"",
"/ri-hira",
"/ro-hira/ru-hira",
"/ma-hira/ru-hira/i-hira/ro-hira/n-hira/do-hira/so-kata/si-kata/ru-kata/ba-kata/hu-kata/ku-kata rs",
"/mo-hira/ti-hira/ro-hira/n-hira/ru-hira",
"/ro-hira",
"/n-hira",
"/n_voicedcomb-hira",
"/a-hira/to-hira/ro-hira/no-hira/ma-hira/tu-hira/ri-hira",
"/a-hira/to-hira/no-hira/ro-kata/yo-kata",
"/ro-kata",
"/do-hira",
"/a-hira/no-hira/ri-hira/ma-hira/ki-hira",
"/ho-hira/no-hira/ka-hira",
"/we-hira",
"/rosmall-kata",
"/rosmall-kata.vert",
"/to-hira",
"/tu-hira/ku-hira",
"/du-hira",
"/tusmall-hira",
"/tu-hira",
"/ka-kata/su-kata",
"/ga-kata",
"/yu-kata/ni-kata/ba-kata",
"/ba-kata",
"/ha-kata",
"/pa-kata",
"/so-hira/no-hira/da-hira",
"/zo-hira",
"/a-hira/so-hira/bo-hira/u-hira",
"/ka-kata",
"/ni-kata",
"/ka_semivoicedcomb-kata",
"/a-hira/so-hira/bo-hira",
"/a-hira/so-hira/bo-hira/u-hira",
"/a-hira/so-hira/ko-hira/da-hira",
"/ko-hira",
"/a-hira/na-hira/ta-hira/ka-hira/na-hira/so-hira/ke-hira/ri-hira/ke-hira/ka-hira/si-hira/a-hira/ka-hira",
"/a-hira/na-hira/ta-hira/no-hira/ka-hira/o-hira",
"/a_voicedcomb-hira",
"/asmall-hira",
"/asmall-hira.vert",
"/so-hira/ka-hira",
"/ka-hira/a-hira",
"/so-hira",
AIO,
"/na-hira",
"/ga-hira",
"/ka_semivoicedcomb-hira",
"/kasmall-hira.vert",
"/kasmall-hira",
"/ka-hira/na-hira/ko-hira",
"/a-hira/ku-hira/ma-hira/si-hira/ri-hira/da-hira/sa-hira/i-hira/so-hira/wo-hira",
"/a-hira/ku-hira/ma-hira",
"/gu-hira",
"/gi-hira",
"/si-hira/ku-hira/na-hira i/wo-hira",
"/mi-hira",
"/ku-hira",
"/ku_semivoicedcomb-hira",
"/ko-hira/wo-hira/ne-hira/ru-hira",
"/wo-hira",
"/ru-hira/ro-hira/u-hira",
"/go-hira",
"/ti-hira",
"/di-hira",
"/ta-hira",
"/da-hira",
"/tu-hira \012/ma-hira/ti-hira/wo-hira",
"/esmall-hira.vert",
"/esmall-hira.vert",
"/esmall-hira.vert",
"/esmall-hira.vert",
"",
"/ho-hira",
"",
"/kusmall-kata",
"/repeatVoiced-kana",
"/i-hira",
"/ke_semivoicedcomb-hira",
"/wasmall-hira.vert",
"/yo-hira",
"",
"",
"/husmall_semivoicedcomb-kata",

glyphs = (
{
glyphname = X;
lastChange = "2020-03-18 17:43:12 +0000";
layers = (
{
layerId = "BE1754C0-A605-45AC-AA12-D3A1FC0C380B";
paths = (
{
closed = 1;
nodes = (
"900 -25 LINE",
"564 456 LINE",
"534 476 LINE",
"333 785 LINE",
"129 785 LINE",
"466 304 LINE",
"495 284 LINE",
"696 -25 LINE"
);
},
{
closed = 1;
nodes = (
"305 -25 LINE",
"506 284 LINE",
"535 304 LINE",
"872 785 LINE",
"668 785 LINE",
"467 476 LINE",
"437 456 LINE",
"101 -25 LINE"
);
}
);
width = 1000;
}
);
unicode = 0058;
},
{
glyphname = "close-han";
lastChange = "2020-03-20 16:42:54 +0000";
layers = (
{
layerId = "BE1754C0-A605-45AC-AA12-D3A1FC0C380B";
paths = (
{
closed = 1;
nodes = (
"165 37 OFFCURVE",
"197 70 OFFCURVE",
"246 125 CURVE SMOOTH",
"343 233 OFFCURVE",
"569 452 OFFCURVE",
"783 511 CURVE SMOOTH",
"872 536 OFFCURVE",
"931 571 OFFCURVE",
"929 619 CURVE SMOOTH",
"928 669 OFFCURVE",
"903 705 OFFCURVE",
"860 725 CURVE SMOOTH",
"838 735 OFFCURVE",
"811 744 OFFCURVE",
"820 722 CURVE SMOOTH",
"831 694 OFFCURVE",
"834 675 OFFCURVE",
"816 653 CURVE SMOOTH",
"782 610 OFFCURVE",
"489 440 OFFCURVE",
"381 361 CURVE SMOOTH",
"273 283 OFFCURVE",
"244 251 OFFCURVE",
"227 241 CURVE SMOOTH",
"218 236 OFFCURVE",
"211 230 OFFCURVE",
"216 267 CURVE SMOOTH",
"222 317 OFFCURVE",
"239 468 OFFCURVE",
"328 499 CURVE SMOOTH",
"400 524 OFFCURVE",
"505 468 OFFCURVE",
"559 319 CURVE SMOOTH",
"576 271 OFFCURVE",
"609 250 OFFCURVE",
"642 267 CURVE SMOOTH",
"675 284 OFFCURVE",
"670 354 OFFCURVE",
"618 413 CURVE SMOOTH",
"566 472 OFFCURVE",
"442 586 OFFCURVE",
"327 536 CURVE SMOOTH",
"201 481 OFFCURVE",
"199 356 OFFCURVE",
"162 255 CURVE SMOOTH",
"130 167 OFFCURVE",
"106 138 OFFCURVE",
"80 94 CURVE SMOOTH",
"53 48 OFFCURVE",
"92 18 OFFCURVE",
"121 25 CURVE SMOOTH"
);
}
);
width = 1000;
}
);
unicode = 3006;
},
{
glyphname = "iterationmark-han";
lastChange = "2020-03-22 04:09:09 +0000";
layers = (
{
layerId = "BE1754C0-A605-45AC-AA12-D3A1FC0C380B";
paths = (
{
closed = 1;
nodes = (
"269 211 OFFCURVE",
"427 360 OFFCURVE",
"502 558 CURVE SMOOTH",
"508 573 OFFCURVE",
"532 584 OFFCURVE",
"541 602 CURVE SMOOTH",
"551 621 OFFCURVE",
"527 646 OFFCURVE",
"511 661 CURVE SMOOTH",
"478 691 OFFCURVE",
"439 710 OFFCURVE",
"406 703 CURVE SMOOTH",
"370 696 OFFCURVE",
"324 682 OFFCURVE",
"357 661 CURVE SMOOTH",
"382 645 OFFCURVE",
"388 623 OFFCURVE",
"380 593 CURVE SMOOTH",
"345 467 OFFCURVE",
"269 306 OFFCURVE",
"115 186 CURVE SMOOTH",
"105 178 OFFCURVE",
"102 171 OFFCURVE",
"132 178 CURVE SMOOTH"
);
},
{
closed = 1;
nodes = (
"608 63 OFFCURVE",
"652 93 OFFCURVE",
"630 155 CURVE SMOOTH",
"595 253 OFFCURVE",
"449 316 OFFCURVE",
"359 320 CURVE SMOOTH",
"339 321 OFFCURVE",
"334 316 OFFCURVE",
"348 306 CURVE SMOOTH",
"402 269 OFFCURVE",
"456 222 OFFCURVE",
"485 155 CURVE SMOOTH",
"522 64 OFFCURVE",
"560 58 OFFCURVE",
"584 60 CURVE SMOOTH"
);
},
{
closed = 1;
nodes = (
"659 273 OFFCURVE",
"709 344 OFFCURVE",
"746 364 CURVE SMOOTH",
"796 390 OFFCURVE",
"839 414 OFFCURVE",
"824 446 CURVE SMOOTH",
"808 477 OFFCURVE",
"763 517 OFFCURVE",
"716 548 CURVE SMOOTH",
"666 582 OFFCURVE",
"658 549 OFFCURVE",
"637 543 CURVE SMOOTH",
"590 527 OFFCURVE",
"513 515 OFFCURVE",
"452 541 CURVE",
"458 468 LINE",
"509 443 OFFCURVE",
"573 437 OFFCURVE",
"626 443 CURVE SMOOTH",
"631 444 OFFCURVE",
"639 443 OFFCURVE",
"630 423 CURVE SMOOTH",
"622 404 OFFCURVE",
"585 330 OFFCURVE",
"515 228 CURVE",
"565 186 LINE"
);
}
);
width = 1000;
}
);
unicode = 3005;
},
{
glyphname = "ninojiten-han";
lastChange = "2020-03-21 07:27:44 +0000";
layers = (
{
layerId = "BE1754C0-A605-45AC-AA12-D3A1FC0C380B";
paths = (
{
closed = 1;
nodes = (
"374 52 OFFCURVE",
"437 75 OFFCURVE",
"479 85 CURVE SMOOTH",
"554 104 OFFCURVE",
"645 94 OFFCURVE",
"652 159 CURVE SMOOTH",
"659 226 OFFCURVE",
"589 243 OFFCURVE",
"523 298 CURVE SMOOTH",
"493 322 OFFCURVE",
"478 342 OFFCURVE",
"473 366 CURVE SMOOTH",
"470 386 OFFCURVE",
"470 447 OFFCURVE",
"528 464 CURVE SMOOTH",
"555 472 OFFCURVE",
"602 470 OFFCURVE",
"613 505 CURVE SMOOTH",
"626 548 OFFCURVE",
"605 589 OFFCURVE",
"556 612 CURVE SMOOTH",
"509 634 OFFCURVE",
"440 656 OFFCURVE",
"388 714 CURVE SMOOTH",
"357 748 OFFCURVE",
"354 748 OFFCURVE",
"362 705 CURVE SMOOTH",
"370 664 OFFCURVE",
"387 627 OFFCURVE",
"421 588 CURVE SMOOTH",
"459 543 OFFCURVE",
"497 528 OFFCURVE",
"484 492 CURVE",
"477 466 OFFCURVE",
"442 433 OFFCURVE",
"431 404 CURVE SMOOTH",
"412 353 OFFCURVE",
"421 307 OFFCURVE",
"460 261 CURVE SMOOTH",
"533 174 OFFCURVE",
"487 155 OFFCURVE",
"457 135 CURVE SMOOTH",
"415 105 OFFCURVE",
"394 95 OFFCURVE",
"342 64 CURVE SMOOTH",
"291 36 OFFCURVE",
"275 17 OFFCURVE",
"316 32 CURVE SMOOTH"
);
}
);
width = 1000;
}
);
unicode = 303B;
},
{
glyphname = "a-hira";
lastChange = "2020-03-22 15:08:02 +0000";
layers = (
{
anchors = (
{
name = LSB;
position = "{35.287, 380}";
},
{
name = RSB;
position = "{966.482, 380}";
}
);
layerId = "BE1754C0-A605-45AC-AA12-D3A1FC0C380B";
paths = (
{
closed = 1;
nodes = (
"644 -74 OFFCURVE",
"774 -10 OFFCURVE",
"830 54 CURVE SMOOTH",
"947 192 OFFCURVE",
"896 363 OFFCURVE",
"782 431 CURVE SMOOTH",
"653 508 OFFCURVE",
"444 522 OFFCURVE",
"248 367 CURVE SMOOTH",
"66 223 OFFCURVE",
"96 38 OFFCURVE",
"134 1 CURVE SMOOTH",
"171 -37 OFFCURVE",
"264 -29 OFFCURVE",
"420 115 CURVE SMOOTH",
"576 259 OFFCURVE",
"582 431 OFFCURVE",
"567 473 CURVE SMOOTH",
"556 507 OFFCURVE",
"542 518 OFFCURVE",
"526 515 CURVE SMOOTH",
"519 514 OFFCURVE",
"507 509 OFFCURVE",
"507 470 CURVE SMOOTH",
"508 203 OFFCURVE",
"216 54 OFFCURVE",
"194 73 CURVE SMOOTH",
"159 105 OFFCURVE",
"204 238 OFFCURVE",
"273 305 CURVE SMOOTH",
"440 468 OFFCURVE",
"643 445 OFFCURVE",
"725 365 CURVE SMOOTH",
"801 290 OFFCURVE",
"807 164 OFFCURVE",
"719 64 CURVE SMOOTH",
"664 2 OFFCURVE",
"583 -36 OFFCURVE",
"495 -55 CURVE SMOOTH",
"440 -67 OFFCURVE",
"465 -73 OFFCURVE",
"503 -73 CURVE SMOOTH"
);
},
{
closed = 1;
nodes = (
"485 60 OFFCURVE",
"487 87 OFFCURVE",
"478 116 CURVE SMOOTH",
"460 168 OFFCURVE",
"414 280 OFFCURVE",
"434 406 CURVE SMOOTH",
"449 506 OFFCURVE",
"480 632 OFFCURVE",
"485 656 CURVE SMOOTH",
"492 688 OFFCURVE",
"525 740 OFFCURVE",
"488 778 CURVE SMOOTH",
"464 803 OFFCURVE",
"411 806 OFFCURVE",
"390 801 CURVE SMOOTH",
"362 794 OFFCURVE",
"339 779 OFFCURVE",
"342 768 CURVE SMOOTH",
"343 765 OFFCURVE",
"348 767 OFFCURVE",
"359 767 CURVE SMOOTH",
"381 767 OFFCURVE",
"400 746 OFFCURVE",
"405 719 CURVE SMOOTH",
"413 673 OFFCURVE",
"370 481 OFFCURVE",
"361 407 CURVE SMOOTH",
"352 333 OFFCURVE",
"340 251 OFFCURVE",
"374 160 CURVE SMOOTH",
"402 83 OFFCURVE",
"436 44 OFFCURVE",
"463 53 CURVE SMOOTH"
);
},
{
closed = 1;
nodes = (
"338 527 OFFCURVE",
"448 541 OFFCURVE",
"561 579 CURVE SMOOTH",
"642 606 OFFCURVE",
"732 652 OFFCURVE",
"723 689 CURVE SMOOTH",
"718 708 OFFCURVE",
"679 706 OFFCURVE",
"636 709 CURVE SMOOTH",
"573 713 OFFCURVE",
"497 737 OFFCURVE",
"485 740 CURVE SMOOTH",
"473 743 OFFCURVE",
"468 733 OFFCURVE",
"478 723 CURVE SMOOTH",
"494 707 OFFCURVE",
"511 701 OFFCURVE",
"546 689 CURVE SMOOTH",
"578 679 OFFCURVE",
"570 672 OFFCURVE",
"554 665 CURVE SMOOTH",
"502 642 OFFCURVE",
"335 619 OFFCURVE",
"292 618 CURVE SMOOTH",
"266 617 OFFCURVE",
"238 620 OFFCURVE",
"213 630 CURVE SMOOTH",
"191 639 OFFCURVE",
"179 647 OFFCURVE",
"175 644 CURVE SMOOTH",
"170 639 OFFCURVE",
"173 619 OFFCURVE",
"187 600 CURVE SMOOTH",
"204 577 OFFCURVE",
"226 554 OFFCURVE",
"285 539 CURVE SMOOTH"
);
}
);
width = 1000;
}
);
unicode = 3042;
},
{
glyphname = "asmall-hira";
lastChange = "2020-03-22 15:08:02 +0000";
layers = (
{
anchors = (
{
name = LSB;
position = "{118.313, 380}";
},
{
name = RSB;
position = "{881.072, 380}";
}
);
layerId = "BE1754C0-A605-45AC-AA12-D3A1FC0C380B";
paths = (
{
closed = 1;
nodes = (
"613 -69 OFFCURVE",
"715 -18 OFFCURVE",
"758 32 CURVE SMOOTH",
"851 140 OFFCURVE",
"811 277 OFFCURVE",
"721 331 CURVE SMOOTH",
"619 391 OFFCURVE",
"455 402 OFFCURVE",
"301 280 CURVE SMOOTH",
"158 167 OFFCURVE",
"180 24 OFFCURVE",
"212 -10 CURVE SMOOTH",
"250 -50 OFFCURVE",
"337 -15 OFFCURVE",
"439 79 CURVE SMOOTH",
"562 193 OFFCURVE",
"566 328 OFFCURVE",
"555 362 CURVE SMOOTH",
"546 388 OFFCURVE",
"535 399 OFFCURVE",
"520 397 CURVE SMOOTH",
"507 395 OFFCURVE",
"502 382 OFFCURVE",
"502 359 CURVE SMOOTH",
"503 152 OFFCURVE",
"294 40 OFFCURVE",
"263 51 CURVE SMOOTH",
"231 62 OFFCURVE",
"272 176 OFFCURVE",
"324 228 CURVE SMOOTH",
"453 354 OFFCURVE",
"610 336 OFFCURVE",
"673 274 CURVE SMOOTH",
"734 214 OFFCURVE",
"732 116 OFFCURVE",
"668 43 CURVE SMOOTH",
"623 -8 OFFCURVE",
"566 -32 OFFCURVE",
"494 -48 CURVE SMOOTH",
"454 -57 OFFCURVE",
"459 -68 OFFCURVE",
"501 -68 CURVE SMOOTH"
);
},
{
closed = 1;
nodes = (
"487 36 OFFCURVE",
"492 59 OFFCURVE",
"485 83 CURVE SMOOTH",
"471 124 OFFCURVE",
"435 210 OFFCURVE",
"451 309 CURVE SMOOTH",
"463 386 OFFCURVE",
"487 484 OFFCURVE",
"491 502 CURVE SMOOTH",
"496 527 OFFCURVE",
"523 569 OFFCURVE",
"492 600 CURVE SMOOTH",
"472 621 OFFCURVE",
"432 625 OFFCURVE",
"413 620 CURVE SMOOTH",
"387 613 OFFCURVE",
"368 600 OFFCURVE",
"373 591 CURVE SMOOTH",
"375 587 OFFCURVE",
"380 588 OFFCURVE",
"389 587 CURVE SMOOTH",
"406 586 OFFCURVE",
"418 572 OFFCURVE",
"422 551 CURVE SMOOTH",
"428 517 OFFCURVE",
"395 368 OFFCURVE",
"388 309 CURVE SMOOTH",
"381 251 OFFCURVE",
"371 188 OFFCURVE",
"398 115 CURVE SMOOTH",
"421 54 OFFCURVE",
"448 21 OFFCURVE",
"471 30 CURVE SMOOTH"
);
},
{
closed = 1;
nodes = (
"373 399 OFFCURVE",
"460 411 OFFCURVE",
"548 440 CURVE SMOOTH",
"632 470 OFFCURVE",
"682 503 OFFCURVE",
"676 530 CURVE SMOOTH",
"671 547 OFFCURVE",
"639 546 OFFCURVE",
"606 548 CURVE SMOOTH",
"557 551 OFFCURVE",
"498 570 OFFCURVE",
"489 572 CURVE SMOOTH",
"476 575 OFFCURVE",
"470 564 OFFCURVE",
"480 553 CURVE SMOOTH",
"493 540 OFFCURVE",
"507 536 OFFCURVE",
"534 527 CURVE SMOOTH",
"554 520 OFFCURVE",
"552 518 OFFCURVE",
"540 513 CURVE SMOOTH",
"501 496 OFFCURVE",
"370 478 OFFCURVE",
"337 477 CURVE SMOOTH",
"317 476 OFFCURVE",
"296 478 OFFCURVE",
"276 486 CURVE SMOOTH",
"262 492 OFFCURVE",
"249 500 OFFCURVE",
"244 496 CURVE SMOOTH",
"238 491 OFFCURVE",
"242 472 OFFCURVE",
"252 458 CURVE SMOOTH",
"264 441 OFFCURVE",
"286 420 OFFCURVE",
"331 409 CURVE SMOOTH"
);
}
);
width = 1000;
}
);
unicode = 3041;
},
{
glyphname = "i-hira";
lastChange = "2020-03-22 15:08:02 +0000";
layers = (
{
anchors = (
{
name = LSB;
position = "{52.256, 380}";
},
{
name = RSB;
position = "{969.101, 380}";
}
);
layerId = "BE1754C0-A605-45AC-AA12-D3A1FC0C380B";
paths = (
{
closed = 1;
nodes = (
"408 56 OFFCURVE",
"444 87 OFFCURVE",
"432 115 CURVE SMOOTH",
"419 145 OFFCURVE",
"405 159 OFFCURVE",
"404 192 CURVE SMOOTH",
"403 226 OFFCURVE",
"401 250 OFFCURVE",
"421 339 CURVE",
"427 359 OFFCURVE",
"424 363 OFFCURVE",
"411 340 CURVE SMOOTH",
"375 276 OFFCURVE",
"349 208 OFFCURVE",
"332 204 CURVE SMOOTH",
"292 194 OFFCURVE",
"254 253 OFFCURVE",
"243 337 CURVE SMOOTH",
"233 415 OFFCURVE",
"250 470 OFFCURVE",
"276 545 CURVE SMOOTH",
"296 602 OFFCURVE",
"224 681 OFFCURVE",
"153 681 CURVE SMOOTH",
"119 681 OFFCURVE",
"113 677 OFFCURVE",
"136 661 CURVE SMOOTH",
"162 644 OFFCURVE",
"162 621 OFFCURVE",
"159 581 CURVE SMOOTH",
"156 544 OFFCURVE",
"123 367 OFFCURVE",
"171 241 CURVE SMOOTH",
"210 140 OFFCURVE",
"276 78 OFFCURVE",
"373 62 CURVE SMOOTH"
);
},
{
closed = 1;
nodes = (
"873 306 OFFCURVE",
"901 349 OFFCURVE",
"899 394 CURVE SMOOTH",
"897 445 OFFCURVE",
"870 497 OFFCURVE",
"801 538 CURVE SMOOTH",
"745 571 OFFCURVE",
"669 569 OFFCURVE",
"639 561 CURVE SMOOTH",
"596 550 OFFCURVE",
"596 541 OFFCURVE",
"639 537 CURVE SMOOTH",
"738 528 OFFCURVE",
"766 429 OFFCURVE",
"776 385 CURVE SMOOTH",
"790 327 OFFCURVE",
"809 302 OFFCURVE",
"842 304 CURVE SMOOTH"
);
}
);
width = 1000;
}
);
unicode = 3044;
},
{
glyphname = "ismall-hira";
lastChange = "2020-03-22 15:08:02 +0000";
layers = (
{
anchors = (
{
name = LSB;
position = "{135.568, 380}";
},
{
name = RSB;
position = "{887.132, 380}";
}
);
layerId = "BE1754C0-A605-45AC-AA12-D3A1FC0C380B";
paths = (
{
closed = 1;
nodes = (
"435 -23 OFFCURVE",
"463 3 OFFCURVE",
"453 26 CURVE SMOOTH",
"444 50 OFFCURVE",
"432 60 OFFCURVE",
"432 85 CURVE SMOOTH",
"431 110 OFFCURVE",
"429 131 OFFCURVE",
"446 199 CURVE",
"450 222 OFFCURVE",
"444 224 OFFCURVE",
"431 202 CURVE SMOOTH",
"403 153 OFFCURVE",
"383 100 OFFCURVE",
"372 98 CURVE SMOOTH",
"344 91 OFFCURVE",
"315 134 OFFCURVE",
"306 199 CURVE SMOOTH",
"298 259 OFFCURVE",
"312 302 OFFCURVE",
"332 360 CURVE SMOOTH",
"349 406 OFFCURVE",
"290 470 OFFCURVE",
"233 470 CURVE SMOOTH",
"203 470 OFFCURVE",
"197 464 OFFCURVE",
"218 449 CURVE SMOOTH",
"237 435 OFFCURVE",
"236 419 OFFCURVE",
"235 389 CURVE SMOOTH",
"234 360 OFFCURVE",
"206 222 OFFCURVE",
"244 123 CURVE SMOOTH",
"277 40 OFFCURVE",
"330 -7 OFFCURVE",
"405 -20 CURVE"
);
},
{
closed = 1;
nodes = (
"798 172 OFFCURVE",
"819 207 OFFCURVE",
"817 243 CURVE SMOOTH",
"816 289 OFFCURVE",
"789 328 OFFCURVE",
"741 358 CURVE SMOOTH",
"696 384 OFFCURVE",
"636 382 OFFCURVE",
"611 376 CURVE SMOOTH",
"574 367 OFFCURVE",
"574 356 OFFCURVE",
"612 351 CURVE SMOOTH",
"687 344 OFFCURVE",
"709 270 OFFCURVE",
"716 235 CURVE SMOOTH",
"727 189 OFFCURVE",
"743 169 OFFCURVE",
"771 170 CURVE SMOOTH"
);
}
);
width = 1000;
}
);
unicode = 3043;
},
{
glyphname = "u-hira";
lastChange = "2020-03-22 15:08:02 +0000";
layers = (
{
anchors = (
{
name = LSB;
position = "{168.795, 380}";
},
{
name = RSB;
position = "{808.69, 380}";
}
);
layerId = "BE1754C0-A605-45AC-AA12-D3A1FC0C380B";
paths = (
{
closed = 1;
nodes = (
"337 633 OFFCURVE",
"328 639 OFFCURVE",
"357 662 CURVE SMOOTH",
"375 678 OFFCURVE",
"384 684 OFFCURVE",
"404 701 CURVE SMOOTH",
"421 716 OFFCURVE",
"414 728 OFFCURVE",
"386 735 CURVE SMOOTH",
"360 742 OFFCURVE",
"310 785 OFFCURVE",
"298 813 CURVE SMOOTH",
"288 838 OFFCURVE",
"291 840 OFFCURVE",
"310 829 CURVE SMOOTH",
"337 815 OFFCURVE",
"387 800 OFFCURVE",
"428 802 CURVE SMOOTH",
"469 804 OFFCURVE",
"520 814 OFFCURVE",
"580 800 CURVE SMOOTH",
"624 790 OFFCURVE",
"673 765 OFFCURVE",
"665 735 CURVE SMOOTH",
"657 703 OFFCURVE",
"621 704 OFFCURVE",
"576 699 CURVE SMOOTH",
"531 694 OFFCURVE",
"460 692 OFFCURVE",
"375 652 CURVE SMOOTH"
);
},
{
closed = 1;
nodes = (
"297 -75 OFFCURVE",
"297 -73 OFFCURVE",
"331 -54 CURVE SMOOTH",
"387 -22 OFFCURVE",
"586 81 OFFCURVE",
"619 312 CURVE SMOOTH",
"636 432 OFFCURVE",
"622 499 OFFCURVE",
"574 510 CURVE SMOOTH",
"531 521 OFFCURVE",
"455 471 OFFCURVE",
"399 438 CURVE SMOOTH",
"344 406 OFFCURVE",
"298 414 OFFCURVE",
"262 459 CURVE SMOOTH",
"247 479 OFFCURVE",
"240 521 OFFCURVE",
"239 535 CURVE SMOOTH",
"238 560 OFFCURVE",
"240 560 OFFCURVE",
"260 547 CURVE SMOOTH",
"301 523 OFFCURVE",
"382 536 OFFCURVE",
"416 548 CURVE SMOOTH",
"450 560 OFFCURVE",
"590 608 OFFCURVE",
"665 557 CURVE SMOOTH",
"735 508 OFFCURVE",
"753 430 OFFCURVE",
"728 290 CURVE SMOOTH",
"701 145 OFFCURVE",
"560 -24 OFFCURVE",
"326 -69 CURVE SMOOTH"
);
}
);
width = 1000;
}
);
unicode = 3046;
},
{
glyphname = "usmall-hira";
lastChange = "2020-03-22 15:08:02 +0000";
layers = (
{
anchors = (
{
name = LSB;
position = "{220.831, 380}";
},
{
name = RSB;
position = "{756.002, 380}";
}
);
layerId = "BE1754C0-A605-45AC-AA12-D3A1FC0C380B";
paths = (
{
closed = 1;
nodes = (
"546 -34 OFFCURVE",
"657 101 OFFCURVE",
"678 213 CURVE SMOOTH",
"697 326 OFFCURVE",
"683 386 OFFCURVE",
"627 424 CURVE SMOOTH",
"567 465 OFFCURVE",
"458 428 OFFCURVE",
"430 418 CURVE SMOOTH",
"404 409 OFFCURVE",
"343 399 OFFCURVE",
"312 418 CURVE SMOOTH",
"293 429 OFFCURVE",
"290 427 OFFCURVE",
"291 405 CURVE SMOOTH",
"291 394 OFFCURVE",
"297 361 OFFCURVE",
"309 344 CURVE SMOOTH",
"338 307 OFFCURVE",
"376 302 OFFCURVE",
"420 327 CURVE SMOOTH",
"464 353 OFFCURVE",
"522 391 OFFCURVE",
"555 383 CURVE SMOOTH",
"589 375 OFFCURVE",
"601 324 OFFCURVE",
"587 232 CURVE SMOOTH",
"561 53 OFFCURVE",
"408 -26 OFFCURVE",
"364 -51 CURVE SMOOTH",
"335 -68 OFFCURVE",
"333 -74 OFFCURVE",
"362 -69 CURVE SMOOTH"
);
},
{
closed = 1;
nodes = (
"467 526 OFFCURVE",
"521 527 OFFCURVE",
"556 530 CURVE SMOOTH",
"591 534 OFFCURVE",
"621 533 OFFCURVE",
"628 561 CURVE SMOOTH",
"634 582 OFFCURVE",
"605 604 OFFCURVE",
"560 615 CURVE SMOOTH",
"513 626 OFFCURVE",
"473 618 OFFCURVE",
"441 617 CURVE SMOOTH",
"409 615 OFFCURVE",
"370 626 OFFCURVE",
"350 638 CURVE SMOOTH",
"332 648 OFFCURVE",
"329 643 OFFCURVE",
"336 621 CURVE",
"347 597 OFFCURVE",
"387 563 OFFCURVE",
"407 559 CURVE SMOOTH",
"427 554 OFFCURVE",
"431 546 OFFCURVE",
"420 537 CURVE SMOOTH",
"405 524 OFFCURVE",
"397 519 OFFCURVE",
"384 506 CURVE",
"358 487 OFFCURVE",
"367 478 OFFCURVE",
"400 494 CURVE SMOOTH"
);
}
);
width = 1000;
}
);
unicode = 3045;
},
{
glyphname = "e-hira";
lastChange = "2020-03-22 15:08:02 +0000";
layers = (
{
anchors = (
{
name = LSB;
position = "{102.188, 380}";
},
{
name = RSB;
position = "{938.729, 380}";
}
);
layerId = "BE1754C0-A605-45AC-AA12-D3A1FC0C380B";
paths = (
{
closed = 1;
nodes = (
"253 -31 OFFCURVE",
"267 14 OFFCURVE",
"282 39 CURVE SMOOTH",
"344 142 OFFCURVE",
"479 314 OFFCURVE",
"628 399 CURVE SMOOTH",
"667 421 OFFCURVE",
"703 441 OFFCURVE",
"686 477 CURVE SMOOTH",
"663 525 OFFCURVE",
"631 542 OFFCURVE",
"578 541 CURVE SMOOTH",
"531 540 OFFCURVE",
"421 494 OFFCURVE",
"381 487 CURVE SMOOTH",
"337 481 OFFCURVE",
"302 490 OFFCURVE",
"283 513 CURVE SMOOTH",
"265 534 OFFCURVE",
"251 529 OFFCURVE",
"248 501 CURVE SMOOTH",
"245 476 OFFCURVE",
"246 456 OFFCURVE",
"295 408 CURVE SMOOTH",
"332 370 OFFCURVE",
"366 367 OFFCURVE",
"400 399 CURVE SMOOTH",
"433 433 OFFCURVE",
"476 445 OFFCURVE",
"510 458 CURVE SMOOTH",
"559 475 OFFCURVE",
"548 448 OFFCURVE",
"535 437 CURVE SMOOTH",
"507 409 OFFCURVE",
"281 190 OFFCURVE",
"252 159 CURVE SMOOTH",
"231 138 OFFCURVE",
"182 119 OFFCURVE",
"173 68 CURVE SMOOTH",
"166 24 OFFCURVE",
"206 -13 OFFCURVE",
"226 -20 CURVE SMOOTH"
);
},
{
closed = 1;
nodes = (
"816 -19 OFFCURVE",
"863 -5 OFFCURVE",
"868 28 CURVE SMOOTH",
"873 62 OFFCURVE",
"852 87 OFFCURVE",
"814 97 CURVE SMOOTH",
"760 111 OFFCURVE",
"746 78 OFFCURVE",
"659 75 CURVE SMOOTH",
"627 73 OFFCURVE",
"613 68 OFFCURVE",
"602 100 CURVE SMOOTH",
"591 130 OFFCURVE",
"599 195 OFFCURVE",
"562 237 CURVE SMOOTH",
"526 279 OFFCURVE",
"462 261 OFFCURVE",
"419 232 CURVE",
"353 146 LINE",
"420 195 OFFCURVE",
"489 208 OFFCURVE",
"510 174 CURVE SMOOTH",
"519 159 OFFCURVE",
"518 127 OFFCURVE",
"526 76 CURVE SMOOTH",
"544 -31 OFFCURVE",
"645 -22 OFFCURVE",
"718 -20 CURVE SMOOTH"
);
},
{
closed = 1;
nodes = (
"453 620 OFFCURVE",
"537 633 OFFCURVE",
"605 639 CURVE SMOOTH",
"670 647 OFFCURVE",
"660 689 OFFCURVE",
"625 720 CURVE SMOOTH",
"595 745 OFFCURVE",
"561 730 OFFCURVE",
"510 739 CURVE SMOOTH",
"459 748 OFFCURVE",
"442 764 OFFCURVE",
"407 802 CURVE SMOOTH",
"390 821 OFFCURVE",
"380 819 OFFCURVE",
"382 792 CURVE SMOOTH",
"385 760 OFFCURVE",
"394 736 OFFCURVE",
"409 721 CURVE SMOOTH",
"431 701 OFFCURVE",
"439 680 OFFCURVE",
"428 666 CURVE SMOOTH",
"419 653 OFFCURVE",
"403 639 OFFCURVE",
"367 607 CURVE SMOOTH",
"338 579 OFFCURVE",
"337 573 OFFCURVE",
"367 585 CURVE SMOOTH"
);
}
);
width = 1000;
}
);
unicode = 3048;
},
{
glyphname = "esmall-hira";
lastChange = "2020-03-22 15:08:02 +0000";
layers = (
{
anchors = (
{
name = LSB;
position = "{175.489, 380}";
},
{
name = RSB;
position = "{864.604, 380}";
}
);
layerId = "BE1754C0-A605-45AC-AA12-D3A1FC0C380B";
paths = (
{
closed = 1;
nodes = (
"313 -42 OFFCURVE",
"326 -4 OFFCURVE",
"338 15 CURVE SMOOTH",
"385 95 OFFCURVE",
"490 229 OFFCURVE",
"605 294 CURVE SMOOTH",
"635 311 OFFCURVE",
"666 329 OFFCURVE",
"652 360 CURVE SMOOTH",
"633 398 OFFCURVE",
"608 412 OFFCURVE",
"565 410 CURVE SMOOTH",
"528 410 OFFCURVE",
"441 375 OFFCURVE",
"410 369 CURVE SMOOTH",
"377 365 OFFCURVE",
"351 372 OFFCURVE",
"337 388 CURVE SMOOTH",
"322 407 OFFCURVE",
"307 402 OFFCURVE",
"305 376 CURVE SMOOTH",
"303 357 OFFCURVE",
"304 341 OFFCURVE",
"342 302 CURVE SMOOTH",
"372 272 OFFCURVE",
"400 269 OFFCURVE",
"429 295 CURVE SMOOTH",
"454 321 OFFCURVE",
"487 331 OFFCURVE",
"513 341 CURVE SMOOTH",
"545 351 OFFCURVE",
"539 338 OFFCURVE",
"530 329 CURVE SMOOTH",
"508 307 OFFCURVE",
"332 137 OFFCURVE",
"308 113 CURVE SMOOTH",
"292 96 OFFCURVE",
"253 81 OFFCURVE",
"246 40 CURVE SMOOTH",
"241 4 OFFCURVE",
"274 -27 OFFCURVE",
"289 -33 CURVE SMOOTH"
);
},
{
closed = 1;
nodes = (
"753 -32 OFFCURVE",
"791 -19 OFFCURVE",
"794 8 CURVE SMOOTH",
"798 35 OFFCURVE",
"782 55 OFFCURVE",
"750 65 CURVE SMOOTH",
"706 76 OFFCURVE",
"694 50 OFFCURVE",
"629 48 CURVE SMOOTH",
"602 46 OFFCURVE",
"595 43 OFFCURVE",
"587 65 CURVE SMOOTH",
"578 88 OFFCURVE",
"585 140 OFFCURVE",
"555 173 CURVE SMOOTH",
"526 207 OFFCURVE",
"474 193 OFFCURVE",
"439 169 CURVE",
"388 102 LINE",
"392 98 LINE",
"442 136 OFFCURVE",
"495 145 OFFCURVE",
"509 119 CURVE",
"516 110 OFFCURVE",
"515 85 OFFCURVE",
"522 45 CURVE SMOOTH",
"535 -41 OFFCURVE",
"617 -34 OFFCURVE",
"675 -33 CURVE SMOOTH"
);
},
{
closed = 1;
nodes = (
"468 467 OFFCURVE",
"533 476 OFFCURVE",
"586 482 CURVE SMOOTH",
"641 488 OFFCURVE",
"632 526 OFFCURVE",
"604 550 CURVE SMOOTH",
"580 570 OFFCURVE",
"552 558 OFFCURVE",
"513 566 CURVE SMOOTH",
"473 572 OFFCURVE",
"461 584 OFFCURVE",
"434 614 CURVE SMOOTH",
"418 632 OFFCURVE",
"407 627 OFFCURVE",
"409 603 CURVE SMOOTH",
"411 578 OFFCURVE",
"418 559 OFFCURVE",
"432 546 CURVE SMOOTH",
"449 531 OFFCURVE",
"453 517 OFFCURVE",
"446 507 CURVE SMOOTH",
"439 498 OFFCURVE",
"427 487 OFFCURVE",
"399 461 CURVE SMOOTH",
"373 438 OFFCURVE",
"375 429 OFFCURVE",
"402 440 CURVE SMOOTH"
);
}
);
width = 1000;
}
);
unicode = 3047;
},
{
glyphname = "o-hira";
lastChange = "2020-03-22 15:08:02 +0000";
layers = (
{
anchors = (
{
name = LSB;
position = "{24.745, 380}";
},
{
name = RSB;
position = "{1021.219, 380}";
}
);
layerId = "BE1754C0-A605-45AC-AA12-D3A1FC0C380B";
paths = (
{
closed = 1;
nodes = (
"408 9 OFFCURVE",
"415 92 OFFCURVE",
"419 131 CURVE SMOOTH",
"423 170 OFFCURVE",
"407 278 OFFCURVE",
"407 379 CURVE SMOOTH",
"407 480 OFFCURVE",
"407 592 OFFCURVE",
"409 630 CURVE SMOOTH",
"411 670 OFFCURVE",
"440 702 OFFCURVE",
"395 738 CURVE SMOOTH",
"346 778 OFFCURVE",
"319 772 OFFCURVE",
"286 760 CURVE SMOOTH",
"244 746 OFFCURVE",
"240 734 OFFCURVE",
"269 722 CURVE SMOOTH",
"293 711 OFFCURVE",
"315 685 OFFCURVE",
"320 658 CURVE SMOOTH",
"327 627 OFFCURVE",
"333 176 OFFCURVE",
"331 161 CURVE SMOOTH",
"328 141 OFFCURVE",
"318 151 OFFCURVE",
"306 156 CURVE SMOOTH",
"289 164 OFFCURVE",
"268 175 OFFCURVE",
"264 176 CURVE",
"272 163 LINE",
"320 200 OFFCURVE",
"574 366 OFFCURVE",
"666 357 CURVE SMOOTH",
"738 350 OFFCURVE",
"743 270 OFFCURVE",
"722 225 CURVE SMOOTH",
"681 132 OFFCURVE",
"591 86 OFFCURVE",
"539 120 CURVE SMOOTH",
"517 134 OFFCURVE",
"494 178 OFFCURVE",
"510 262 CURVE SMOOTH",
"517 297 OFFCURVE",
"501 293 OFFCURVE",
"483 247 CURVE SMOOTH",
"455 177 OFFCURVE",
"461 89 OFFCURVE",
"541 50 CURVE",
"605 23 OFFCURVE",
"728 36 OFFCURVE",
"817 166 CURVE SMOOTH",
"878 255 OFFCURVE",
"858 365 OFFCURVE",
"774 406 CURVE SMOOTH",
"687 450 OFFCURVE",
"571 410 OFFCURVE",
"442 343 CURVE SMOOTH",
"339 290 OFFCURVE",
"248 226 OFFCURVE",
"159 227 CURVE",
"135 229 OFFCURVE",
"91 222 OFFCURVE",
"95 186 CURVE SMOOTH",
"99 149 OFFCURVE",
"127 119 OFFCURVE",
"152 106 CURVE SMOOTH",
"184 88 OFFCURVE",
"243 129 OFFCURVE",
"262 150 CURVE",
"262 150 OFFCURVE",
"301 124 OFFCURVE",
"303 103 CURVE SMOOTH",
"306 83 OFFCURVE",
"311 -3 OFFCURVE",
"359 3 CURVE SMOOTH"
);
},
{
closed = 1;
nodes = (
"285 412 OFFCURVE",
"462 487 OFFCURVE",
"493 507 CURVE SMOOTH",
"524 526 OFFCURVE",
"532 542 OFFCURVE",
"523 563 CURVE SMOOTH",
"515 579 OFFCURVE",
"496 582 OFFCURVE",
"476 590 CURVE SMOOTH",
"456 597 OFFCURVE",
"418 619 OFFCURVE",
"403 642 CURVE",
"399 651 OFFCURVE",
"390 646 OFFCURVE",
"395 635 CURVE SMOOTH",
"402 619 OFFCURVE",
"444 586 OFFCURVE",
"430 569 CURVE SMOOTH",
"419 553 OFFCURVE",
"270 512 OFFCURVE",
"229 514 CURVE SMOOTH",
"188 516 OFFCURVE",
"167 523 OFFCURVE",
"153 528 CURVE SMOOTH",
"120 539 OFFCURVE",
"107 535 OFFCURVE",
"131 502 CURVE SMOOTH",
"163 459 OFFCURVE",
"180 434 OFFCURVE",
"231 425 CURVE SMOOTH"
);
},
{
closed = 1;
nodes = (
"927 448 OFFCURVE",
"975 479 OFFCURVE",
"938 548 CURVE SMOOTH",
"911 599 OFFCURVE",
"778 691 OFFCURVE",
"665 599 CURVE SMOOTH",
"636 576 OFFCURVE",
"642 566 OFFCURVE",
"674 577 CURVE SMOOTH",
"708 588 OFFCURVE",
"769 584 OFFCURVE",
"794 547 CURVE SMOOTH",
"812 518 OFFCURVE",
"788 496 OFFCURVE",
"774 482 CURVE SMOOTH",
"756 464 OFFCURVE",
"761 454 OFFCURVE",
"795 467 CURVE SMOOTH",
"831 480 OFFCURVE",
"861 470 OFFCURVE",
"884 462 CURVE SMOOTH"
);
}
);
width = 1000;
}
);
unicode = 304A;
},
{
glyphname = "osmall-hira";
lastChange = "2020-03-22 15:08:02 +0000";
layers = (
{
anchors = (
{
name = LSB;
position = "{111.828, 380}";
},
{
name = RSB;
position = "{925.835, 380}";
}
);
layerId = "BE1754C0-A605-45AC-AA12-D3A1FC0C380B";
paths = (
{
closed = 1;
nodes = (
"432 -9 OFFCURVE",
"438 59 OFFCURVE",
"441 90 CURVE SMOOTH",
"444 120 OFFCURVE",
"431 205 OFFCURVE",
"431 283 CURVE SMOOTH",
"431 362 OFFCURVE",
"431 449 OFFCURVE",
"433 479 CURVE SMOOTH",
"434 509 OFFCURVE",
"458 536 OFFCURVE",
"421 565 CURVE SMOOTH",
"381 597 OFFCURVE",
"359 593 OFFCURVE",
"333 584 CURVE SMOOTH",
"298 571 OFFCURVE",
"293 559 OFFCURVE",
"320 547 CURVE SMOOTH",
"338 540 OFFCURVE",
"353 520 OFFCURVE",
"358 499 CURVE SMOOTH",
"363 476 OFFCURVE",
"368 124 OFFCURVE",
"366 114 CURVE SMOOTH",
"365 104 OFFCURVE",
"365 105 OFFCURVE",
"350 112 CURVE SMOOTH",
"342 115 OFFCURVE",
"323 125 OFFCURVE",
"320 126 CURVE",
"326 113 LINE",
"364 142 OFFCURVE",
"561 270 OFFCURVE",
"631 263 CURVE SMOOTH",
"684 258 OFFCURVE",
"687 199 OFFCURVE",
"671 164 CURVE SMOOTH",
"641 95 OFFCURVE",
"573 57 OFFCURVE",
"533 84 CURVE SMOOTH",
"510 98 OFFCURVE",
"502 140 OFFCURVE",
"512 191 CURVE SMOOTH",
"518 225 OFFCURVE",
"500 219 OFFCURVE",
"485 181 CURVE SMOOTH",
"463 127 OFFCURVE",
"467 55 OFFCURVE",
"532 24 CURVE SMOOTH",
"583 3 OFFCURVE",
"680 12 OFFCURVE",
"750 115 CURVE SMOOTH",
"799 185 OFFCURVE",
"784 274 OFFCURVE",
"716 307 CURVE SMOOTH",
"647 341 OFFCURVE",
"555 310 OFFCURVE",
"454 258 CURVE SMOOTH",
"373 217 OFFCURVE",
"303 167 OFFCURVE",
"235 167 CURVE",
"216 169 OFFCURVE",
"179 164 OFFCURVE",
"182 133 CURVE SMOOTH",
"185 107 OFFCURVE",
"204 80 OFFCURVE",
"228 67 CURVE SMOOTH",
"254 52 OFFCURVE",
"301 85 OFFCURVE",
"315 100 CURVE",
"315 100 OFFCURVE",
"343 82 OFFCURVE",
"344 68 CURVE SMOOTH",
"346 53 OFFCURVE",
"350 -18 OFFCURVE",
"391 -13 CURVE SMOOTH"
);
},
{
closed = 1;
nodes = (
"334 306 OFFCURVE",
"472 364 OFFCURVE",
"497 381 CURVE SMOOTH",
"522 396 OFFCURVE",
"530 409 OFFCURVE",
"522 427 CURVE SMOOTH",
"515 442 OFFCURVE",
"499 444 OFFCURVE",
"483 450 CURVE SMOOTH",
"468 456 OFFCURVE",
"439 472 OFFCURVE",
"427 490 CURVE SMOOTH",
"428 489 LINE",
"423 500 OFFCURVE",
"410 493 OFFCURVE",
"416 482 CURVE SMOOTH",
"421 469 OFFCURVE",
"452 443 OFFCURVE",
"444 434 CURVE",
"443 434 LINE",
"437 422 OFFCURVE",
"321 390 OFFCURVE",
"290 391 CURVE SMOOTH",
"259 393 OFFCURVE",
"242 398 OFFCURVE",
"232 402 CURVE SMOOTH",
"199 413 OFFCURVE",
"191 404 OFFCURVE",
"211 377 CURVE SMOOTH",
"236 344 OFFCURVE",
"250 323 OFFCURVE",
"290 316 CURVE SMOOTH"
);
},
{
closed = 1;
nodes = (
"834 334 OFFCURVE",
"875 360 OFFCURVE",
"846 416 CURVE SMOOTH",
"823 457 OFFCURVE",
"718 530 OFFCURVE",
"627 457 CURVE SMOOTH",
"602 437 OFFCURVE",
"608 425 OFFCURVE",
"638 434 CURVE SMOOTH",
"663 443 OFFCURVE",
"709 440 OFFCURVE",
"727 412 CURVE SMOOTH",
"740 392 OFFCURVE",
"724 376 OFFCURVE",
"713 365 CURVE SMOOTH",
"694 348 OFFCURVE",
"705 338 OFFCURVE",
"732 348 CURVE SMOOTH",
"759 359 OFFCURVE",
"781 351 OFFCURVE",
"799 345 CURVE SMOOTH"
);
}
);
width = 1000;
}
);
unicode = 3049;
},
{
glyphname = "ka-hira";
lastChange = "2020-03-22 15:08:02 +0000";
layers = (
{
anchors = (
{
name = LSB;
position = "{28.695, 380}";
},
{
name = RSB;
position = "{1041.903, 380}";
}
);
layerId = "BE1754C0-A605-45AC-AA12-D3A1FC0C380B";
paths = (
{
closed = 1;
nodes = (
"588 97 OFFCURVE",
"633 298 OFFCURVE",
"648 380 CURVE SMOOTH",
"666 481 OFFCURVE",
"648 545 OFFCURVE",
"590 570 CURVE SMOOTH",
"511 604 OFFCURVE",
"290 533 OFFCURVE",
"235 539 CURVE SMOOTH",
"189 544 OFFCURVE",
"163 545 OFFCURVE",
"145 567 CURVE SMOOTH",
"129 587 OFFCURVE",
"116 592 OFFCURVE",
"114 551 CURVE SMOOTH",
"111 497 OFFCURVE",
"135 459 OFFCURVE",
"191 443 CURVE SMOOTH",
"250 426 OFFCURVE",
"402 479 OFFCURVE",
"455 493 CURVE SMOOTH",
"510 506 OFFCURVE",
"560 517 OFFCURVE",
"563 450 CURVE SMOOTH",
"567 353 OFFCURVE",
"493 165 OFFCURVE",
"444 131 CURVE SMOOTH",
"407 106 OFFCURVE",
"378 135 OFFCURVE",
"346 170 CURVE SMOOTH",
"317 200 OFFCURVE",
"299 194 OFFCURVE",
"321 163 CURVE SMOOTH",
"357 114 OFFCURVE",
"360 76 OFFCURVE",
"368 41 CURVE SMOOTH",
"380 -15 OFFCURVE",
"441 3 OFFCURVE",
"462 18 CURVE"
);
},
{
closed = 1;
nodes = (
"262 131 OFFCURVE",
"416 474 OFFCURVE",
"443 603 CURVE SMOOTH",
"454 657 OFFCURVE",
"486 650 OFFCURVE",
"472 701 CURVE SMOOTH",
"456 757 OFFCURVE",
"376 776 OFFCURVE",
"347 778 CURVE SMOOTH",
"315 781 OFFCURVE",
"306 769 OFFCURVE",
"322 749 CURVE SMOOTH",
"349 718 OFFCURVE",
"360 689 OFFCURVE",
"351 632 CURVE SMOOTH",
"315 394 OFFCURVE",
"177 230 OFFCURVE",
"125 176 CURVE SMOOTH",
"102 152 OFFCURVE",
"88 92 OFFCURVE",
"109 71 CURVE SMOOTH",
"127 54 OFFCURVE",
"150 51 OFFCURVE",
"177 70 CURVE SMOOTH"
);
},
{
closed = 1;
nodes = (
"943 265 OFFCURVE",
"981 337 OFFCURVE",
"970 390 CURVE SMOOTH",
"944 521 OFFCURVE",
"800 560 OFFCURVE",
"750 563 CURVE SMOOTH",
"696 565 OFFCURVE",
"696 561 OFFCURVE",
"744 541 CURVE SMOOTH",
"812 514 OFFCURVE",
"863 446 OFFCURVE",
"851 398 CURVE SMOOTH",
"842 362 OFFCURVE",
"798 360 OFFCURVE",
"754 360 CURVE SMOOTH",
"730 360 OFFCURVE",
"717 350 OFFCURVE",
"741 346 CURVE SMOOTH",
"773 341 OFFCURVE",
"789 335 OFFCURVE",
"820 323 CURVE SMOOTH",
"867 306 OFFCURVE",
"835 282 OFFCURVE",
"890 274 CURVE SMOOTH"
);
}
);
width = 1000;
}
);
unicode = 304B;
},
{
glyphname = "kasmall-hira";
lastChange = "2020-03-22 15:08:02 +0000";
layers = (
{
anchors = (
{
name = LSB;
position = "{132.855, 380}";
},
{
name = RSB;
position = "{959.561, 380}";
}
);
layerId = "BE1754C0-A605-45AC-AA12-D3A1FC0C380B";
paths = (
{
closed = 1;
nodes = (
"590 45 OFFCURVE",
"626 203 OFFCURVE",
"637 267 CURVE SMOOTH",
"651 348 OFFCURVE",
"636 398 OFFCURVE",
"590 419 CURVE SMOOTH",
"527 446 OFFCURVE",
"355 390 OFFCURVE",
"312 395 CURVE SMOOTH",
"276 398 OFFCURVE",
"258 399 OFFCURVE",
"244 416 CURVE SMOOTH",
"227 437 OFFCURVE",
"216 432 OFFCURVE",
"215 402 CURVE SMOOTH",
"212 357 OFFCURVE",
"233 326 OFFCURVE",
"277 314 CURVE SMOOTH",
"324 301 OFFCURVE",
"443 342 OFFCURVE",
"485 353 CURVE SMOOTH",
"527 363 OFFCURVE",
"562 371 OFFCURVE",
"565 323 CURVE SMOOTH",
"568 248 OFFCURVE",
"511 103 OFFCURVE",
"473 76 CURVE SMOOTH",
"446 58 OFFCURVE",
"425 79 OFFCURVE",
"400 106 CURVE SMOOTH",
"376 133 OFFCURVE",
"357 125 OFFCURVE",
"377 97 CURVE SMOOTH",
"404 59 OFFCURVE",
"407 31 OFFCURVE",
"413 3 CURVE SMOOTH",
"423 -44 OFFCURVE",
"473 -29 OFFCURVE",
"491 -16 CURVE"
);
},
{
closed = 1;
nodes = (
"335 72 OFFCURVE",
"456 341 OFFCURVE",
"477 441 CURVE SMOOTH",
"484 476 OFFCURVE",
"511 481 OFFCURVE",
"500 519 CURVE SMOOTH",
"486 565 OFFCURVE",
"423 579 OFFCURVE",
"399 582 CURVE SMOOTH",
"372 584 OFFCURVE",
"363 571 OFFCURVE",
"378 554 CURVE SMOOTH",
"399 529 OFFCURVE",
"406 507 OFFCURVE",
"400 464 CURVE SMOOTH",
"371 280 OFFCURVE",
"265 153 OFFCURVE",
"224 111 CURVE SMOOTH",
"205 91 OFFCURVE",
"194 43 OFFCURVE",
"212 25 CURVE SMOOTH",
"228 9 OFFCURVE",
"247 9 OFFCURVE",
"269 24 CURVE SMOOTH"
);
},
{
closed = 1;
nodes = (
"866 175 OFFCURVE",
"897 234 OFFCURVE",
"888 277 CURVE SMOOTH",
"868 380 OFFCURVE",
"753 411 OFFCURVE",
"714 413 CURVE SMOOTH",
"667 416 OFFCURVE",
"664 408 OFFCURVE",
"708 391 CURVE SMOOTH",
"760 371 OFFCURVE",
"798 319 OFFCURVE",
"789 283 CURVE SMOOTH",
"784 257 OFFCURVE",
"751 255 OFFCURVE",
"717 255 CURVE SMOOTH",
"692 255 OFFCURVE",
"684 243 OFFCURVE",
"707 239 CURVE SMOOTH",
"731 235 OFFCURVE",
"743 230 OFFCURVE",
"767 220 CURVE SMOOTH",
"791 212 OFFCURVE",
"781 189 OFFCURVE",
"823 182 CURVE SMOOTH"
);
}
);
width = 1000;
}
);
unicode = 3095;
},
{
glyphname = "ga-hira";
lastChange = "2020-03-22 15:08:02 +0000";
layers = (
{
anchors = (
{
name = LSB;
position = "{28.695, 380}";
},
{
name = RSB;
position = "{1049.391, 380}";
}
);
layerId = "BE1754C0-A605-45AC-AA12-D3A1FC0C380B";
paths = (
{
closed = 1;
nodes = (
"588 97 OFFCURVE",
"633 298 OFFCURVE",
"648 380 CURVE SMOOTH",
"666 481 OFFCURVE",
"648 545 OFFCURVE",
"590 570 CURVE SMOOTH",
"511 604 OFFCURVE",
"290 533 OFFCURVE",
"235 539 CURVE SMOOTH",
"189 544 OFFCURVE",
"163 545 OFFCURVE",
"145 567 CURVE SMOOTH",
"129 587 OFFCURVE",
"116 592 OFFCURVE",
"114 551 CURVE SMOOTH",
"111 497 OFFCURVE",
"135 459 OFFCURVE",
"191 443 CURVE SMOOTH",
"250 426 OFFCURVE",
"402 479 OFFCURVE",
"455 493 CURVE SMOOTH",
"510 506 OFFCURVE",
"560 517 OFFCURVE",
"563 450 CURVE SMOOTH",
"567 353 OFFCURVE",
"493 165 OFFCURVE",
"444 131 CURVE SMOOTH",
"407 106 OFFCURVE",
"378 135 OFFCURVE",
"346 170 CURVE SMOOTH",
"317 200 OFFCURVE",
"299 194 OFFCURVE",
"321 163 CURVE SMOOTH",
"357 114 OFFCURVE",
"360 76 OFFCURVE",
"368 41 CURVE SMOOTH",
"380 -15 OFFCURVE",
"441 3 OFFCURVE",
"462 18 CURVE"
);
},
{
closed = 1;
nodes = (
"262 131 OFFCURVE",
"416 474 OFFCURVE",
"443 603 CURVE SMOOTH",
"454 657 OFFCURVE",
"486 650 OFFCURVE",
"472 701 CURVE SMOOTH",
"456 757 OFFCURVE",
"376 776 OFFCURVE",
"347 778 CURVE SMOOTH",
"315 781 OFFCURVE",
"306 769 OFFCURVE",
"322 749 CURVE SMOOTH",
"349 718 OFFCURVE",
"360 689 OFFCURVE",
"351 632 CURVE SMOOTH",
"315 394 OFFCURVE",
"177 230 OFFCURVE",
"125 176 CURVE SMOOTH",
"102 152 OFFCURVE",
"88 92 OFFCURVE",
"109 71 CURVE SMOOTH",
"127 54 OFFCURVE",
"150 51 OFFCURVE",
"177 70 CURVE SMOOTH"
);
},
{
closed = 1;
nodes = (
"943 265 OFFCURVE",
"981 337 OFFCURVE",
"970 390 CURVE SMOOTH",
"944 521 OFFCURVE",
"800 560 OFFCURVE",
"750 563 CURVE SMOOTH",
"696 565 OFFCURVE",
"696 561 OFFCURVE",
"744 541 CURVE SMOOTH",
"812 514 OFFCURVE",
"863 446 OFFCURVE",
"851 398 CURVE SMOOTH",
"842 362 OFFCURVE",
"798 360 OFFCURVE",
"754 360 CURVE SMOOTH",
"730 360 OFFCURVE",
"717 350 OFFCURVE",
"741 346 CURVE SMOOTH",
"773 341 OFFCURVE",
"789 335 OFFCURVE",
"820 323 CURVE SMOOTH",
"867 306 OFFCURVE",
"835 282 OFFCURVE",
"890 274 CURVE SMOOTH"
);
},
{
closed = 1;
nodes = (
"878 583 OFFCURVE",
"908 605 OFFCURVE",
"887 652 CURVE SMOOTH",
"862 708 OFFCURVE",
"761 726 OFFCURVE",
"710 720 CURVE SMOOTH",
"698 719 OFFCURVE",
"698 715 OFFCURVE",
"710 709 CURVE SMOOTH",
"730 698 OFFCURVE",
"746 688 OFFCURVE",
"774 666 CURVE SMOOTH",
"822 630 OFFCURVE",
"822 597 OFFCURVE",
"854 589 CURVE SMOOTH"
);
},
{
closed = 1;
nodes = (
"967 680 OFFCURVE",
"995 704 OFFCURVE",
"969 749 CURVE SMOOTH",
"939 803 OFFCURVE",
"826 804 OFFCURVE",
"790 800 CURVE SMOOTH",
"777 799 OFFCURVE",
"776 795 OFFCURVE",
"790 789 CURVE SMOOTH",
"808 780 OFFCURVE",
"828 770 OFFCURVE",
"859 748 CURVE SMOOTH",
"907 714 OFFCURVE",
"911 688 OFFCURVE",
"942 683 CURVE SMOOTH"
);
}
);
width = 1000;
}
);
unicode = 304C;
},
{
glyphname = "ki-hira";
lastChange = "2020-03-22 15:08:02 +0000";
layers = (
{
anchors = (
{
name = LSB;
position = "{152.511, 380}";
},
{
name = RSB;
position = "{868.295, 380}";
}
);
layerId = "BE1754C0-A605-45AC-AA12-D3A1FC0C380B";
paths = (
{
closed = 1;
nodes = (
"583 -45 OFFCURVE",
"652 -29 OFFCURVE",
"655 8 CURVE SMOOTH",
"656 22 OFFCURVE",
"655 79 OFFCURVE",
"509 73 CURVE SMOOTH",
"379 67 OFFCURVE",
"301 100 OFFCURVE",
"311 164 CURVE SMOOTH",
"321 233 OFFCURVE",
"420 246 OFFCURVE",
"466 244 CURVE SMOOTH",
"538 241 OFFCURVE",
"572 222 OFFCURVE",
"605 200 CURVE SMOOTH",
"661 163 OFFCURVE",
"691 148 OFFCURVE",
"723 149 CURVE SMOOTH",
"755 151 OFFCURVE",
"798 228 OFFCURVE",
"766 292 CURVE SMOOTH",
"711 399 OFFCURVE",
"541 630 OFFCURVE",
"490 720 CURVE SMOOTH",
"468 759 OFFCURVE",
"452 800 OFFCURVE",
"417 817 CURVE SMOOTH",
"383 835 OFFCURVE",
"320 817 OFFCURVE",
"294 797 CURVE SMOOTH",
"271 779 OFFCURVE",
"284 772 OFFCURVE",
"301 775 CURVE SMOOTH",
"321 778 OFFCURVE",
"370 756 OFFCURVE",
"399 729 CURVE SMOOTH",
"480 654 OFFCURVE",
"641 328 OFFCURVE",
"657 297 CURVE SMOOTH",
"666 282 OFFCURVE",
"663 269 OFFCURVE",
"647 273 CURVE SMOOTH",
"584 289 OFFCURVE",
"517 294 OFFCURVE",
"472 294 CURVE SMOOTH",
"368 294 OFFCURVE",
"238 256 OFFCURVE",
"224 156 CURVE SMOOTH",
"207 29 OFFCURVE",
"338 -20 OFFCURVE",
"493 -36 CURVE SMOOTH"
);
},
{
closed = 1;
nodes = (
"439 364 OFFCURVE",
"541 385 OFFCURVE",
"666 429 CURVE SMOOTH",
"791 471 OFFCURVE",
"807 536 OFFCURVE",
"795 564 CURVE SMOOTH",
"787 580 OFFCURVE",
"743 585 OFFCURVE",
"669 579 CURVE SMOOTH",
"636 576 OFFCURVE",
"577 589 OFFCURVE",
"562 592 CURVE",
"561 584 OFFCURVE",
"561 564 OFFCURVE",
"578 558 CURVE SMOOTH",
"600 549 OFFCURVE",
"621 547 OFFCURVE",
"647 545 CURVE SMOOTH",
"676 544 OFFCURVE",
"679 530 OFFCURVE",
"652 518 CURVE SMOOTH",
"623 506 OFFCURVE",
"444 459 OFFCURVE",
"381 467 CURVE SMOOTH",
"317 474 OFFCURVE",
"267 511 OFFCURVE",
"250 523 CURVE SMOOTH",
"236 532 OFFCURVE",
"233 527 OFFCURVE",
"242 504 CURVE SMOOTH",
"254 476 OFFCURVE",
"279 433 OFFCURVE",
"359 399 CURVE SMOOTH"
);
},
{
closed = 1;
nodes = (
"399 553 OFFCURVE",
"482 579 OFFCURVE",
"555 605 CURVE SMOOTH",
"603 622 OFFCURVE",
"621 648 OFFCURVE",
"608 675 CURVE SMOOTH",
"599 691 OFFCURVE",
"581 697 OFFCURVE",
"557 694 CURVE SMOOTH",
"509 688 OFFCURVE",
"436 650 OFFCURVE",
"392 650 CURVE SMOOTH",
"349 649 OFFCURVE",
"330 663 OFFCURVE",
"297 683 CURVE SMOOTH",
"269 703 OFFCURVE",
"262 699 OFFCURVE",
"276 668 CURVE SMOOTH",
"285 650 OFFCURVE",
"299 620 OFFCURVE",
"335 596 CURVE SMOOTH"
);
}
);
width = 1000;
}
);
unicode = 304D;
},
{
glyphname = "gi-hira";
lastChange = "2020-03-22 15:08:02 +0000";
layers = (
{
anchors = (
{
name = LSB;
position = "{154.511, 380}";
},
{
name = RSB;
position = "{1009.593, 380}";
}
);
layerId = "BE1754C0-A605-45AC-AA12-D3A1FC0C380B";
paths = (
{
closed = 1;
nodes = (
"585 -45 OFFCURVE",
"655 -29 OFFCURVE",
"657 8 CURVE SMOOTH",
"658 22 OFFCURVE",
"657 79 OFFCURVE",
"511 73 CURVE SMOOTH",
"381 68 OFFCURVE",
"303 100 OFFCURVE",
"313 164 CURVE SMOOTH",
"323 233 OFFCURVE",
"422 246 OFFCURVE",
"468 244 CURVE SMOOTH",
"540 241 OFFCURVE",
"574 222 OFFCURVE",
"607 200 CURVE SMOOTH",
"663 163 OFFCURVE",
"693 148 OFFCURVE",
"725 149 CURVE SMOOTH",
"757 151 OFFCURVE",
"800 228 OFFCURVE",
"768 292 CURVE SMOOTH",
"714 399 OFFCURVE",
"543 630 OFFCURVE",
"492 720 CURVE SMOOTH",
"470 759 OFFCURVE",
"455 800 OFFCURVE",
"420 817 CURVE SMOOTH",
"385 835 OFFCURVE",
"323 817 OFFCURVE",
"296 798 CURVE SMOOTH",
"273 779 OFFCURVE",
"286 772 OFFCURVE",
"303 775 CURVE SMOOTH",
"324 778 OFFCURVE",
"372 756 OFFCURVE",
"401 729 CURVE SMOOTH",
"482 654 OFFCURVE",
"643 328 OFFCURVE",
"659 297 CURVE SMOOTH",
"668 282 OFFCURVE",
"665 269 OFFCURVE",
"649 273 CURVE SMOOTH",
"586 289 OFFCURVE",
"520 294 OFFCURVE",
"474 294 CURVE SMOOTH",
"370 294 OFFCURVE",
"240 256 OFFCURVE",
"226 156 CURVE SMOOTH",
"209 29 OFFCURVE",
"340 -20 OFFCURVE",
"496 -36 CURVE SMOOTH"
);
},
{
closed = 1;
nodes = (
"441 364 OFFCURVE",
"543 385 OFFCURVE",
"668 429 CURVE SMOOTH",
"793 471 OFFCURVE",
"810 536 OFFCURVE",
"797 564 CURVE SMOOTH",
"789 580 OFFCURVE",
"746 585 OFFCURVE",
"671 579 CURVE SMOOTH",
"638 576 OFFCURVE",
"579 589 OFFCURVE",
"564 592 CURVE",
"563 584 OFFCURVE",
"563 564 OFFCURVE",
"580 558 CURVE SMOOTH",
"602 549 OFFCURVE",
"623 547 OFFCURVE",
"649 545 CURVE SMOOTH",
"679 544 OFFCURVE",
"681 530 OFFCURVE",
"654 518 CURVE SMOOTH",
"625 507 OFFCURVE",
"446 459 OFFCURVE",
"383 467 CURVE SMOOTH",
"319 475 OFFCURVE",
"269 511 OFFCURVE",
"252 523 CURVE SMOOTH",
"238 532 OFFCURVE",
"235 527 OFFCURVE",
"244 504 CURVE SMOOTH",
"256 476 OFFCURVE",
"281 433 OFFCURVE",
"361 399 CURVE SMOOTH"
);
},
{
closed = 1;
nodes = (
"401 553 OFFCURVE",
"485 579 OFFCURVE",
"557 605 CURVE SMOOTH",
"605 622 OFFCURVE",
"623 648 OFFCURVE",
"610 675 CURVE SMOOTH",
"601 691 OFFCURVE",
"584 697 OFFCURVE",
"559 694 CURVE SMOOTH",
"511 688 OFFCURVE",
"438 650 OFFCURVE",
"394 650 CURVE SMOOTH",
"351 649 OFFCURVE",
"332 663 OFFCURVE",
"299 683 CURVE SMOOTH",
"271 703 OFFCURVE",
"264 699 OFFCURVE",
"278 669 CURVE SMOOTH",
"287 650 OFFCURVE",
"301 620 OFFCURVE",
"337 596 CURVE SMOOTH"
);
},
{
closed = 1;
nodes = (
"835 613 OFFCURVE",
"865 648 OFFCURVE",
"837 687 CURVE SMOOTH",
"797 742 OFFCURVE",
"708 750 OFFCURVE",
"659 743 CURVE SMOOTH",
"642 740 OFFCURVE",
"643 735 OFFCURVE",
"654 731 CURVE SMOOTH",
"678 721 OFFCURVE",
"694 715 OFFCURVE",
"724 689 CURVE SMOOTH",
"765 654 OFFCURVE",
"773 625 OFFCURVE",
"803 619 CURVE SMOOTH"
);
},
{
closed = 1;
nodes = (
"929 715 OFFCURVE",
"959 747 OFFCURVE",
"923 785 CURVE SMOOTH",
"885 826 OFFCURVE",
"803 832 OFFCURVE",
"753 820 CURVE SMOOTH",
"730 815 OFFCURVE",
"724 810 OFFCURVE",
"739 805 CURVE SMOOTH",
"761 798 OFFCURVE",
"781 791 OFFCURVE",
"810 775 CURVE SMOOTH",
"863 744 OFFCURVE",
"872 719 OFFCURVE",
"903 717 CURVE SMOOTH"
);
}
);
width = 1000;
}
);
unicode = 304E;
},
{
glyphname = "ku-hira";
lastChange = "2020-03-22 15:08:02 +0000";
layers = (
{
anchors = (
{
name = LSB;
position = "{218.345, 380}";
},
{
name = RSB;
position = "{694.503, 380}";
}
);
layerId = "BE1754C0-A605-45AC-AA12-D3A1FC0C380B";
paths = (
{
closed = 1;
nodes = (
"589 -48 OFFCURVE",
"643 -2 OFFCURVE",
"614 82 CURVE SMOOTH",
"581 178 OFFCURVE",
"464 303 OFFCURVE",
"400 357 CURVE SMOOTH",
"376 378 OFFCURVE",
"373 399 OFFCURVE",
"393 420 CURVE SMOOTH",
"460 492 OFFCURVE",
"553 580 OFFCURVE",
"603 663 CURVE SMOOTH",
"621 692 OFFCURVE",
"645 736 OFFCURVE",
"593 776 CURVE SMOOTH",
"566 796 OFFCURVE",
"525 809 OFFCURVE",
"486 809 CURVE SMOOTH",
"459 809 OFFCURVE",
"450 796 OFFCURVE",
"466 787 CURVE SMOOTH",
"492 774 OFFCURVE",
"505 749 OFFCURVE",
"502 720 CURVE SMOOTH",
"496 674 OFFCURVE",
"378 528 OFFCURVE",
"311 437 CURVE SMOOTH",
"283 398 OFFCURVE",
"274 376 OFFCURVE",
"325 321 CURVE SMOOTH",
"351 292 OFFCURVE",
"446 208 OFFCURVE",
"504 20 CURVE SMOOTH",
"520 -27 OFFCURVE",
"533 -58 OFFCURVE",
"561 -53 CURVE SMOOTH"
);
}
);
width = 1000;
}
);
unicode = 304F;
},
{
glyphname = "gu-hira";
lastChange = "2020-03-22 15:08:02 +0000";
layers = (
{
anchors = (
{
name = LSB;
position = "{223.065, 380}";
},
{
name = RSB;
position = "{1021.011, 380}";
}
);
layerId = "BE1754C0-A605-45AC-AA12-D3A1FC0C380B";
paths = (
{
closed = 1;
nodes = (
"594 -48 OFFCURVE",
"647 -2 OFFCURVE",
"618 82 CURVE SMOOTH",
"585 178 OFFCURVE",
"470 303 OFFCURVE",
"405 357 CURVE SMOOTH",
"380 378 OFFCURVE",
"378 399 OFFCURVE",
"397 420 CURVE SMOOTH",
"464 492 OFFCURVE",
"557 580 OFFCURVE",
"607 663 CURVE SMOOTH",
"626 692 OFFCURVE",
"649 736 OFFCURVE",
"598 776 CURVE SMOOTH",
"571 796 OFFCURVE",
"530 809 OFFCURVE",
"490 809 CURVE SMOOTH",
"463 809 OFFCURVE",
"454 796 OFFCURVE",
"471 787 CURVE SMOOTH",
"497 774 OFFCURVE",
"509 749 OFFCURVE",
"507 720 CURVE SMOOTH",
"501 674 OFFCURVE",
"382 528 OFFCURVE",
"315 437 CURVE SMOOTH",
"287 398 OFFCURVE",
"280 376 OFFCURVE",
"329 321 CURVE SMOOTH",
"355 292 OFFCURVE",
"450 208 OFFCURVE",
"509 20 CURVE SMOOTH",
"524 -27 OFFCURVE",
"538 -58 OFFCURVE",
"566 -53 CURVE SMOOTH"
);
},
{
closed = 1;
nodes = (
"800 458 OFFCURVE",
"832 476 OFFCURVE",
"819 526 CURVE SMOOTH",
"802 586 OFFCURVE",
"711 614 OFFCURVE",
"661 618 CURVE SMOOTH",
"646 620 OFFCURVE",
"642 617 OFFCURVE",
"653 608 CURVE SMOOTH",
"670 595 OFFCURVE",
"684 582 OFFCURVE",
"710 554 CURVE SMOOTH",
"751 510 OFFCURVE",
"752 482 OFFCURVE",
"776 470 CURVE SMOOTH"
);
},
{
closed = 1;
nodes = (
"934 542 OFFCURVE",
"964 560 OFFCURVE",
"945 609 CURVE SMOOTH",
"922 665 OFFCURVE",
"828 685 OFFCURVE",
"777 682 CURVE SMOOTH",
"763 682 OFFCURVE",
"758 678 OFFCURVE",
"771 671 CURVE SMOOTH",
"795 658 OFFCURVE",
"810 646 OFFCURVE",
"837 622 CURVE SMOOTH",
"883 582 OFFCURVE",
"886 553 OFFCURVE",
"910 548 CURVE SMOOTH"
);
}
);
width = 1000;
}
);
unicode = 3050;
},
{
glyphname = "ke-hira";
lastChange = "2020-03-22 15:08:02 +0000";
layers = (
{
anchors = (
{
name = LSB;
position = "{97.237, 380}";
},
{
name = RSB;
position = "{953.636, 380}";
}
);
layerId = "BE1754C0-A605-45AC-AA12-D3A1FC0C380B";
paths = (
{
closed = 1;
nodes = (
"545 -35 OFFCURVE",
"727 26 OFFCURVE",
"751 217 CURVE SMOOTH",
"774 409 OFFCURVE",
"739 474 OFFCURVE",
"748 647 CURVE SMOOTH",
"751 697 OFFCURVE",
"770 707 OFFCURVE",
"760 734 CURVE SMOOTH",
"751 762 OFFCURVE",
"694 793 OFFCURVE",
"617 782 CURVE SMOOTH",
"584 777 OFFCURVE",
"575 768 OFFCURVE",
"591 759 CURVE SMOOTH",
"606 751 OFFCURVE",
"640 729 OFFCURVE",
"648 688 CURVE SMOOTH",
"657 647 OFFCURVE",
"680 323 OFFCURVE",
"656 198 CURVE SMOOTH",
"631 67 OFFCURVE",
"530 -19 OFFCURVE",
"503 -36 CURVE SMOOTH",
"483 -48 OFFCURVE",
"489 -52 OFFCURVE",
"514 -44 CURVE SMOOTH"
);
},
{
closed = 1;
nodes = (
"370 25 OFFCURVE",
"314 101 OFFCURVE",
"314 131 CURVE SMOOTH",
"314 158 OFFCURVE",
"336 301 OFFCURVE",
"398 426 CURVE SMOOTH",
"416 460 OFFCURVE",
"411 461 OFFCURVE",
"388 434 CURVE SMOOTH",
"350 385 OFFCURVE",
"275 270 OFFCURVE",
"265 250 CURVE SMOOTH",
"254 227 OFFCURVE",
"241 250 OFFCURVE",
"244 288 CURVE SMOOTH",
"254 432 OFFCURVE",
"326 550 OFFCURVE",
"319 629 CURVE SMOOTH",
"311 708 OFFCURVE",
"233 743 OFFCURVE",
"190 761 CURVE SMOOTH",
"165 772 OFFCURVE",
"161 768 OFFCURVE",
"182 746 CURVE SMOOTH",
"205 720 OFFCURVE",
"213 675 OFFCURVE",
"207 607 CURVE SMOOTH",
"203 545 OFFCURVE",
"150 385 OFFCURVE",
"173 211 CURVE SMOOTH",
"195 37 OFFCURVE",
"267 -34 OFFCURVE",
"321 -4 CURVE SMOOTH"
);
},
{
closed = 1;
nodes = (
"670 471 OFFCURVE",
"783 526 OFFCURVE",
"838 546 CURVE SMOOTH",
"890 564 OFFCURVE",
"888 602 OFFCURVE",
"878 623 CURVE SMOOTH",
"863 657 OFFCURVE",
"834 634 OFFCURVE",
"791 654 CURVE SMOOTH",
"774 663 OFFCURVE",
"758 681 OFFCURVE",
"752 689 CURVE",
"742 667 LINE",
"753 657 OFFCURVE",
"769 636 OFFCURVE",
"786 623 CURVE SMOOTH",
"794 617 OFFCURVE",
"792 607 OFFCURVE",
"783 604 CURVE SMOOTH",
"768 597 OFFCURVE",
"690 571 OFFCURVE",
"642 559 CURVE SMOOTH",
"592 547 OFFCURVE",
"540 555 OFFCURVE",
"510 563 CURVE SMOOTH",
"483 571 OFFCURVE",
"480 561 OFFCURVE",
"501 539 CURVE SMOOTH",
"526 514 OFFCURVE",
"570 487 OFFCURVE",
"615 480 CURVE SMOOTH"
);
}
);
width = 1000;
}
);
unicode = 3051;
},
{
glyphname = "ge-hira";
lastChange = "2020-03-22 15:08:02 +0000";
layers = (
{
anchors = (
{
name = LSB;
position = "{96.869, 380}";
},
{
name = RSB;
position = "{1068.124, 380}";
}
);
layerId = "BE1754C0-A605-45AC-AA12-D3A1FC0C380B";
paths = (
{
closed = 1;
nodes = (
"544 -34 OFFCURVE",
"726 26 OFFCURVE",
"751 217 CURVE SMOOTH",
"774 409 OFFCURVE",
"738 474 OFFCURVE",
"748 648 CURVE SMOOTH",
"751 697 OFFCURVE",
"769 707 OFFCURVE",
"759 734 CURVE SMOOTH",
"751 762 OFFCURVE",
"693 793 OFFCURVE",
"617 783 CURVE SMOOTH",
"584 778 OFFCURVE",
"574 768 OFFCURVE",
"591 759 CURVE SMOOTH",
"605 752 OFFCURVE",
"639 729 OFFCURVE",
"648 689 CURVE SMOOTH",
"657 648 OFFCURVE",
"680 324 OFFCURVE",
"656 199 CURVE SMOOTH",
"630 68 OFFCURVE",
"529 -19 OFFCURVE",
"502 -36 CURVE SMOOTH",
"482 -48 OFFCURVE",
"489 -52 OFFCURVE",
"513 -44 CURVE SMOOTH"
);
},
{
closed = 1;
nodes = (
"369 25 OFFCURVE",
"313 102 OFFCURVE",
"313 132 CURVE SMOOTH",
"313 159 OFFCURVE",
"335 302 OFFCURVE",
"398 427 CURVE SMOOTH",
"415 461 OFFCURVE",
"410 462 OFFCURVE",
"388 434 CURVE SMOOTH",
"349 386 OFFCURVE",
"274 270 OFFCURVE",
"265 250 CURVE SMOOTH",
"253 228 OFFCURVE",
"240 250 OFFCURVE",
"243 289 CURVE SMOOTH",
"253 432 OFFCURVE",
"326 551 OFFCURVE",
"318 629 CURVE SMOOTH",
"310 708 OFFCURVE",
"233 744 OFFCURVE",
"189 761 CURVE SMOOTH",
"165 772 OFFCURVE",
"161 768 OFFCURVE",
"181 747 CURVE SMOOTH",
"205 721 OFFCURVE",
"212 675 OFFCURVE",
"206 607 CURVE SMOOTH",
"203 545 OFFCURVE",
"149 386 OFFCURVE",
"173 211 CURVE SMOOTH",
"195 38 OFFCURVE",
"267 -33 OFFCURVE",
"320 -3 CURVE SMOOTH"
);
},
{
closed = 1;
nodes = (
"669 471 OFFCURVE",
"783 527 OFFCURVE",
"837 546 CURVE SMOOTH",
"889 564 OFFCURVE",
"887 602 OFFCURVE",
"878 624 CURVE SMOOTH",
"862 657 OFFCURVE",
"833 634 OFFCURVE",
"790 655 CURVE SMOOTH",
"774 663 OFFCURVE",
"757 682 OFFCURVE",
"752 690 CURVE",
"741 667 LINE",
"753 657 OFFCURVE",
"768 636 OFFCURVE",
"786 624 CURVE",
"793 618 OFFCURVE",
"791 607 OFFCURVE",
"783 604 CURVE SMOOTH",
"767 597 OFFCURVE",
"690 571 OFFCURVE",
"641 560 CURVE SMOOTH",
"592 548 OFFCURVE",
"539 556 OFFCURVE",
"509 563 CURVE SMOOTH",
"482 571 OFFCURVE",
"479 561 OFFCURVE",
"500 539 CURVE SMOOTH",
"526 514 OFFCURVE",
"569 488 OFFCURVE",
"615 480 CURVE SMOOTH"
);
},
{
closed = 1;
nodes = (
"886 653 OFFCURVE",
"919 667 OFFCURVE",
"907 714 CURVE SMOOTH",
"891 769 OFFCURVE",
"806 796 OFFCURVE",
"759 801 CURVE SMOOTH",
"742 802 OFFCURVE",
"738 799 OFFCURVE",
"753 790 CURVE SMOOTH",
"776 775 OFFCURVE",
"785 765 OFFCURVE",
"808 739 CURVE SMOOTH",
"847 697 OFFCURVE",
"844 672 OFFCURVE",
"868 662 CURVE SMOOTH"
);
},
{
closed = 1;
nodes = (
"981 728 OFFCURVE",
"1010 747 OFFCURVE",
"993 793 CURVE SMOOTH",
"972 845 OFFCURVE",
"872 866 OFFCURVE",
"825 860 CURVE SMOOTH",
"820 859 OFFCURVE",
"820 858 OFFCURVE",
"832 851 CURVE SMOOTH",
"848 840 OFFCURVE",
"866 826 OFFCURVE",
"890 805 CURVE SMOOTH",
"933 768 OFFCURVE",
"937 744 OFFCURVE",
"960 736 CURVE SMOOTH"
);
}
);
width = 1000;
}
);
unicode = 3052;
},
{
glyphname = "kesmall-hira";
lastChange = "2020-03-22 15:08:02 +0000";
layers = (
{
anchors = (
{
name = LSB;
position = "{172.532, 380}";
},
{
name = RSB;
position = "{877.32, 380}";
}
);
layerId = "BE1754C0-A605-45AC-AA12-D3A1FC0C380B";
paths = (
{
closed = 1;
nodes = (
"540 -41 OFFCURVE",
"685 7 OFFCURVE",
"704 158 CURVE SMOOTH",
"722 308 OFFCURVE",
"694 359 OFFCURVE",
"701 494 CURVE SMOOTH",
"704 531 OFFCURVE",
"718 539 OFFCURVE",
"711 562 CURVE SMOOTH",
"704 586 OFFCURVE",
"658 611 OFFCURVE",
"597 602 CURVE SMOOTH",
"568 598 OFFCURVE",
"559 587 OFFCURVE",
"575 578 CURVE SMOOTH",
"586 572 OFFCURVE",
"611 556 OFFCURVE",
"618 524 CURVE SMOOTH",
"625 494 OFFCURVE",
"643 241 OFFCURVE",
"624 145 CURVE SMOOTH",
"604 43 OFFCURVE",
"527 -24 OFFCURVE",
"505 -36 CURVE SMOOTH",
"487 -48 OFFCURVE",
"493 -57 OFFCURVE",
"516 -48 CURVE SMOOTH"
);
},
{
closed = 1;
nodes = (
"407 7 OFFCURVE",
"363 71 OFFCURVE",
"363 92 CURVE SMOOTH",
"363 113 OFFCURVE",
"380 223 OFFCURVE",
"429 321 CURVE SMOOTH",
"444 351 OFFCURVE",
"438 356 OFFCURVE",
"416 330 CURVE SMOOTH",
"386 292 OFFCURVE",
"327 201 OFFCURVE",
"319 185 CURVE SMOOTH",
"311 171 OFFCURVE",
"306 188 OFFCURVE",
"309 214 CURVE",
"315 326 OFFCURVE",
"373 418 OFFCURVE",
"367 480 CURVE SMOOTH",
"360 543 OFFCURVE",
"298 572 OFFCURVE",
"264 586 CURVE SMOOTH",
"241 595 OFFCURVE",
"237 588 OFFCURVE",
"255 569 CURVE SMOOTH",
"273 549 OFFCURVE",
"278 513 OFFCURVE",
"274 462 CURVE SMOOTH",
"271 415 OFFCURVE",
"229 290 OFFCURVE",
"247 154 CURVE SMOOTH",
"265 17 OFFCURVE",
"322 -41 OFFCURVE",
"366 -17 CURVE SMOOTH"
);
},
{
closed = 1;
nodes = (
"637 354 OFFCURVE",
"727 396 OFFCURVE",
"769 412 CURVE SMOOTH",
"812 427 OFFCURVE",
"811 460 OFFCURVE",
"803 476 CURVE SMOOTH",
"790 504 OFFCURVE",
"764 488 OFFCURVE",
"733 502 CURVE SMOOTH",
"725 506 OFFCURVE",
"714 516 OFFCURVE",
"703 528 CURVE",
"698 527 LINE",
"691 510 LINE",
"692 507 LINE",
"700 499 OFFCURVE",
"713 483 OFFCURVE",
"727 473 CURVE",
"730 469 OFFCURVE",
"730 464 OFFCURVE",
"725 463 CURVE",
"713 458 OFFCURVE",
"652 437 OFFCURVE",
"614 428 CURVE SMOOTH",
"577 419 OFFCURVE",
"536 426 OFFCURVE",
"513 431 CURVE SMOOTH",
"489 438 OFFCURVE",
"484 427 OFFCURVE",
"504 407 CURVE SMOOTH",
"524 388 OFFCURVE",
"559 366 OFFCURVE",
"595 361 CURVE SMOOTH"
);
}
);
width = 1000;
}
);
unicode = 3096;
},
{
glyphname = "ko-hira";
lastChange = "2020-03-22 15:08:02 +0000";
layers = (
{
anchors = (
{
name = LSB;
position = "{117.272, 380}";
},
{
name = RSB;
position = "{890.018, 380}";
}
);
layerId = "BE1754C0-A605-45AC-AA12-D3A1FC0C380B";
paths = (
{
closed = 1;
nodes = (
"752 23 OFFCURVE",
"819 58 OFFCURVE",
"820 97 CURVE SMOOTH",
"821 135 OFFCURVE",
"780 165 OFFCURVE",
"694 149 CURVE SMOOTH",
"677 146 OFFCURVE",
"638 136 OFFCURVE",
"589 131 CURVE SMOOTH",
"510 124 OFFCURVE",
"397 120 OFFCURVE",
"333 144 CURVE SMOOTH",
"226 185 OFFCURVE",
"235 261 OFFCURVE",
"256 307 CURVE SMOOTH",
"273 347 OFFCURVE",
"255 340 OFFCURVE",
"226 297 CURVE SMOOTH",
"93 100 OFFCURVE",
"321 -13 OFFCURVE",
"629 13 CURVE SMOOTH"
);
},
{
closed = 1;
nodes = (
"454 538 OFFCURVE",
"560 579 OFFCURVE",
"622 588 CURVE SMOOTH",
"666 594 OFFCURVE",
"701 584 OFFCURVE",
"711 623 CURVE SMOOTH",
"721 662 OFFCURVE",
"669 699 OFFCURVE",
"631 707 CURVE SMOOTH",
"595 715 OFFCURVE",
"552 694 OFFCURVE",
"470 696 CURVE SMOOTH",
"386 698 OFFCURVE",
"343 706 OFFCURVE",
"287 738 CURVE SMOOTH",
"266 752 OFFCURVE",
"249 750 OFFCURVE",
"271 712 CURVE SMOOTH",
"311 644 OFFCURVE",
"377 623 OFFCURVE",
"418 614 CURVE SMOOTH",
"435 610 OFFCURVE",
"465 608 OFFCURVE",
"449 589 CURVE SMOOTH",
"436 573 OFFCURVE",
"413 547 OFFCURVE",
"397 526 CURVE SMOOTH",
"372 492 OFFCURVE",
"391 489 OFFCURVE",
"405 501 CURVE SMOOTH"
);
}
);
width = 1000;
}
);
unicode = 3053;
},
{
glyphname = "go-hira";
lastChange = "2020-03-22 15:08:02 +0000";
layers = (
{
anchors = (
{
name = LSB;
position = "{117.272, 380}";
},
{
name = RSB;
position = "{1060.657, 380}";
}
);
layerId = "BE1754C0-A605-45AC-AA12-D3A1FC0C380B";
paths = (
{
closed = 1;
nodes = (
"752 23 OFFCURVE",
"819 58 OFFCURVE",
"820 97 CURVE SMOOTH",
"821 135 OFFCURVE",
"780 165 OFFCURVE",
"694 149 CURVE SMOOTH",
"677 146 OFFCURVE",
"638 136 OFFCURVE",
"589 131 CURVE SMOOTH",
"510 124 OFFCURVE",
"397 120 OFFCURVE",
"333 144 CURVE SMOOTH",
"226 185 OFFCURVE",
"235 261 OFFCURVE",
"256 307 CURVE SMOOTH",
"273 347 OFFCURVE",
"255 340 OFFCURVE",
"226 297 CURVE SMOOTH",
"93 100 OFFCURVE",
"321 -13 OFFCURVE",
"629 13 CURVE SMOOTH"
);
},
{
closed = 1;
nodes = (
"454 538 OFFCURVE",
"560 579 OFFCURVE",
"622 588 CURVE SMOOTH",
"666 594 OFFCURVE",
"701 584 OFFCURVE",
"711 623 CURVE SMOOTH",
"721 662 OFFCURVE",
"669 699 OFFCURVE",
"631 707 CURVE SMOOTH",
"595 715 OFFCURVE",
"552 694 OFFCURVE",
"470 696 CURVE SMOOTH",
"386 698 OFFCURVE",
"343 706 OFFCURVE",
"287 738 CURVE SMOOTH",
"266 752 OFFCURVE",
"249 750 OFFCURVE",
"271 712 CURVE SMOOTH",
"311 644 OFFCURVE",
"377 623 OFFCURVE",
"418 614 CURVE SMOOTH",
"435 610 OFFCURVE",
"465 608 OFFCURVE",
"449 589 CURVE SMOOTH",
"436 573 OFFCURVE",
"413 547 OFFCURVE",
"397 526 CURVE SMOOTH",
"372 492 OFFCURVE",
"391 489 OFFCURVE",
"405 501 CURVE SMOOTH"
);
},
{
closed = 1;
nodes = (
"864 416 OFFCURVE",
"894 436 OFFCURVE",
"872 485 CURVE SMOOTH",
"848 540 OFFCURVE",
"754 554 OFFCURVE",
"702 553 CURVE SMOOTH",
"686 553 OFFCURVE",
"685 549 OFFCURVE",
"698 542 CURVE SMOOTH",
"716 532 OFFCURVE",
"733 521 OFFCURVE",
"763 496 CURVE SMOOTH",
"811 458 OFFCURVE",
"807 430 OFFCURVE",
"839 423 CURVE SMOOTH"
);
},
{
closed = 1;
nodes = (
"977 515 OFFCURVE",
"1007 539 OFFCURVE",
"980 584 CURVE SMOOTH",
"947 638 OFFCURVE",
"854 646 OFFCURVE",
"804 639 CURVE SMOOTH",
"791 637 OFFCURVE",
"787 634 OFFCURVE",
"801 627 CURVE SMOOTH",
"820 619 OFFCURVE",
"842 606 OFFCURVE",
"870 586 CURVE SMOOTH",
"920 552 OFFCURVE",
"920 524 OFFCURVE",
"953 519 CURVE SMOOTH"
);
}
);
width = 1000;
}
);
unicode = 3054;
},
{
glyphname = "sa-hira";
lastChange = "2020-03-22 15:08:02 +0000";
layers = (
{
anchors = (
{
name = LSB;
position = "{91.801, 380}";
},
{
name = RSB;
position = "{877.259, 380}";
}
);
layerId = "BE1754C0-A605-45AC-AA12-D3A1FC0C380B";
paths = (
{
closed = 1;
nodes = (
"548 -18 OFFCURVE",
"625 -12 OFFCURVE",
"626 35 CURVE SMOOTH",
"628 106 OFFCURVE",
"521 101 OFFCURVE",
"461 101 CURVE SMOOTH",
"358 101 OFFCURVE",
"285 144 OFFCURVE",
"294 200 CURVE SMOOTH",
"302 255 OFFCURVE",
"367 289 OFFCURVE",
"437 284 CURVE SMOOTH",
"516 278 OFFCURVE",
"606 242 OFFCURVE",
"663 200 CURVE SMOOTH",
"705 171 OFFCURVE",
"764 176 OFFCURVE",
"786 210 CURVE SMOOTH",
"830 275 OFFCURVE",
"801 329 OFFCURVE",
"742 405 CURVE SMOOTH",
"667 501 OFFCURVE",
"438 675 OFFCURVE",
"404 695 CURVE",
"377 714 OFFCURVE",
"391 735 OFFCURVE",
"404 732 CURVE SMOOTH",
"417 729 OFFCURVE",
"495 690 OFFCURVE",
"526 679 CURVE SMOOTH",
"549 672 OFFCURVE",
"542 643 OFFCURVE",
"518 631 CURVE SMOOTH",
"490 618 OFFCURVE",
"364 566 OFFCURVE",
"318 566 CURVE SMOOTH",
"267 566 OFFCURVE",
"215 586 OFFCURVE",
"181 620 CURVE SMOOTH",
"165 635 OFFCURVE",
"156 624 OFFCURVE",
"166 598 CURVE SMOOTH",
"181 563 OFFCURVE",
"219 512 OFFCURVE",
"303 493 CURVE SMOOTH",
"418 467 OFFCURVE",
"604 575 OFFCURVE",
"631 605 CURVE SMOOTH",
"659 636 OFFCURVE",
"690 664 OFFCURVE",
"662 703 CURVE SMOOTH",
"632 741 OFFCURVE",
"559 708 OFFCURVE",
"517 714 CURVE SMOOTH",
"473 720 OFFCURVE",
"440 750 OFFCURVE",
"411 766 CURVE SMOOTH",
"383 783 OFFCURVE",
"332 787 OFFCURVE",
"299 729 CURVE SMOOTH",
"275 690 OFFCURVE",
"331 649 OFFCURVE",
"411 606 CURVE SMOOTH",
"530 541 OFFCURVE",
"657 379 OFFCURVE",
"676 344 CURVE SMOOTH",
"690 318 OFFCURVE",
"687 301 OFFCURVE",
"650 311 CURVE SMOOTH",
"578 332 OFFCURVE",
"536 344 OFFCURVE",
"428 342 CURVE SMOOTH",
"310 341 OFFCURVE",
"210 283 OFFCURVE",
"200 200 CURVE SMOOTH",
"186 82 OFFCURVE",
"325 -10 OFFCURVE",
"474 -14 CURVE SMOOTH"
);
}
);
width = 1000;
}
);
unicode = 3055;
},
{
glyphname = "za-hira";
lastChange = "2020-03-22 15:08:02 +0000";
layers = (
{
anchors = (
{
name = LSB;
position = "{91.801, 380}";
},
{
name = RSB;
position = "{1015.33, 380}";
}
);
layerId = "BE1754C0-A605-45AC-AA12-D3A1FC0C380B";
paths = (
{
closed = 1;
nodes = (
"548 -18 OFFCURVE",
"625 -12 OFFCURVE",
"626 35 CURVE SMOOTH",
"628 106 OFFCURVE",
"521 101 OFFCURVE",
"461 101 CURVE SMOOTH",
"358 101 OFFCURVE",
"285 144 OFFCURVE",
"294 200 CURVE SMOOTH",
"302 255 OFFCURVE",
"367 289 OFFCURVE",
"437 284 CURVE SMOOTH",
"516 278 OFFCURVE",
"606 242 OFFCURVE",
"663 200 CURVE SMOOTH",
"705 171 OFFCURVE",
"764 176 OFFCURVE",
"786 210 CURVE SMOOTH",
"830 275 OFFCURVE",
"801 329 OFFCURVE",
"742 405 CURVE SMOOTH",
"667 501 OFFCURVE",
"438 675 OFFCURVE",
"404 695 CURVE",
"377 714 OFFCURVE",
"391 735 OFFCURVE",
"404 732 CURVE SMOOTH",
"417 729 OFFCURVE",
"495 690 OFFCURVE",
"526 679 CURVE SMOOTH",
"549 672 OFFCURVE",
"542 643 OFFCURVE",
"518 631 CURVE SMOOTH",
"490 618 OFFCURVE",
"364 566 OFFCURVE",
"318 566 CURVE SMOOTH",
"267 566 OFFCURVE",
"215 586 OFFCURVE",
"181 620 CURVE SMOOTH",
"165 635 OFFCURVE",
"156 624 OFFCURVE",
"166 598 CURVE SMOOTH",
"181 563 OFFCURVE",
"219 512 OFFCURVE",
"303 493 CURVE SMOOTH",
"418 467 OFFCURVE",
"604 575 OFFCURVE",
"631 605 CURVE SMOOTH",
"659 636 OFFCURVE",
"690 664 OFFCURVE",
"662 703 CURVE SMOOTH",
"632 741 OFFCURVE",
"559 708 OFFCURVE",
"517 714 CURVE SMOOTH",
"473 720 OFFCURVE",
"440 750 OFFCURVE",
"411 766 CURVE SMOOTH",
"383 783 OFFCURVE",
"332 787 OFFCURVE",
"299 729 CURVE SMOOTH",
"275 690 OFFCURVE",
"331 649 OFFCURVE",
"411 606 CURVE SMOOTH",
"530 541 OFFCURVE",
"657 379 OFFCURVE",
"676 344 CURVE SMOOTH",
"690 318 OFFCURVE",
"687 301 OFFCURVE",
"650 311 CURVE SMOOTH",
"578 332 OFFCURVE",
"536 344 OFFCURVE",
"428 342 CURVE SMOOTH",
"310 341 OFFCURVE",
"210 283 OFFCURVE",
"200 200 CURVE SMOOTH",
"186 82 OFFCURVE",
"325 -10 OFFCURVE",
"474 -14 CURVE SMOOTH"
);
},
{
closed = 1;
nodes = (
"834 608 OFFCURVE",
"861 625 OFFCURVE",
"848 673 CURVE SMOOTH",
"832 730 OFFCURVE",
"742 760 OFFCURVE",
"695 763 CURVE SMOOTH",
"680 763 OFFCURVE",
"679 760 OFFCURVE",
"690 751 CURVE SMOOTH",
"706 739 OFFCURVE",
"720 727 OFFCURVE",
"744 701 CURVE SMOOTH",
"785 657 OFFCURVE",
"781 630 OFFCURVE",
"808 619 CURVE SMOOTH"
);
},
{
closed = 1;
nodes = (
"931 685 OFFCURVE",
"960 709 OFFCURVE",
"937 754 CURVE SMOOTH",
"907 813 OFFCURVE",
"825 826 OFFCURVE",
"777 825 CURVE SMOOTH",
"761 824 OFFCURVE",
"759 821 OFFCURVE",
"771 814 CURVE SMOOTH",
"788 803 OFFCURVE",
"806 791 OFFCURVE",
"832 767 CURVE SMOOTH",
"875 729 OFFCURVE",
"874 707 OFFCURVE",
"903 696 CURVE SMOOTH"
);
}
);
width = 1000;
}
);
unicode = 3056;
},
{
glyphname = "si-hira";
lastChange = "2020-03-22 15:08:02 +0000";
layers = (
{
anchors = (
{
name = LSB;
position = "{153.574, 380}";
},
{
name = RSB;
position = "{946.669, 380}";
}
);
layerId = "BE1754C0-A605-45AC-AA12-D3A1FC0C380B";
paths = (
{
closed = 1;
nodes = (
"586 -112 OFFCURVE",
"818 132 OFFCURVE",
"868 227 CURVE SMOOTH",
"884 259 OFFCURVE",
"877 267 OFFCURVE",
"854 241 CURVE SMOOTH",
"685 59 OFFCURVE",
"450 34 OFFCURVE",
"386 116 CURVE SMOOTH",
"317 205 OFFCURVE",
"363 451 OFFCURVE",
"378 640 CURVE SMOOTH",
"381 678 OFFCURVE",
"397 715 OFFCURVE",
"371 744 CURVE SMOOTH",
"315 801 OFFCURVE",
"272 792 OFFCURVE",
"234 777 CURVE SMOOTH",
"218 770 OFFCURVE",
"221 762 OFFCURVE",
"239 753 CURVE SMOOTH",
"286 728 OFFCURVE",
"274 532 OFFCURVE",
"258 325 CURVE SMOOTH",
"241 117 OFFCURVE",
"295 42 OFFCURVE",
"365 5 CURVE SMOOTH"
);
}
);
width = 1000;
}
);
unicode = 3057;
},
{
glyphname = "zi-hira";
lastChange = "2020-03-22 15:08:02 +0000";
layers = (
{
anchors = (
{
name = LSB;
position = "{153.651, 380}";
},
{
name = RSB;
position = "{947.16, 380}";
}
);
layerId = "BE1754C0-A605-45AC-AA12-D3A1FC0C380B";
paths = (
{
closed = 1;
nodes = (
"586 -114 OFFCURVE",
"819 132 OFFCURVE",
"868 227 CURVE SMOOTH",
"885 259 OFFCURVE",
"877 266 OFFCURVE",
"855 241 CURVE SMOOTH",
"684 60 OFFCURVE",
"451 34 OFFCURVE",
"386 116 CURVE SMOOTH",
"317 204 OFFCURVE",
"362 451 OFFCURVE",
"378 640 CURVE SMOOTH",
"382 678 OFFCURVE",
"398 715 OFFCURVE",
"371 744 CURVE SMOOTH",
"316 801 OFFCURVE",
"272 793 OFFCURVE",
"234 777 CURVE SMOOTH",
"219 770 OFFCURVE",
"220 763 OFFCURVE",
"239 753 CURVE SMOOTH",
"288 729 OFFCURVE",
"274 532 OFFCURVE",
"259 325 CURVE SMOOTH",
"242 117 OFFCURVE",
"295 41 OFFCURVE",
"365 5 CURVE SMOOTH"
);
},
{
closed = 1;
nodes = (
"696 546 OFFCURVE",
"726 581 OFFCURVE",
"697 620 CURVE SMOOTH",
"657 675 OFFCURVE",
"568 680 OFFCURVE",
"519 672 CURVE SMOOTH",
"502 670 OFFCURVE",
"502 665 OFFCURVE",
"514 660 CURVE SMOOTH",
"538 652 OFFCURVE",
"554 646 OFFCURVE",
"585 620 CURVE SMOOTH",
"627 586 OFFCURVE",
"634 557 OFFCURVE",
"665 551 CURVE SMOOTH"
);
},
{
closed = 1;
nodes = (
"793 650 OFFCURVE",
"825 678 OFFCURVE",
"794 720 CURVE SMOOTH",
"761 764 OFFCURVE",
"679 779 OFFCURVE",
"629 773 CURVE SMOOTH",
"605 770 OFFCURVE",
"599 765 OFFCURVE",
"613 759 CURVE SMOOTH",
"635 750 OFFCURVE",
"654 741 OFFCURVE",
"680 722 CURVE SMOOTH",
"730 686 OFFCURVE",
"736 660 OFFCURVE",
"767 654 CURVE SMOOTH"
);
}
);
width = 1000;
}
);
unicode = 3058;
},
{
glyphname = "su-hira";
lastChange = "2020-03-22 15:08:02 +0000";
layers = (
{
anchors = (
{
name = LSB;
position = "{-5.598, 380}";
},
{
name = RSB;
position = "{984.013, 380}";
}
);
layerId = "BE1754C0-A605-45AC-AA12-D3A1FC0C380B";
paths = (
{
closed = 1;
nodes = (
"270 472 OFFCURVE",
"280 486 OFFCURVE",
"320 501 CURVE SMOOTH",
"497 570 OFFCURVE",
"642 577 OFFCURVE",
"812 553 CURVE SMOOTH",
"860 546 OFFCURVE",
"915 531 OFFCURVE",
"914 587 CURVE SMOOTH",
"913 643 OFFCURVE",
"824 645 OFFCURVE",
"762 660 CURVE SMOOTH",
"730 668 OFFCURVE",
"637 694 OFFCURVE",
"573 759 CURVE",
"560 741 LINE",
"570 724 OFFCURVE",
"609 691 OFFCURVE",
"637 669 CURVE SMOOTH",
"646 662 OFFCURVE",
"685 639 OFFCURVE",
"653 644 CURVE SMOOTH",
"579 655 OFFCURVE",
"272 587 OFFCURVE",
"230 579 CURVE SMOOTH",
"187 571 OFFCURVE",
"149 570 OFFCURVE",
"94 587 CURVE SMOOTH",
"61 596 OFFCURVE",
"55 588 OFFCURVE",
"79 559 CURVE SMOOTH",
"118 512 OFFCURVE",
"156 465 OFFCURVE",
"220 469 CURVE SMOOTH"
);
},
{
closed = 1;
nodes = (
"432 -46 OFFCURVE",
"705 61 OFFCURVE",
"582 392 CURVE SMOOTH",
"523 551 OFFCURVE",
"350 463 OFFCURVE",
"343 326 CURVE SMOOTH",
"341 286 OFFCURVE",
"361 232 OFFCURVE",
"395 183 CURVE SMOOTH",
"429 134 OFFCURVE",
"487 140 OFFCURVE",
"516 166 CURVE",
"521 164 LINE",
"521 164 OFFCURVE",
"515 40 OFFCURVE",
"372 -54 CURVE SMOOTH",
"341 -75 OFFCURVE",
"346 -82 OFFCURVE",
"379 -67 CURVE SMOOTH"
);
},
{
closed = 1;
nodes = (
"433 222 OFFCURVE",
"396 302 OFFCURVE",
"399 358 CURVE SMOOTH",
"402 398 OFFCURVE",
"449 427 OFFCURVE",
"473 421 CURVE SMOOTH",
"499 412 OFFCURVE",
"535 233 OFFCURVE",
"488 228 CURVE SMOOTH"
);
},
{
closed = 1;
nodes = (
"583 403 OFFCURVE",
"581 528 OFFCURVE",
"581 592 CURVE SMOOTH",
"581 659 OFFCURVE",
"583 688 OFFCURVE",
"593 718 CURVE SMOOTH",
"627 814 OFFCURVE",
"531 834 OFFCURVE",
"480 840 CURVE SMOOTH",
"432 846 OFFCURVE",
"418 826 OFFCURVE",
"449 800 CURVE SMOOTH",
"481 774 OFFCURVE",
"507 720 OFFCURVE",
"512 666 CURVE SMOOTH",
"520 587 OFFCURVE",
"512 429 OFFCURVE",
"512 411 CURVE",
"581 354 LINE"
);
}
);
width = 1000;
}
);
unicode = 3059;
},
{
glyphname = "zu-hira";
lastChange = "2020-03-22 15:08:02 +0000";
layers = (
{
anchors = (
{
name = LSB;
position = "{-5.598, 380}";
},
{
name = RSB;
position = "{1069.33, 380}";
}
);
layerId = "BE1754C0-A605-45AC-AA12-D3A1FC0C380B";
paths = (
{
closed = 1;
nodes = (
"270 472 OFFCURVE",
"280 486 OFFCURVE",
"320 501 CURVE SMOOTH",
"497 570 OFFCURVE",
"642 577 OFFCURVE",
"812 553 CURVE SMOOTH",
"860 546 OFFCURVE",
"915 531 OFFCURVE",
"914 587 CURVE SMOOTH",
"914 643 OFFCURVE",
"824 645 OFFCURVE",
"762 660 CURVE SMOOTH",
"730 668 OFFCURVE",
"637 694 OFFCURVE",
"573 759 CURVE",
"560 741 LINE",
"570 724 OFFCURVE",
"609 691 OFFCURVE",
"637 669 CURVE SMOOTH",
"646 662 OFFCURVE",
"685 639 OFFCURVE",
"653 644 CURVE SMOOTH",
"579 655 OFFCURVE",
"272 587 OFFCURVE",
"230 579 CURVE SMOOTH",
"187 571 OFFCURVE",
"149 570 OFFCURVE",
"94 587 CURVE SMOOTH",
"61 596 OFFCURVE",
"55 588 OFFCURVE",
"79 559 CURVE SMOOTH",
"118 512 OFFCURVE",
"156 465 OFFCURVE",
"220 469 CURVE SMOOTH"
);
},
{
closed = 1;
nodes = (
"432 -46 OFFCURVE",
"705 61 OFFCURVE",
"582 392 CURVE SMOOTH",
"523 551 OFFCURVE",
"350 463 OFFCURVE",
"343 326 CURVE SMOOTH",
"341 286 OFFCURVE",
"361 232 OFFCURVE",
"395 183 CURVE SMOOTH",
"429 134 OFFCURVE",
"487 140 OFFCURVE",
"516 166 CURVE",
"521 164 LINE",
"521 164 OFFCURVE",
"515 40 OFFCURVE",
"372 -54 CURVE SMOOTH",
"341 -75 OFFCURVE",
"346 -82 OFFCURVE",
"379 -67 CURVE SMOOTH"
);
},
{
closed = 1;
nodes = (
"433 222 OFFCURVE",
"396 302 OFFCURVE",
"399 358 CURVE SMOOTH",
"402 398 OFFCURVE",
"449 427 OFFCURVE",
"473 421 CURVE SMOOTH",
"499 412 OFFCURVE",
"535 233 OFFCURVE",
"488 228 CURVE SMOOTH"
);
},
{
closed = 1;
nodes = (
"583 403 OFFCURVE",
"581 528 OFFCURVE",
"581 592 CURVE SMOOTH",
"581 659 OFFCURVE",
"583 688 OFFCURVE",
"593 718 CURVE SMOOTH",
"627 814 OFFCURVE",
"531 834 OFFCURVE",
"480 840 CURVE SMOOTH",
"432 846 OFFCURVE",
"418 826 OFFCURVE",
"449 800 CURVE SMOOTH",
"481 774 OFFCURVE",
"507 720 OFFCURVE",
"512 666 CURVE SMOOTH",
"520 587 OFFCURVE",
"512 429 OFFCURVE",
"512 411 CURVE",
"581 354 LINE"
);
},
{
closed = 1;
nodes = (
"891 658 OFFCURVE",
"917 674 OFFCURVE",
"899 719 CURVE SMOOTH",
"879 772 OFFCURVE",
"780 793 OFFCURVE",
"732 788 CURVE",
"728 787 OFFCURVE",
"728 785 OFFCURVE",
"739 778 CURVE SMOOTH",
"756 767 OFFCURVE",
"771 758 OFFCURVE",
"796 736 CURVE SMOOTH",
"840 699 OFFCURVE",
"842 668 OFFCURVE",
"867 663 CURVE SMOOTH"
);
},
{
closed = 1;
nodes = (
"989 729 OFFCURVE",
"1014 752 OFFCURVE",
"989 793 CURVE SMOOTH",
"961 839 OFFCURVE",
"876 848 OFFCURVE",
"830 844 CURVE SMOOTH",
"813 843 OFFCURVE",
"812 839 OFFCURVE",
"822 834 CURVE SMOOTH",
"852 821 OFFCURVE",
"861 815 OFFCURVE",
"888 795 CURVE SMOOTH",
"933 762 OFFCURVE",
"938 738 OFFCURVE",
"963 733 CURVE SMOOTH"
);
}
);
width = 1000;
}
);
unicode = 305A;
},
{
glyphname = "se-hira";
lastChange = "2020-03-22 15:08:02 +0000";
layers = (
{
anchors = (
{
name = LSB;
position = "{-28.009, 380}";
},
{
name = RSB;
position = "{1010.701, 380}";
}
);
layerId = "BE1754C0-A605-45AC-AA12-D3A1FC0C380B";
paths = (
{
closed = 1;
nodes = (
"745 26 OFFCURVE",
"761 38 OFFCURVE",
"758 65 CURVE SMOOTH",
"753 90 OFFCURVE",
"722 113 OFFCURVE",
"689 114 CURVE SMOOTH",
"655 116 OFFCURVE",
"608 85 OFFCURVE",
"457 94 CURVE SMOOTH",
"378 98 OFFCURVE",
"371 178 OFFCURVE",
"366 244 CURVE SMOOTH",
"362 312 OFFCURVE",
"358 518 OFFCURVE",
"368 555 CURVE SMOOTH",
"381 606 OFFCURVE",
"387 628 OFFCURVE",
"347 651 CURVE SMOOTH",
"308 674 OFFCURVE",
"229 689 OFFCURVE",
"205 655 CURVE SMOOTH",
"194 641 OFFCURVE",
"247 651 OFFCURVE",
"268 594 CURVE SMOOTH",
"280 559 OFFCURVE",
"280 433 OFFCURVE",
"281 341 CURVE SMOOTH",
"284 200 OFFCURVE",
"280 93 OFFCURVE",
"355 35 CURVE SMOOTH",
"433 -27 OFFCURVE",
"674 -7 OFFCURVE",
"727 17 CURVE SMOOTH"
);
},
{
closed = 1;
nodes = (
"353 409 OFFCURVE",
"585 500 OFFCURVE",
"828 457 CURVE SMOOTH",
"901 445 OFFCURVE",
"947 441 OFFCURVE",
"940 499 CURVE SMOOTH",
"934 547 OFFCURVE",
"890 552 OFFCURVE",
"830 560 CURVE SMOOTH",
"769 569 OFFCURVE",
"680 634 OFFCURVE",
"664 646 CURVE",
"648 625 LINE",
"680 607 OFFCURVE",
"710 584 OFFCURVE",
"736 562 CURVE SMOOTH",
"758 546 OFFCURVE",
"738 537 OFFCURVE",
"727 538 CURVE SMOOTH",
"622 545 OFFCURVE",
"385 498 OFFCURVE",
"158 417 CURVE SMOOTH",
"122 404 OFFCURVE",
"98 413 OFFCURVE",
"61 435 CURVE",
"40 451 OFFCURVE",
"36 439 OFFCURVE",
"51 407 CURVE SMOOTH",
"112 288 OFFCURVE",
"183 306 OFFCURVE",
"239 340 CURVE SMOOTH"
);
},
{
closed = 1;
nodes = (
"637 207 OFFCURVE",
"672 287 OFFCURVE",
"683 425 CURVE SMOOTH",
"689 507 OFFCURVE",
"690 604 OFFCURVE",
"700 639 CURVE SMOOTH",
"711 674 OFFCURVE",
"718 694 OFFCURVE",
"682 726 CURVE SMOOTH",
"657 748 OFFCURVE",
"607 777 OFFCURVE",
"562 746 CURVE SMOOTH",
"536 728 OFFCURVE",
"535 724 OFFCURVE",
"557 722 CURVE SMOOTH",
"581 719 OFFCURVE",
"600 693 OFFCURVE",
"606 657 CURVE SMOOTH",
"610 628 OFFCURVE",
"606 380 OFFCURVE",
"580 328 CURVE SMOOTH",
"573 313 OFFCURVE",
"564 312 OFFCURVE",
"541 322 CURVE SMOOTH",
"518 333 OFFCURVE",
"512 339 OFFCURVE",
"479 360 CURVE SMOOTH",
"467 367 OFFCURVE",
"460 359 OFFCURVE",
"471 349 CURVE SMOOTH",
"484 338 OFFCURVE",
"524 275 OFFCURVE",
"530 241 CURVE SMOOTH",
"535 208 OFFCURVE",
"552 207 OFFCURVE",
"580 207 CURVE SMOOTH"
);
}
);
width = 1000;
}
);
unicode = 305B;
},
{
glyphname = "ze-hira";
lastChange = "2020-03-22 15:08:02 +0000";
layers = (
{
anchors = (
{
name = LSB;
position = "{-28.009, 380}";
},
{
name = RSB;
position = "{1065.564, 380}";
}
);
layerId = "BE1754C0-A605-45AC-AA12-D3A1FC0C380B";
paths = (
{
closed = 1;
nodes = (
"745 26 OFFCURVE",
"761 38 OFFCURVE",
"757 64 CURVE SMOOTH",
"753 90 OFFCURVE",
"721 113 OFFCURVE",
"689 114 CURVE SMOOTH",
"655 116 OFFCURVE",
"608 85 OFFCURVE",
"457 93 CURVE SMOOTH",
"378 97 OFFCURVE",
"370 178 OFFCURVE",
"365 244 CURVE SMOOTH",
"362 312 OFFCURVE",
"358 517 OFFCURVE",
"367 555 CURVE SMOOTH",
"381 606 OFFCURVE",
"387 628 OFFCURVE",
"347 650 CURVE SMOOTH",
"307 674 OFFCURVE",
"229 689 OFFCURVE",
"204 655 CURVE SMOOTH",
"194 641 OFFCURVE",
"247 650 OFFCURVE",
"268 594 CURVE SMOOTH",
"280 559 OFFCURVE",
"280 433 OFFCURVE",
"281 341 CURVE SMOOTH",
"284 200 OFFCURVE",
"280 92 OFFCURVE",
"355 34 CURVE SMOOTH",
"432 -27 OFFCURVE",
"674 -7 OFFCURVE",
"726 17 CURVE SMOOTH"
);
},
{
closed = 1;
nodes = (
"353 409 OFFCURVE",
"585 500 OFFCURVE",
"828 457 CURVE SMOOTH",
"901 445 OFFCURVE",
"947 441 OFFCURVE",
"940 499 CURVE SMOOTH",
"934 546 OFFCURVE",
"890 551 OFFCURVE",
"830 560 CURVE SMOOTH",
"769 569 OFFCURVE",
"680 634 OFFCURVE",
"663 645 CURVE",
"648 625 LINE",
"680 607 OFFCURVE",
"710 583 OFFCURVE",
"736 562 CURVE SMOOTH",
"757 545 OFFCURVE",
"738 537 OFFCURVE",
"726 538 CURVE SMOOTH",
"622 544 OFFCURVE",
"385 498 OFFCURVE",
"158 416 CURVE SMOOTH",
"122 404 OFFCURVE",
"98 413 OFFCURVE",
"61 435 CURVE",
"40 450 OFFCURVE",
"36 439 OFFCURVE",
"51 407 CURVE SMOOTH",
"111 287 OFFCURVE",
"183 306 OFFCURVE",
"238 340 CURVE SMOOTH"
);
},
{
closed = 1;
nodes = (
"637 207 OFFCURVE",
"672 286 OFFCURVE",
"683 425 CURVE SMOOTH",
"689 507 OFFCURVE",
"689 604 OFFCURVE",
"700 639 CURVE SMOOTH",
"711 674 OFFCURVE",
"718 694 OFFCURVE",
"682 726 CURVE SMOOTH",
"656 748 OFFCURVE",
"607 776 OFFCURVE",
"561 745 CURVE SMOOTH",
"536 728 OFFCURVE",
"535 724 OFFCURVE",
"557 722 CURVE SMOOTH",
"581 719 OFFCURVE",
"600 693 OFFCURVE",
"606 657 CURVE SMOOTH",
"610 628 OFFCURVE",
"606 380 OFFCURVE",
"580 327 CURVE SMOOTH",
"573 313 OFFCURVE",
"563 312 OFFCURVE",
"541 321 CURVE SMOOTH",
"518 333 OFFCURVE",
"512 339 OFFCURVE",
"479 359 CURVE SMOOTH",
"466 367 OFFCURVE",
"460 358 OFFCURVE",
"471 349 CURVE SMOOTH",
"484 338 OFFCURVE",
"524 275 OFFCURVE",
"529 241 CURVE SMOOTH",
"535 208 OFFCURVE",
"552 207 OFFCURVE",
"580 207 CURVE SMOOTH"
);
},
{
closed = 1;
nodes = (
"910 572 OFFCURVE",
"938 591 OFFCURVE",
"920 640 CURVE SMOOTH",
"899 697 OFFCURVE",
"808 720 OFFCURVE",
"753 717 CURVE SMOOTH",
"735 716 OFFCURVE",
"737 714 OFFCURVE",
"748 707 CURVE SMOOTH",
"766 695 OFFCURVE",
"784 680 OFFCURVE",
"809 657 CURVE SMOOTH",
"855 616 OFFCURVE",
"856 588 OFFCURVE",
"883 580 CURVE SMOOTH"
);
},
{
closed = 1;
nodes = (
"984 686 OFFCURVE",
"1010 706 OFFCURVE",
"986 749 CURVE SMOOTH",
"958 797 OFFCURVE",
"871 800 OFFCURVE",
"825 797 CURVE SMOOTH",
"804 795 OFFCURVE",
"807 791 OFFCURVE",
"819 786 CURVE SMOOTH",
"836 777 OFFCURVE",
"856 766 OFFCURVE",
"883 749 CURVE SMOOTH",
"930 717 OFFCURVE",
"937 689 OFFCURVE",
"961 688 CURVE SMOOTH"
);
}
);
width = 1000;
}
);
unicode = 305C;
},
{
glyphname = "so-hira";
lastChange = "2020-03-22 15:08:02 +0000";
layers = (
{
anchors = (
{
name = LSB;
position = "{96.914, 380}";
},
{
name = RSB;
position = "{895.585, 380}";
}
);
layerId = "BE1754C0-A605-45AC-AA12-D3A1FC0C380B";
paths = (
{
closed = 1;
nodes = (
"726 20 OFFCURVE",
"672 48 OFFCURVE",
"621 52 CURVE SMOOTH",
"564 56 OFFCURVE",
"430 60 OFFCURVE",
"435 189 CURVE SMOOTH",
"436 239 OFFCURVE",
"485 315 OFFCURVE",
"548 337 CURVE SMOOTH",
"621 363 OFFCURVE",
"685 374 OFFCURVE",
"749 372 CURVE SMOOTH",
"810 370 OFFCURVE",
"834 381 OFFCURVE",
"823 413 CURVE SMOOTH",
"808 454 OFFCURVE",
"756 475 OFFCURVE",
"717 477 CURVE SMOOTH",
"678 479 OFFCURVE",
"650 465 OFFCURVE",
"550 418 CURVE SMOOTH",
"470 380 OFFCURVE",
"344 337 OFFCURVE",
"325 327 CURVE SMOOTH",
"300 314 OFFCURVE",
"294 325 OFFCURVE",
"314 349 CURVE SMOOTH",
"335 374 OFFCURVE",
"554 589 OFFCURVE",
"594 619 CURVE SMOOTH",
"633 649 OFFCURVE",
"678 695 OFFCURVE",
"645 746 CURVE SMOOTH",
"611 797 OFFCURVE",
"549 846 OFFCURVE",
"499 803 CURVE SMOOTH",
"480 787 OFFCURVE",
"396 754 OFFCURVE",
"373 748 CURVE SMOOTH",
"350 741 OFFCURVE",
"306 761 OFFCURVE",
"288 766 CURVE SMOOTH",
"274 769 OFFCURVE",
"267 758 OFFCURVE",
"269 736 CURVE SMOOTH",
"271 709 OFFCURVE",
"317 642 OFFCURVE",
"355 645 CURVE SMOOTH",
"394 648 OFFCURVE",
"478 717 OFFCURVE",
"513 730 CURVE",
"534 740 OFFCURVE",
"540 736 OFFCURVE",
"530 715 CURVE SMOOTH",
"497 649 OFFCURVE",
"366 457 OFFCURVE",
"264 380 CURVE SMOOTH",
"221 348 OFFCURVE",
"149 297 OFFCURVE",
"171 247 CURVE SMOOTH",
"193 196 OFFCURVE",
"238 179 OFFCURVE",
"264 190 CURVE SMOOTH",
"290 201 OFFCURVE",
"373 282 OFFCURVE",
"441 315 CURVE",
"441 315 OFFCURVE",
"369 249 OFFCURVE",
"367 151 CURVE SMOOTH",
"365 73 OFFCURVE",
"413 8 OFFCURVE",
"502 -26 CURVE SMOOTH",
"553 -46 OFFCURVE",
"694 -82 OFFCURVE",
"710 -31 CURVE SMOOTH"
);
}
);
width = 1000;
}
);
unicode = 305D;
},
{
glyphname = "zo-hira";
lastChange = "2020-03-22 15:08:02 +0000";
layers = (
{
anchors = (
{
name = LSB;
position = "{99.203, 380}";
},
{
name = RSB;
position = "{1037.863, 380}";
}
);
layerId = "BE1754C0-A605-45AC-AA12-D3A1FC0C380B";
paths = (
{
closed = 1;
nodes = (
"729 22 OFFCURVE",
"674 50 OFFCURVE",
"623 54 CURVE SMOOTH",
"567 58 OFFCURVE",
"432 62 OFFCURVE",
"437 191 CURVE SMOOTH",
"439 241 OFFCURVE",
"487 317 OFFCURVE",
"550 339 CURVE SMOOTH",
"623 364 OFFCURVE",
"687 376 OFFCURVE",
"751 374 CURVE SMOOTH",
"812 372 OFFCURVE",
"836 383 OFFCURVE",
"825 415 CURVE SMOOTH",
"810 456 OFFCURVE",
"758 477 OFFCURVE",
"719 479 CURVE SMOOTH",
"680 481 OFFCURVE",
"652 467 OFFCURVE",
"552 420 CURVE SMOOTH",
"473 382 OFFCURVE",
"347 339 OFFCURVE",
"327 329 CURVE SMOOTH",
"302 316 OFFCURVE",
"296 327 OFFCURVE",
"316 351 CURVE SMOOTH",
"337 376 OFFCURVE",
"556 590 OFFCURVE",
"596 621 CURVE SMOOTH",
"636 651 OFFCURVE",
"680 697 OFFCURVE",
"647 748 CURVE SMOOTH",
"613 799 OFFCURVE",
"551 848 OFFCURVE",
"501 805 CURVE SMOOTH",
"482 789 OFFCURVE",
"398 756 OFFCURVE",
"376 750 CURVE SMOOTH",
"352 743 OFFCURVE",
"309 763 OFFCURVE",
"290 768 CURVE SMOOTH",
"277 771 OFFCURVE",
"269 760 OFFCURVE",
"271 738 CURVE SMOOTH",
"273 711 OFFCURVE",
"319 644 OFFCURVE",
"357 647 CURVE SMOOTH",
"396 650 OFFCURVE",
"480 718 OFFCURVE",
"515 732 CURVE SMOOTH",
"537 742 OFFCURVE",
"542 738 OFFCURVE",
"532 717 CURVE SMOOTH",
"499 651 OFFCURVE",
"368 459 OFFCURVE",
"266 382 CURVE SMOOTH",
"223 350 OFFCURVE",
"152 298 OFFCURVE",
"173 249 CURVE SMOOTH",
"195 198 OFFCURVE",
"240 181 OFFCURVE",
"266 192 CURVE SMOOTH",
"292 202 OFFCURVE",
"376 284 OFFCURVE",
"444 317 CURVE",
"444 317 OFFCURVE",
"371 251 OFFCURVE",
"369 153 CURVE SMOOTH",
"367 74 OFFCURVE",
"415 9 OFFCURVE",
"505 -25 CURVE SMOOTH",
"555 -44 OFFCURVE",
"696 -80 OFFCURVE",
"712 -29 CURVE SMOOTH"
);
},
{
closed = 1;
nodes = (
"853 584 OFFCURVE",
"883 600 OFFCURVE",
"865 647 CURVE SMOOTH",
"846 700 OFFCURVE",
"763 719 OFFCURVE",
"716 725 CURVE SMOOTH",
"699 727 OFFCURVE",
"698 721 OFFCURVE",
"708 714 CURVE SMOOTH",
"725 702 OFFCURVE",
"742 690 OFFCURVE",
"764 668 CURVE SMOOTH",
"806 629 OFFCURVE",
"807 601 OFFCURVE",
"831 592 CURVE SMOOTH"
);
},
{
closed = 1;
nodes = (
"958 673 OFFCURVE",
"981 692 OFFCURVE",
"959 736 CURVE SMOOTH",
"935 787 OFFCURVE",
"853 797 OFFCURVE",
"807 796 CURVE SMOOTH",
"789 796 OFFCURVE",
"790 790 OFFCURVE",
"801 785 CURVE SMOOTH",
"822 774 OFFCURVE",
"833 769 OFFCURVE",
"858 750 CURVE SMOOTH",
"902 716 OFFCURVE",
"908 684 OFFCURVE",
"934 678 CURVE SMOOTH"
);
}
);
width = 1000;
}
);
unicode = 305E;
},
{
glyphname = "ta-hira";
lastChange = "2020-03-22 15:08:02 +0000";
layers = (
{
anchors = (
{
name = LSB;
position = "{18.992, 380}";
},
{
name = RSB;
position = "{949.88, 380}";
}
);
layerId = "BE1754C0-A605-45AC-AA12-D3A1FC0C380B";
paths = (
{
closed = 1;
nodes = (
"201 -21 OFFCURVE",
"232 26 OFFCURVE",
"248 72 CURVE SMOOTH",
"284 178 OFFCURVE",
"342 467 OFFCURVE",
"363 604 CURVE SMOOTH",
"374 670 OFFCURVE",
"391 685 OFFCURVE",
"386 714 CURVE SMOOTH",
"376 770 OFFCURVE",
"313 796 OFFCURVE",
"279 802 CURVE SMOOTH",
"261 806 OFFCURVE",
"234 803 OFFCURVE",
"231 798 CURVE SMOOTH",
"227 791 OFFCURVE",
"243 784 OFFCURVE",
"253 774 CURVE SMOOTH",
"289 734 OFFCURVE",
"291 705 OFFCURVE",
"287 664 CURVE SMOOTH",
"265 434 OFFCURVE",
"233 327 OFFCURVE",
"144 135 CURVE SMOOTH",
"125 93 OFFCURVE",
"99 13 OFFCURVE",
"161 -8 CURVE SMOOTH"
);
},
{
closed = 1;
nodes = (
"859 1 OFFCURVE",
"886 36 OFFCURVE",
"876 63 CURVE SMOOTH",
"865 90 OFFCURVE",
"833 101 OFFCURVE",
"789 92 CURVE SMOOTH",
"742 83 OFFCURVE",
"508 43 OFFCURVE",
"522 233 CURVE SMOOTH",
"525 271 OFFCURVE",
"520 276 OFFCURVE",
"506 253 CURVE SMOOTH",
"491 232 OFFCURVE",
"470 154 OFFCURVE",
"487 102 CURVE SMOOTH",
"513 20 OFFCURVE",
"638 -42 OFFCURVE",
"819 -7 CURVE SMOOTH"
);
},
{
closed = 1;
nodes = (
"266 453 OFFCURVE",
"446 552 OFFCURVE",
"482 585 CURVE SMOOTH",
"533 633 OFFCURVE",
"502 644 OFFCURVE",
"462 651 CURVE SMOOTH",
"430 657 OFFCURVE",
"397 678 OFFCURVE",
"378 706 CURVE SMOOTH",
"369 718 OFFCURVE",
"364 719 OFFCURVE",
"355 713 CURVE SMOOTH",
"348 709 OFFCURVE",
"362 681 OFFCURVE",
"377 676 CURVE SMOOTH",
"393 672 OFFCURVE",
"416 637 OFFCURVE",
"407 628 CURVE SMOOTH",
"387 607 OFFCURVE",
"243 552 OFFCURVE",
"203 545 CURVE SMOOTH",
"163 539 OFFCURVE",
"140 543 OFFCURVE",
"116 550 CURVE SMOOTH",
"98 555 OFFCURVE",
"93 557 OFFCURVE",
"90 553 CURVE SMOOTH",
"87 550 OFFCURVE",
"91 539 OFFCURVE",
"98 530 CURVE SMOOTH",
"108 516 OFFCURVE",
"143 477 OFFCURVE",
"192 468 CURVE SMOOTH"
);
},
{
closed = 1;
nodes = (
"681 442 OFFCURVE",
"721 458 OFFCURVE",
"756 459 CURVE SMOOTH",
"786 460 OFFCURVE",
"806 461 OFFCURVE",
"836 466 CURVE SMOOTH",
"882 472 OFFCURVE",
"918 557 OFFCURVE",
"803 596 CURVE SMOOTH",
"730 621 OFFCURVE",
"620 603 OFFCURVE",
"584 574 CURVE SMOOTH",
"568 561 OFFCURVE",
"578 561 OFFCURVE",
"591 562 CURVE SMOOTH",
"603 563 OFFCURVE",
"622 561 OFFCURVE",
"643 560 CURVE SMOOTH",
"692 555 OFFCURVE",
"733 540 OFFCURVE",
"731 517 CURVE SMOOTH",
"728 469 OFFCURVE",
"673 461 OFFCURVE",
"679 447 CURVE SMOOTH"
);
}
);
width = 1000;
}
);
unicode = 305F;
},
{
glyphname = "da-hira";
lastChange = "2020-03-22 15:08:02 +0000";
layers = (
{
anchors = (
{
name = LSB;
position = "{48.196, 380}";
},
{
name = RSB;
position = "{1067.963, 380}";
}
);
layerId = "BE1754C0-A605-45AC-AA12-D3A1FC0C380B";
paths = (
{
closed = 1;
nodes = (
"209 -19 OFFCURVE",
"230 -5 OFFCURVE",
"248 47 CURVE SMOOTH",
"267 104 OFFCURVE",
"353 617 OFFCURVE",
"361 651 CURVE SMOOTH",
"369 685 OFFCURVE",
"377 707 OFFCURVE",
"367 737 CURVE SMOOTH",
"351 784 OFFCURVE",
"274 788 OFFCURVE",
"241 783 CURVE SMOOTH",
"227 780 OFFCURVE",
"211 763 OFFCURVE",
"231 757 CURVE SMOOTH",
"260 746 OFFCURVE",
"279 698 OFFCURVE",
"273 647 CURVE SMOOTH",
"249 437 OFFCURVE",
"215 274 OFFCURVE",
"136 75 CURVE SMOOTH",
"124 43 OFFCURVE",
"131 -2 OFFCURVE",
"169 -9 CURVE SMOOTH"
);
},
{
closed = 1;
nodes = (
"773 -8 OFFCURVE",
"889 -4 OFFCURVE",
"887 50 CURVE SMOOTH",
"885 103 OFFCURVE",
"809 108 OFFCURVE",
"767 104 CURVE SMOOTH",
"733 101 OFFCURVE",
"681 88 OFFCURVE",
"637 94 CURVE SMOOTH",
"596 100 OFFCURVE",
"532 102 OFFCURVE",
"522 184 CURVE SMOOTH",
"515 241 OFFCURVE",
"497 213 OFFCURVE",
"491 177 CURVE SMOOTH",
"465 15 OFFCURVE",
"657 -10 OFFCURVE",
"710 -9 CURVE SMOOTH"
);
},
{
closed = 1;
nodes = (
"297 474 OFFCURVE",
"422 528 OFFCURVE",
"462 572 CURVE SMOOTH",
"490 603 OFFCURVE",
"497 625 OFFCURVE",
"487 644 CURVE SMOOTH",
"480 658 OFFCURVE",
"458 664 OFFCURVE",
"439 664 CURVE SMOOTH",
"418 664 OFFCURVE",
"370 677 OFFCURVE",
"360 691 CURVE SMOOTH",
"352 701 OFFCURVE",
"349 676 OFFCURVE",
"356 673 CURVE SMOOTH",
"385 659 OFFCURVE",
"401 636 OFFCURVE",
"390 622 CURVE SMOOTH",
"341 559 OFFCURVE",
"177 560 OFFCURVE",
"136 566 CURVE SMOOTH",
"117 569 OFFCURVE",
"113 560 OFFCURVE",
"125 541 CURVE SMOOTH",
"137 520 OFFCURVE",
"174 478 OFFCURVE",
"228 477 CURVE SMOOTH"
);
},
{
closed = 1;
nodes = (
"680 459 OFFCURVE",
"719 479 OFFCURVE",
"747 483 CURVE SMOOTH",
"831 494 OFFCURVE",
"860 511 OFFCURVE",
"852 543 CURVE SMOOTH",
"828 627 OFFCURVE",
"707 604 OFFCURVE",
"682 595 CURVE SMOOTH",
"655 585 OFFCURVE",
"609 589 OFFCURVE",
"592 595 CURVE SMOOTH",
"556 611 OFFCURVE",
"552 609 OFFCURVE",
"569 580 CURVE SMOOTH",
"605 523 OFFCURVE",
"665 527 OFFCURVE",
"686 519 CURVE SMOOTH",
"711 510 OFFCURVE",
"684 494 OFFCURVE",
"660 472 CURVE SMOOTH",
"640 453 OFFCURVE",
"642 440 OFFCURVE",
"662 449 CURVE SMOOTH"
);
},
{
closed = 1;
nodes = (
"919 590 OFFCURVE",
"947 611 OFFCURVE",
"925 659 CURVE SMOOTH",
"899 714 OFFCURVE",
"800 726 OFFCURVE",
"749 723 CURVE SMOOTH",
"735 722 OFFCURVE",
"736 718 OFFCURVE",
"749 712 CURVE SMOOTH",
"767 702 OFFCURVE",
"783 691 OFFCURVE",
"813 667 CURVE SMOOTH",
"861 628 OFFCURVE",
"862 602 OFFCURVE",
"893 596 CURVE SMOOTH"
);
},
{
closed = 1;
nodes = (
"990 709 OFFCURVE",
"1014 733 OFFCURVE",
"984 772 CURVE SMOOTH",
"948 819 OFFCURVE",
"853 816 OFFCURVE",
"806 803 CURVE SMOOTH",
"793 799 OFFCURVE",
"791 796 OFFCURVE",
"805 791 CURVE SMOOTH",
"824 786 OFFCURVE",
"843 778 OFFCURVE",
"876 761 CURVE SMOOTH",
"928 734 OFFCURVE",
"934 708 OFFCURVE",
"965 709 CURVE SMOOTH"
);
}
);
width = 1000;
}
);
unicode = 3060;
},
{
glyphname = "ti-hira";
lastChange = "2020-03-22 15:08:02 +0000";
layers = (
{
anchors = (
{
name = LSB;
position = "{38.78, 380}";
},
{
name = RSB;
position = "{909, 380}";
}
);
layerId = "BE1754C0-A605-45AC-AA12-D3A1FC0C380B";
paths = (
{
closed = 1;
nodes = (
"566 -40 OFFCURVE",
"839 5 OFFCURVE",
"839 207 CURVE SMOOTH",
"839 308 OFFCURVE",
"759 389 OFFCURVE",
"639 398 CURVE SMOOTH",
"513 408 OFFCURVE",
"407 327 OFFCURVE",
"359 284 CURVE",
"351 363 OFFCURVE",
"366 567 OFFCURVE",
"425 704 CURVE SMOOTH",
"441 742 OFFCURVE",
"479 790 OFFCURVE",
"389 819 CURVE SMOOTH",
"365 827 OFFCURVE",
"324 824 OFFCURVE",
"289 809 CURVE SMOOTH",
"267 799 OFFCURVE",
"266 793 OFFCURVE",
"285 789 CURVE SMOOTH",
"317 782 OFFCURVE",
"338 760 OFFCURVE",
"336 736 CURVE SMOOTH",
"334 714 OFFCURVE",
"235 299 OFFCURVE",
"267 225 CURVE SMOOTH",
"299 150 OFFCURVE",
"325 144 OFFCURVE",
"358 156 CURVE SMOOTH",
"392 166 OFFCURVE",
"457 362 OFFCURVE",
"642 315 CURVE SMOOTH",
"696 301 OFFCURVE",
"745 244 OFFCURVE",
"724 169 CURVE SMOOTH",
"699 75 OFFCURVE",
"593 -3 OFFCURVE",
"442 -33 CURVE SMOOTH",
"412 -39 OFFCURVE",
"412 -54 OFFCURVE",
"442 -51 CURVE SMOOTH"
);
},
{
closed = 1;
nodes = (
"289 538 OFFCURVE",
"373 538 OFFCURVE",
"475 556 CURVE SMOOTH",
"574 574 OFFCURVE",
"612 631 OFFCURVE",
"603 664 CURVE SMOOTH",
"595 696 OFFCURVE",
"540 690 OFFCURVE",
"502 694 CURVE SMOOTH",
"466 698 OFFCURVE",
"429 736 OFFCURVE",
"421 745 CURVE",
"404 733 LINE",
"410 728 OFFCURVE",
"425 716 OFFCURVE",
"448 692 CURVE SMOOTH",
"484 655 OFFCURVE",
"454 650 OFFCURVE",
"429 642 CURVE SMOOTH",
"406 633 OFFCURVE",
"328 625 OFFCURVE",
"271 628 CURVE SMOOTH",
"213 632 OFFCURVE",
"156 663 OFFCURVE",
"131 682 CURVE SMOOTH",
"111 697 OFFCURVE",
"105 690 OFFCURVE",
"111 663 CURVE SMOOTH",
"122 616 OFFCURVE",
"176 568 OFFCURVE",
"232 553 CURVE SMOOTH"
);
}
);
width = 1000;
}
);
unicode = 3061;
},
{
glyphname = "di-hira";
lastChange = "2020-03-22 15:08:02 +0000";
layers = (
{
anchors = (
{
name = LSB;
position = "{38.78, 380}";
},
{
name = RSB;
position = "{1017.352, 380}";
}
);
layerId = "BE1754C0-A605-45AC-AA12-D3A1FC0C380B";
paths = (
{
closed = 1;
nodes = (
"566 -40 OFFCURVE",
"839 5 OFFCURVE",
"839 207 CURVE SMOOTH",
"839 308 OFFCURVE",
"759 389 OFFCURVE",
"639 398 CURVE SMOOTH",
"513 408 OFFCURVE",
"407 327 OFFCURVE",
"359 284 CURVE",
"351 363 OFFCURVE",
"366 567 OFFCURVE",
"425 704 CURVE SMOOTH",
"441 742 OFFCURVE",
"479 790 OFFCURVE",
"389 819 CURVE SMOOTH",
"365 827 OFFCURVE",
"324 824 OFFCURVE",
"289 809 CURVE SMOOTH",
"267 799 OFFCURVE",
"266 793 OFFCURVE",
"285 789 CURVE SMOOTH",
"317 782 OFFCURVE",
"338 760 OFFCURVE",
"336 736 CURVE SMOOTH",
"334 714 OFFCURVE",
"235 299 OFFCURVE",
"267 225 CURVE SMOOTH",
"299 150 OFFCURVE",
"325 144 OFFCURVE",
"358 156 CURVE SMOOTH",
"392 166 OFFCURVE",
"457 362 OFFCURVE",
"642 315 CURVE SMOOTH",
"696 301 OFFCURVE",
"745 244 OFFCURVE",
"724 169 CURVE SMOOTH",
"699 75 OFFCURVE",
"593 -3 OFFCURVE",
"442 -33 CURVE SMOOTH",
"412 -39 OFFCURVE",
"412 -54 OFFCURVE",
"442 -51 CURVE SMOOTH"
);
},
{
closed = 1;
nodes = (
"289 538 OFFCURVE",
"373 538 OFFCURVE",
"475 556 CURVE SMOOTH",
"574 574 OFFCURVE",
"612 631 OFFCURVE",
"603 664 CURVE SMOOTH",
"595 696 OFFCURVE",
"540 690 OFFCURVE",
"502 694 CURVE SMOOTH",
"466 698 OFFCURVE",
"429 736 OFFCURVE",
"421 745 CURVE",
"404 733 LINE",
"410 728 OFFCURVE",
"425 716 OFFCURVE",
"448 692 CURVE SMOOTH",
"484 655 OFFCURVE",
"454 650 OFFCURVE",
"429 642 CURVE SMOOTH",
"406 633 OFFCURVE",
"328 625 OFFCURVE",
"271 628 CURVE SMOOTH",
"213 632 OFFCURVE",
"156 663 OFFCURVE",
"131 682 CURVE SMOOTH",
"111 697 OFFCURVE",
"105 690 OFFCURVE",
"111 663 CURVE SMOOTH",
"122 616 OFFCURVE",
"176 568 OFFCURVE",
"232 553 CURVE SMOOTH"
);
},
{
closed = 1;
nodes = (
"827 507 OFFCURVE",
"858 527 OFFCURVE",
"839 575 CURVE SMOOTH",
"816 631 OFFCURVE",
"719 649 OFFCURVE",
"669 649 CURVE SMOOTH",
"655 649 OFFCURVE",
"654 646 OFFCURVE",
"666 639 CURVE SMOOTH",
"684 626 OFFCURVE",
"698 618 OFFCURVE",
"728 591 CURVE SMOOTH",
"773 550 OFFCURVE",
"772 522 OFFCURVE",
"803 514 CURVE SMOOTH"
);
},
{
closed = 1;
nodes = (
"935 594 OFFCURVE",
"962 618 OFFCURVE",
"938 664 CURVE SMOOTH",
"910 720 OFFCURVE",
"818 727 OFFCURVE",
"769 726 CURVE SMOOTH",
"752 726 OFFCURVE",
"753 721 OFFCURVE",
"764 715 CURVE SMOOTH",
"788 703 OFFCURVE",
"802 696 OFFCURVE",
"830 672 CURVE SMOOTH",
"877 634 OFFCURVE",
"879 607 OFFCURVE",
"911 600 CURVE SMOOTH"
);
}
);
width = 1000;
}
);
unicode = 3062;
},
{
glyphname = "tu-hira";
lastChange = "2020-03-22 15:08:02 +0000";
layers = (
{
anchors = (
{
name = LSB;
position = "{15.562, 380}";
},
{
name = RSB;
position = "{968.17, 380}";
}
);
layerId = "BE1754C0-A605-45AC-AA12-D3A1FC0C380B";
paths = (
{
closed = 1;
nodes = (
"681 60 OFFCURVE",
"863 156 OFFCURVE",
"895 341 CURVE SMOOTH",
"916 463 OFFCURVE",
"831 598 OFFCURVE",
"689 628 CURVE SMOOTH",
"481 672 OFFCURVE",
"224 499 OFFCURVE",
"198 489 CURVE SMOOTH",
"175 480 OFFCURVE",
"147 475 OFFCURVE",
"110 494 CURVE SMOOTH",
"87 506 OFFCURVE",
"80 499 OFFCURVE",
"90 474 CURVE SMOOTH",
"97 457 OFFCURVE",
"113 425 OFFCURVE",
"144 400 CURVE SMOOTH",
"195 359 OFFCURVE",
"263 372 OFFCURVE",
"302 410 CURVE SMOOTH",
"461 565 OFFCURVE",
"591 579 OFFCURVE",
"656 568 CURVE SMOOTH",
"746 553 OFFCURVE",
"806 467 OFFCURVE",
"782 355 CURVE SMOOTH",
"732 123 OFFCURVE",
"443 94 OFFCURVE",
"365 77 CURVE SMOOTH",
"340 72 OFFCURVE",
"343 60 OFFCURVE",
"372 60 CURVE SMOOTH"
);
}
);
width = 1000;
}
);
unicode = 3064;
},
{
glyphname = "tusmall-hira";
lastChange = "2020-03-22 15:08:02 +0000";
layers = (
{
anchors = (
{
name = LSB;
position = "{94.328, 380}";
},
{
name = RSB;
position = "{873.728, 380}";
}
);
layerId = "BE1754C0-A605-45AC-AA12-D3A1FC0C380B";
paths = (
{
closed = 1;
nodes = (
"634 -6 OFFCURVE",
"776 70 OFFCURVE",
"801 215 CURVE SMOOTH",
"819 318 OFFCURVE",
"746 421 OFFCURVE",
"639 443 CURVE SMOOTH",
"475 477 OFFCURVE",
"274 342 OFFCURVE",
"254 334 CURVE SMOOTH",
"231 325 OFFCURVE",
"210 327 OFFCURVE",
"187 339 CURVE SMOOTH",
"167 349 OFFCURVE",
"159 341 OFFCURVE",
"168 319 CURVE SMOOTH",
"173 306 OFFCURVE",
"187 280 OFFCURVE",
"211 260 CURVE SMOOTH",
"248 231 OFFCURVE",
"304 235 OFFCURVE",
"338 268 CURVE SMOOTH",
"461 388 OFFCURVE",
"561 399 OFFCURVE",
"611 390 CURVE SMOOTH",
"683 379 OFFCURVE",
"725 309 OFFCURVE",
"707 228 CURVE SMOOTH",
"669 49 OFFCURVE",
"446 26 OFFCURVE",
"384 14 CURVE SMOOTH",
"361 8 OFFCURVE",
"364 -6 OFFCURVE",
"390 -6 CURVE SMOOTH"
);
}
);
width = 1000;
}
);
unicode = 3063;
},
{
glyphname = "du-hira";
lastChange = "2020-03-22 15:08:02 +0000";
layers = (
{
anchors = (
{
name = LSB;
position = "{3.536, 380}";
},
{
name = RSB;
position = "{1069.566, 380}";
}
);
layerId = "BE1754C0-A605-45AC-AA12-D3A1FC0C380B";
paths = (
{
closed = 1;
nodes = (
"668 62 OFFCURVE",
"850 158 OFFCURVE",
"882 344 CURVE",
"903 466 OFFCURVE",
"819 601 OFFCURVE",
"676 631 CURVE",
"469 674 OFFCURVE",
"211 501 OFFCURVE",
"185 491 CURVE",
"162 482 OFFCURVE",
"134 478 OFFCURVE",
"97 497 CURVE",
"75 508 OFFCURVE",
"68 501 OFFCURVE",
"78 477 CURVE",
"85 460 OFFCURVE",
"101 428 OFFCURVE",
"131 403 CURVE",
"182 362 OFFCURVE",
"250 375 OFFCURVE",
"289 413 CURVE",
"448 568 OFFCURVE",
"578 581 OFFCURVE",
"643 571 CURVE",
"734 556 OFFCURVE",
"793 469 OFFCURVE",
"769 357 CURVE",
"719 125 OFFCURVE",
"430 96 OFFCURVE",
"352 80 CURVE",
"327 75 OFFCURVE",
"330 62 OFFCURVE",
"359 62 CURVE"
);
},
{
closed = 1;
nodes = (
"988 666 OFFCURVE",
"1015 689 OFFCURVE",
"989 735 CURVE",
"958 787 OFFCURVE",
"863 789 OFFCURVE",
"814 784 CURVE",
"795 782 OFFCURVE",
"795 777 OFFCURVE",
"808 771 CURVE",
"828 764 OFFCURVE",
"855 749 OFFCURVE",
"878 734 CURVE",
"929 701 OFFCURVE",
"930 673 OFFCURVE",
"962 669 CURVE"
);
},
{
closed = 1;
nodes = (
"903 574 OFFCURVE",
"932 596 OFFCURVE",
"908 642 CURVE",
"880 697 OFFCURVE",
"785 703 OFFCURVE",
"735 700 CURVE",
"715 699 OFFCURVE",
"718 694 OFFCURVE",
"730 689 CURVE",
"749 679 OFFCURVE",
"774 666 OFFCURVE",
"797 647 CURVE",
"845 609 OFFCURVE",
"847 583 OFFCURVE",
"878 578 CURVE"
);
}
);
width = 1000;
}
);
unicode = 3065;
},
{
glyphname = "te-hira";
lastChange = "2020-03-22 15:08:02 +0000";
layers = (
{
anchors = (
{
name = LSB;
position = "{16.058, 380}";
},
{
name = RSB;
position = "{913.487, 380}";
}
);
layerId = "BE1754C0-A605-45AC-AA12-D3A1FC0C380B";
paths = (
{
closed = 1;
nodes = (
"645 -12 OFFCURVE",
"750 -4 OFFCURVE",
"752 46 CURVE SMOOTH",
"755 113 OFFCURVE",
"631 97 OFFCURVE",
"578 95 CURVE SMOOTH",
"510 93 OFFCURVE",
"469 153 OFFCURVE",
"464 260 CURVE SMOOTH",
"455 416 OFFCURVE",
"553 587 OFFCURVE",
"626 628 CURVE SMOOTH",
"650 642 OFFCURVE",
"684 643 OFFCURVE",
"733 637 CURVE SMOOTH",
"767 632 OFFCURVE",
"834 616 OFFCURVE",
"842 654 CURVE SMOOTH",
"850 693 OFFCURVE",
"826 720 OFFCURVE",
"763 740 CURVE SMOOTH",
"697 760 OFFCURVE",
"653 715 OFFCURVE",
"615 708 CURVE SMOOTH",
"516 687 OFFCURVE",
"241 599 OFFCURVE",
"191 591 CURVE SMOOTH",
"149 585 OFFCURVE",
"140 588 OFFCURVE",
"115 597 CURVE SMOOTH",
"97 605 OFFCURVE",
"93 609 OFFCURVE",
"88 605 CURVE SMOOTH",
"83 600 OFFCURVE",
"89 584 OFFCURVE",
"91 577 CURVE SMOOTH",
"99 554 OFFCURVE",
"119 513 OFFCURVE",
"162 491 CURVE SMOOTH",
"206 469 OFFCURVE",
"234 472 OFFCURVE",
"274 504 CURVE SMOOTH",
"339 557 OFFCURVE",
"537 620 OFFCURVE",
"537 620 CURVE",
"451 547 OFFCURVE",
"362 376 OFFCURVE",
"372 239 CURVE SMOOTH",
"389 -1 OFFCURVE",
"533 -5 OFFCURVE",
"588 -7 CURVE SMOOTH"
);
}
);
width = 1000;
}
);
unicode = 3066;
},
{
glyphname = "de-hira";
lastChange = "2020-03-22 15:08:02 +0000";
layers = (
{
anchors = (
{
name = LSB;
position = "{16.058, 380}";
},
{
name = RSB;
position = "{968.944, 380}";
}
);
layerId = "BE1754C0-A605-45AC-AA12-D3A1FC0C380B";
paths = (
{
closed = 1;
nodes = (
"645 -12 OFFCURVE",
"750 -4 OFFCURVE",
"752 46 CURVE SMOOTH",
"755 113 OFFCURVE",
"631 97 OFFCURVE",
"578 95 CURVE SMOOTH",
"510 93 OFFCURVE",
"469 153 OFFCURVE",
"464 260 CURVE SMOOTH",
"455 416 OFFCURVE",
"553 587 OFFCURVE",
"626 628 CURVE SMOOTH",
"650 642 OFFCURVE",
"684 643 OFFCURVE",
"733 637 CURVE SMOOTH",
"767 632 OFFCURVE",
"834 616 OFFCURVE",
"842 654 CURVE SMOOTH",
"850 693 OFFCURVE",
"826 720 OFFCURVE",
"763 740 CURVE SMOOTH",
"697 760 OFFCURVE",
"653 715 OFFCURVE",
"615 708 CURVE SMOOTH",
"516 687 OFFCURVE",
"241 599 OFFCURVE",
"191 591 CURVE SMOOTH",
"149 585 OFFCURVE",
"140 588 OFFCURVE",
"115 597 CURVE SMOOTH",
"97 605 OFFCURVE",
"93 609 OFFCURVE",
"88 605 CURVE SMOOTH",
"83 600 OFFCURVE",
"89 584 OFFCURVE",
"91 577 CURVE SMOOTH",
"99 554 OFFCURVE",
"119 513 OFFCURVE",
"162 491 CURVE SMOOTH",
"206 469 OFFCURVE",
"234 472 OFFCURVE",
"274 504 CURVE SMOOTH",
"339 557 OFFCURVE",
"537 620 OFFCURVE",
"537 620 CURVE",
"451 547 OFFCURVE",
"362 376 OFFCURVE",
"372 239 CURVE SMOOTH",
"389 -1 OFFCURVE",
"533 -5 OFFCURVE",
"588 -7 CURVE SMOOTH"
);
},
{
closed = 1;
nodes = (
"741 314 OFFCURVE",
"771 330 OFFCURVE",
"758 380 CURVE SMOOTH",
"741 440 OFFCURVE",
"654 466 OFFCURVE",
"605 474 CURVE SMOOTH",
"582 477 OFFCURVE",
"583 471 OFFCURVE",
"594 464 CURVE SMOOTH",
"611 453 OFFCURVE",
"628 437 OFFCURVE",
"650 411 CURVE SMOOTH",
"691 364 OFFCURVE",
"689 335 OFFCURVE",
"715 324 CURVE SMOOTH"
);
},
{
closed = 1;
nodes = (
"882 397 OFFCURVE",
"913 420 OFFCURVE",
"892 462 CURVE SMOOTH",
"865 518 OFFCURVE",
"783 532 OFFCURVE",
"732 535 CURVE SMOOTH",
"710 537 OFFCURVE",
"706 533 OFFCURVE",
"720 525 CURVE SMOOTH",
"737 514 OFFCURVE",
"760 497 OFFCURVE",
"782 476 CURVE SMOOTH",
"826 433 OFFCURVE",
"831 406 OFFCURVE",
"857 401 CURVE SMOOTH"
);
}
);
width = 1000;
}
);
unicode = 3067;
},
{
glyphname = "to-hira";
lastChange = "2020-03-22 15:08:02 +0000";
layers = (
{
anchors = (
{
name = LSB;
position = "{179.98, 380}";
},
{
name = RSB;
position = "{824.024, 380}";
}
);
layerId = "BE1754C0-A605-45AC-AA12-D3A1FC0C380B";
paths = (
{
closed = 1;
nodes = (
"670 -25 OFFCURVE",
"752 -21 OFFCURVE",
"754 21 CURVE SMOOTH",
"755 57 OFFCURVE",
"724 85 OFFCURVE",
"678 89 CURVE SMOOTH",
"619 94 OFFCURVE",
"584 61 OFFCURVE",
"466 62 CURVE SMOOTH",
"382 62 OFFCURVE",
"333 88 OFFCURVE",
"331 137 CURVE SMOOTH",
"325 275 OFFCURVE",
"580 350 OFFCURVE",
"632 354 CURVE SMOOTH",
"703 360 OFFCURVE",
"730 383 OFFCURVE",
"704 418 CURVE SMOOTH",
"674 459 OFFCURVE",
"635 476 OFFCURVE",
"598 464 CURVE SMOOTH",
"557 449 OFFCURVE",
"536 416 OFFCURVE",
"507 410 CURVE SMOOTH",
"454 400 OFFCURVE",
"457 547 OFFCURVE",
"467 616 CURVE SMOOTH",
"477 692 OFFCURVE",
"501 698 OFFCURVE",
"497 728 CURVE SMOOTH",
"490 787 OFFCURVE",
"425 807 OFFCURVE",
"382 810 CURVE SMOOTH",
"368 812 OFFCURVE",
"334 786 OFFCURVE",
"335 776 CURVE SMOOTH",
"337 765 OFFCURVE",
"351 770 OFFCURVE",
"370 757 CURVE SMOOTH",
"393 742 OFFCURVE",
"372 584 OFFCURVE",
"375 496 CURVE SMOOTH",
"377 400 OFFCURVE",
"422 365 OFFCURVE",
"422 365 CURVE",
"422 361 LINE",
"400 343 OFFCURVE",
"248 256 OFFCURVE",
"250 134 CURVE SMOOTH",
"254 -39 OFFCURVE",
"471 -40 OFFCURVE",
"625 -28 CURVE SMOOTH"
);
}
);
width = 1000;
}
);
unicode = 3068;
},
{
glyphname = "do-hira";
lastChange = "2020-03-22 15:08:02 +0000";
layers = (
{
anchors = (
{
name = LSB;
position = "{182.98, 380}";
},
{
name = RSB;
position = "{966.688, 380}";
}
);
layerId = "BE1754C0-A605-45AC-AA12-D3A1FC0C380B";
paths = (
{
closed = 1;
nodes = (
"673 -23 OFFCURVE",
"754 -19 OFFCURVE",
"756 23 CURVE SMOOTH",
"757 59 OFFCURVE",
"726 87 OFFCURVE",
"680 91 CURVE SMOOTH",
"621 96 OFFCURVE",
"586 63 OFFCURVE",
"468 64 CURVE SMOOTH",
"385 64 OFFCURVE",
"335 90 OFFCURVE",
"333 139 CURVE SMOOTH",
"327 277 OFFCURVE",
"582 352 OFFCURVE",
"634 356 CURVE SMOOTH",
"706 362 OFFCURVE",
"732 385 OFFCURVE",
"707 420 CURVE SMOOTH",
"676 461 OFFCURVE",
"637 478 OFFCURVE",
"600 466 CURVE SMOOTH",
"559 451 OFFCURVE",
"538 418 OFFCURVE",
"510 412 CURVE SMOOTH",
"456 402 OFFCURVE",
"459 549 OFFCURVE",
"469 618 CURVE SMOOTH",
"480 694 OFFCURVE",
"503 700 OFFCURVE",
"499 731 CURVE SMOOTH",
"492 789 OFFCURVE",
"427 809 OFFCURVE",
"385 812 CURVE SMOOTH",
"370 814 OFFCURVE",
"336 788 OFFCURVE",
"337 778 CURVE SMOOTH",
"339 767 OFFCURVE",
"353 772 OFFCURVE",
"372 759 CURVE SMOOTH",
"395 744 OFFCURVE",
"374 586 OFFCURVE",
"377 498 CURVE SMOOTH",
"380 402 OFFCURVE",
"424 367 OFFCURVE",
"424 367 CURVE",
"424 363 LINE",
"402 345 OFFCURVE",
"251 258 OFFCURVE",
"253 136 CURVE SMOOTH",
"256 -37 OFFCURVE",
"473 -38 OFFCURVE",
"627 -26 CURVE SMOOTH"
);
},
{
closed = 1;
nodes = (
"778 590 OFFCURVE",
"807 615 OFFCURVE",
"781 659 CURVE SMOOTH",
"750 713 OFFCURVE",
"653 716 OFFCURVE",
"604 709 CURVE SMOOTH",
"589 707 OFFCURVE",
"587 703 OFFCURVE",
"601 698 CURVE SMOOTH",
"620 689 OFFCURVE",
"645 677 OFFCURVE",
"674 657 CURVE SMOOTH",
"724 622 OFFCURVE",
"719 601 OFFCURVE",
"754 595 CURVE SMOOTH"
);
},
{
closed = 1;
nodes = (
"891 709 OFFCURVE",
"912 740 OFFCURVE",
"882 777 CURVE SMOOTH",
"840 829 OFFCURVE",
"746 816 OFFCURVE",
"701 806 CURVE SMOOTH",
"687 803 OFFCURVE",
"686 799 OFFCURVE",
"701 795 CURVE SMOOTH",
"721 789 OFFCURVE",
"744 780 OFFCURVE",
"775 764 CURVE SMOOTH",
"830 735 OFFCURVE",
"838 711 OFFCURVE",
"864 710 CURVE SMOOTH"
);
}
);
width = 1000;
}
);
unicode = 3069;
},
{
glyphname = "na-hira";
lastChange = "2020-03-22 15:08:02 +0000";
layers = (
{
anchors = (
{
name = LSB;
position = "{49.727, 380}";
},
{
name = RSB;
position = "{935.816, 380}";
}
);
layerId = "BE1754C0-A605-45AC-AA12-D3A1FC0C380B";
paths = (
{
closed = 1;
nodes = (
"574 -49 OFFCURVE",
"637 -13 OFFCURVE",
"656 54 CURVE SMOOTH",
"667 96 OFFCURVE",
"635 276 OFFCURVE",
"639 349 CURVE SMOOTH",
"647 494 OFFCURVE",
"720 499 OFFCURVE",
"758 477 CURVE SMOOTH",
"787 459 OFFCURVE",
"796 443 OFFCURVE",
"819 443 CURVE SMOOTH",
"833 443 OFFCURVE",
"875 455 OFFCURVE",
"864 525 CURVE SMOOTH",
"852 603 OFFCURVE",
"743 632 OFFCURVE",
"707 643 CURVE SMOOTH",
"680 651 OFFCURVE",
"670 640 OFFCURVE",
"688 624 CURVE SMOOTH",
"696 617 OFFCURVE",
"738 585 OFFCURVE",
"731 560 CURVE SMOOTH",
"724 535 OFFCURVE",
"721 528 OFFCURVE",
"689 520 CURVE SMOOTH",
"658 511 OFFCURVE",
"562 494 OFFCURVE",
"558 352 CURVE SMOOTH",
"557 325 OFFCURVE",
"558 282 OFFCURVE",
"563 172 CURVE SMOOTH",
"569 65 OFFCURVE",
"550 26 OFFCURVE",
"490 26 CURVE SMOOTH",
"435 26 OFFCURVE",
"401 43 OFFCURVE",
"399 72 CURVE SMOOTH",
"398 94 OFFCURVE",
"431 125 OFFCURVE",
"491 127 CURVE SMOOTH",
"570 130 OFFCURVE",
"655 91 OFFCURVE",
"715 37 CURVE SMOOTH",
"749 6 OFFCURVE",
"791 -5 OFFCURVE",
"812 10 CURVE SMOOTH",
"839 29 OFFCURVE",
"820 78 OFFCURVE",
"773 114 CURVE SMOOTH",
"718 156 OFFCURVE",
"627 204 OFFCURVE",
"493 197 CURVE SMOOTH",
"360 190 OFFCURVE",
"318 116 OFFCURVE",
"322 67 CURVE SMOOTH",
"325 28 OFFCURVE",
"374 -37 OFFCURVE",
"478 -43 CURVE SMOOTH"
);
},
{
closed = 1;
nodes = (
"151 174 OFFCURVE",
"173 173 OFFCURVE",
"201 194 CURVE SMOOTH",
"223 211 OFFCURVE",
"291 338 OFFCURVE",
"329 425 CURVE SMOOTH",
"367 510 OFFCURVE",
"419 676 OFFCURVE",
"429 708 CURVE SMOOTH",
"438 740 OFFCURVE",
"440 747 OFFCURVE",
"432 767 CURVE SMOOTH",
"423 788 OFFCURVE",
"390 807 OFFCURVE",
"357 812 CURVE SMOOTH",
"329 816 OFFCURVE",
"307 811 OFFCURVE",
"306 801 CURVE SMOOTH",
"305 791 OFFCURVE",
"317 788 OFFCURVE",
"335 778 CURVE SMOOTH",
"347 770 OFFCURVE",
"352 757 OFFCURVE",
"352 733 CURVE SMOOTH",
"352 619 OFFCURVE",
"229 433 OFFCURVE",
"138 300 CURVE SMOOTH",
"108 256 OFFCURVE",
"120 210 OFFCURVE",
"138 190 CURVE SMOOTH"
);
},
{
closed = 1;
nodes = (
"313 543 OFFCURVE",
"421 586 OFFCURVE",
"496 627 CURVE SMOOTH",
"567 667 OFFCURVE",
"545 727 OFFCURVE",
"522 736 CURVE SMOOTH",
"498 746 OFFCURVE",
"486 738 OFFCURVE",
"463 736 CURVE SMOOTH",
"441 734 OFFCURVE",
"426 729 OFFCURVE",
"433 724 CURVE SMOOTH",
"443 718 OFFCURVE",
"471 715 OFFCURVE",
"458 698 CURVE SMOOTH",
"437 674 OFFCURVE",
"361 654 OFFCURVE",
"322 644 CURVE SMOOTH",
"268 630 OFFCURVE",
"214 651 OFFCURVE",
"194 666 CURVE SMOOTH",
"175 678 OFFCURVE",
"171 680 OFFCURVE",
"164 676 CURVE SMOOTH",
"160 674 OFFCURVE",
"159 662 OFFCURVE",
"163 645 CURVE SMOOTH",
"170 613 OFFCURVE",
"207 578 OFFCURVE",
"243 566 CURVE SMOOTH"
);
}
);
width = 1000;
}
);
unicode = 306A;
},
{
glyphname = "ni-hira";
lastChange = "2020-03-22 15:08:02 +0000";
layers = (
{
anchors = (
{
name = LSB;
position = "{72.489, 380}";
},
{
name = RSB;
position = "{927.063, 380}";
}
);
layerId = "BE1754C0-A605-45AC-AA12-D3A1FC0C380B";
paths = (
{
closed = 1;
nodes = (
"329 9 OFFCURVE",
"305 79 OFFCURVE",
"297 142 CURVE SMOOTH",
"287 224 OFFCURVE",
"309 359 OFFCURVE",
"317 390 CURVE SMOOTH",
"325 419 OFFCURVE",
"318 427 OFFCURVE",
"308 400 CURVE SMOOTH",
"269 300 OFFCURVE",
"234 186 OFFCURVE",
"234 186 CURVE",
"187 367 OFFCURVE",
"297 526 OFFCURVE",
"304 596 CURVE SMOOTH",
"310 666 OFFCURVE",
"236 724 OFFCURVE",
"201 748 CURVE",
"187 755 OFFCURVE",
"185 747 OFFCURVE",
"200 711 CURVE SMOOTH",
"230 636 OFFCURVE",
"122 401 OFFCURVE",
"146 206 CURVE SMOOTH",
"161 75 OFFCURVE",
"236 5 OFFCURVE",
"274 7 CURVE SMOOTH"
);
},
{
closed = 1;
nodes = (
"813 57 OFFCURVE",
"859 80 OFFCURVE",
"857 106 CURVE SMOOTH",
"854 135 OFFCURVE",
"829 154 OFFCURVE",
"791 162 CURVE SMOOTH",
"729 174 OFFCURVE",
"680 138 OFFCURVE",
"567 149 CURVE SMOOTH",
"503 155 OFFCURVE",
"456 169 OFFCURVE",
"436 190 CURVE SMOOTH",
"413 212 OFFCURVE",
"406 201 OFFCURVE",
"421 170 CURVE SMOOTH",
"482 48 OFFCURVE",
"587 42 OFFCURVE",
"752 53 CURVE SMOOTH"
);
},
{
closed = 1;
nodes = (
"767 574 OFFCURVE",
"809 599 OFFCURVE",
"807 623 CURVE SMOOTH",
"806 649 OFFCURVE",
"787 668 OFFCURVE",
"751 677 CURVE SMOOTH",
"714 686 OFFCURVE",
"641 647 OFFCURVE",
"577 644 CURVE SMOOTH",
"511 641 OFFCURVE",
"492 644 OFFCURVE",
"459 666 CURVE SMOOTH",
"435 681 OFFCURVE",
"432 673 OFFCURVE",
"449 640 CURVE SMOOTH",
"499 546 OFFCURVE",
"659 557 OFFCURVE",
"710 565 CURVE SMOOTH"
);
}
);
width = 1000;
}
);
unicode = 306B;
},
{
glyphname = "nu-hira";
lastChange = "2020-03-22 15:08:02 +0000";
layers = (
{
anchors = (
{
name = LSB;
position = "{38.216, 380}";
},
{
name = RSB;
position = "{982.106, 380}";
}
);
layerId = "BE1754C0-A605-45AC-AA12-D3A1FC0C380B";
paths = (
{
closed = 1;
nodes = (
"208 13 OFFCURVE",
"376 84 OFFCURVE",
"424 341 CURVE SMOOTH",
"497 719 OFFCURVE",
"329 679 OFFCURVE",
"289 666 CURVE SMOOTH",
"257 656 OFFCURVE",
"265 647 OFFCURVE",
"281 647 CURVE SMOOTH",
"320 647 OFFCURVE",
"342 627 OFFCURVE",
"356 579 CURVE SMOOTH",
"403 418 OFFCURVE",
"309 126 OFFCURVE",
"201 132 CURVE SMOOTH",
"158 134 OFFCURVE",
"196 290 OFFCURVE",
"262 405 CURVE SMOOTH",
"301 471 OFFCURVE",
"453 664 OFFCURVE",
"606 621 CURVE SMOOTH",
"682 600 OFFCURVE",
"764 517 OFFCURVE",
"743 325 CURVE SMOOTH",
"726 153 OFFCURVE",
"697 108 OFFCURVE",
"601 103 CURVE SMOOTH",
"565 101 OFFCURVE",
"531 121 OFFCURVE",
"528 146 CURVE SMOOTH",
"526 166 OFFCURVE",
"562 196 OFFCURVE",
"622 194 CURVE SMOOTH",
"677 192 OFFCURVE",
"753 141 OFFCURVE",
"817 63 CURVE SMOOTH",
"832 46 OFFCURVE",
"866 25 OFFCURVE",
"890 38 CURVE SMOOTH",
"916 51 OFFCURVE",
"920 97 OFFCURVE",
"897 130 CURVE SMOOTH",
"869 168 OFFCURVE",
"769 250 OFFCURVE",
"624 250 CURVE SMOOTH",
"527 250 OFFCURVE",
"462 203 OFFCURVE",
"464 135 CURVE SMOOTH",
"466 65 OFFCURVE",
"543 39 OFFCURVE",
"603 39 CURVE SMOOTH",
"645 39 OFFCURVE",
"838 42 OFFCURVE",
"856 343 CURVE SMOOTH",
"867 516 OFFCURVE",
"789 673 OFFCURVE",
"615 687 CURVE SMOOTH",
"510 696 OFFCURVE",
"366 641 OFFCURVE",
"248 474 CURVE SMOOTH",
"148 334 OFFCURVE",
"44 82 OFFCURVE",
"158 34 CURVE SMOOTH"
);
},
{
closed = 1;
nodes = (
"396 174 OFFCURVE",
"423 184 OFFCURVE",
"429 201 CURVE SMOOTH",
"435 220 OFFCURVE",
"446 255 OFFCURVE",
"384 281 CURVE SMOOTH",
"280 326 OFFCURVE",
"168 402 OFFCURVE",
"168 559 CURVE SMOOTH",
"168 592 OFFCURVE",
"157 594 OFFCURVE",
"149 564 CURVE SMOOTH",
"118 448 OFFCURVE",
"139 375 OFFCURVE",
"201 293 CURVE SMOOTH",
"259 217 OFFCURVE",
"328 184 OFFCURVE",
"370 178 CURVE SMOOTH"
);
}
);
width = 1000;
}
);
unicode = 306C;
},
{
glyphname = "ne-hira";
lastChange = "2020-03-22 15:08:02 +0000";
layers = (
{
anchors = (
{
name = LSB;
position = "{20.433, 380}";
},
{
name = RSB;
position = "{982.82, 380}";
}
);
layerId = "BE1754C0-A605-45AC-AA12-D3A1FC0C380B";
paths = (
{
closed = 1;
nodes = (
"343 -45 OFFCURVE",
"402 -21 OFFCURVE",
"383 94 CURVE SMOOTH",
"333 400 OFFCURVE",
"355 443 OFFCURVE",
"358 497 CURVE SMOOTH",
"360 553 OFFCURVE",
"391 656 OFFCURVE",
"406 722 CURVE SMOOTH",
"421 786 OFFCURVE",
"372 821 OFFCURVE",
"321 836 CURVE SMOOTH",
"273 851 OFFCURVE",
"241 839 OFFCURVE",
"273 818 CURVE SMOOTH",
"306 797 OFFCURVE",
"301 778 OFFCURVE",
"301 739 CURVE SMOOTH",
"301 700 OFFCURVE",
"274 490 OFFCURVE",
"274 407 CURVE SMOOTH",
"274 323 OFFCURVE",
"293 188 OFFCURVE",
"293 168 CURVE SMOOTH",
"293 138 OFFCURVE",
"285 140 OFFCURVE",
"274 175 CURVE SMOOTH",
"263 212 OFFCURVE",
"203 357 OFFCURVE",
"190 399 CURVE SMOOTH",
"176 440 OFFCURVE",
"177 450 OFFCURVE",
"202 466 CURVE",
"226 478 OFFCURVE",
"282 513 OFFCURVE",
"307 515 CURVE SMOOTH",
"334 519 OFFCURVE",
"333 462 OFFCURVE",
"303 421 CURVE SMOOTH",
"273 381 OFFCURVE",
"169 259 OFFCURVE",
"122 200 CURVE SMOOTH",
"97 169 OFFCURVE",
"73 111 OFFCURVE",
"108 89 CURVE SMOOTH",
"140 69 OFFCURVE",
"180 78 OFFCURVE",
"196 110 CURVE SMOOTH",
"211 143 OFFCURVE",
"280 310 OFFCURVE",
"356 391 CURVE SMOOTH",
"431 473 OFFCURVE",
"550 610 OFFCURVE",
"658 600 CURVE SMOOTH",
"720 594 OFFCURVE",
"765 511 OFFCURVE",
"761 371 CURVE SMOOTH",
"756 234 OFFCURVE",
"737 65 OFFCURVE",
"593 65 CURVE SMOOTH",
"546 65 OFFCURVE",
"512 77 OFFCURVE",
"513 102 CURVE SMOOTH",
"515 133 OFFCURVE",
"558 149 OFFCURVE",
"613 142 CURVE SMOOTH",
"657 136 OFFCURVE",
"727 120 OFFCURVE",
"786 58 CURVE SMOOTH",
"826 16 OFFCURVE",
"877 -1 OFFCURVE",
"898 19 CURVE SMOOTH",
"925 44 OFFCURVE",
"914 96 OFFCURVE",
"874 128 CURVE SMOOTH",
"811 178 OFFCURVE",
"736 203 OFFCURVE",
"619 208 CURVE SMOOTH",
"503 213 OFFCURVE",
"439 160 OFFCURVE",
"444 94 CURVE SMOOTH",
"448 39 OFFCURVE",
"516 -1 OFFCURVE",
"604 -3 CURVE SMOOTH",
"675 -5 OFFCURVE",
"850 19 OFFCURVE",
"864 340 CURVE SMOOTH",
"869 446 OFFCURVE",
"835 659 OFFCURVE",
"673 659 CURVE SMOOTH",
"581 659 OFFCURVE",
"442 569 OFFCURVE",
"330 404 CURVE",
"346 413 OFFCURVE",
"376 433 OFFCURVE",
"391 451 CURVE SMOOTH",
"433 504 OFFCURVE",
"440 536 OFFCURVE",
"425 572 CURVE SMOOTH",
"414 600 OFFCURVE",
"366 613 OFFCURVE",
"314 605 CURVE SMOOTH",
"269 597 OFFCURVE",
"191 542 OFFCURVE",
"123 508 CURVE SMOOTH",
"67 479 OFFCURVE",
"109 422 OFFCURVE",
"134 385 CURVE SMOOTH",
"193 299 OFFCURVE",
"232 166 OFFCURVE",
"248 92 CURVE SMOOTH",
"266 8 OFFCURVE",
"296 -52 OFFCURVE",
"322 -48 CURVE SMOOTH"
);
}
);
width = 1000;
}
);
unicode = 306D;
},
{
glyphname = "no-hira";
lastChange = "2020-03-22 15:08:02 +0000";
layers = (
{
anchors = (
{
name = LSB;
position = "{-0.549, 380}";
},
{
name = RSB;
position = "{995.929, 380}";
}
);
layerId = "BE1754C0-A605-45AC-AA12-D3A1FC0C380B";
paths = (
{
closed = 1;
nodes = (
"572 0 OFFCURVE",
"947 68 OFFCURVE",
"925 392 CURVE",
"903 709 OFFCURVE",
"577 746 OFFCURVE",
"446 725 CURVE",
"313 703 OFFCURVE",
"56 599 OFFCURVE",
"70 298 CURVE",
"78 142 OFFCURVE",
"194 66 OFFCURVE",
"217 66 CURVE",
"336 66 OFFCURVE",
"555 447 OFFCURVE",
"529 573 CURVE",
"511 659 OFFCURVE",
"484 664 OFFCURVE",
"465 690 CURVE",
"444 679 LINE",
"452 662 OFFCURVE",
"471 639 OFFCURVE",
"461 578 CURVE",
"429 361 OFFCURVE",
"278 194 OFFCURVE",
"237 194 CURVE",
"196 194 OFFCURVE",
"126 319 OFFCURVE",
"178 456 CURVE",
"223 573 OFFCURVE",
"312 638 OFFCURVE",
"464 663 CURVE",
"628 689 OFFCURVE",
"817 588 OFFCURVE",
"812 378 CURVE",
"806 148 OFFCURVE",
"601 40 OFFCURVE",
"455 4 CURVE",
"411 -7 OFFCURVE",
"427 -13 OFFCURVE",
"478 -9 CURVE"
);
}
);
width = 1000;
}
);
unicode = 306E;
},
{
glyphname = "ha-hira";
lastChange = "2020-03-22 15:08:02 +0000";
layers = (
{
anchors = (
{
name = LSB;
position = "{48.649, 380}";
},
{
name = RSB;
position = "{974.418, 380}";
}
);
layerId = "BE1754C0-A605-45AC-AA12-D3A1FC0C380B";
paths = (
{
closed = 1;
nodes = (
"678 5 OFFCURVE",
"736 63 OFFCURVE",
"727 166 CURVE SMOOTH",
"718 263 OFFCURVE",
"707 524 OFFCURVE",
"709 576 CURVE SMOOTH",
"711 631 OFFCURVE",
"720 629 OFFCURVE",
"727 670 CURVE SMOOTH",
"734 714 OFFCURVE",
"724 727 OFFCURVE",
"669 759 CURVE SMOOTH",
"647 773 OFFCURVE",
"614 770 OFFCURVE",
"571 751 CURVE SMOOTH",
"553 743 OFFCURVE",
"552 734 OFFCURVE",
"572 720 CURVE SMOOTH",
"597 703 OFFCURVE",
"618 706 OFFCURVE",
"625 640 CURVE SMOOTH",
"632 576 OFFCURVE",
"644 276 OFFCURVE",
"638 174 CURVE SMOOTH",
"635 106 OFFCURVE",
"614 81 OFFCURVE",
"555 76 CURVE SMOOTH",
"499 72 OFFCURVE",
"449 99 OFFCURVE",
"452 129 CURVE SMOOTH",
"455 156 OFFCURVE",
"508 183 OFFCURVE",
"558 186 CURVE SMOOTH",
"608 189 OFFCURVE",
"695 184 OFFCURVE",
"806 60 CURVE SMOOTH",
"839 23 OFFCURVE",
"878 33 OFFCURVE",
"890 42 CURVE SMOOTH",
"903 54 OFFCURVE",
"919 93 OFFCURVE",
"879 136 CURVE SMOOTH",
"838 180 OFFCURVE",
"714 271 OFFCURVE",
"559 253 CURVE SMOOTH",
"409 235 OFFCURVE",
"383 153 OFFCURVE",
"384 120 CURVE SMOOTH",
"385 76 OFFCURVE",
"443 5 OFFCURVE",
"565 5 CURVE SMOOTH"
);
},
{
closed = 1;
nodes = (
"285 73 OFFCURVE",
"255 90 OFFCURVE",
"261 159 CURVE SMOOTH",
"265 204 OFFCURVE",
"323 402 OFFCURVE",
"338 446 CURVE SMOOTH",
"348 479 OFFCURVE",
"344 486 OFFCURVE",
"331 463 CURVE SMOOTH",
"284 382 OFFCURVE",
"241 271 OFFCURVE",
"221 235 CURVE SMOOTH",
"208 211 OFFCURVE",
"205 235 OFFCURVE",
"204 244 CURVE SMOOTH",
"197 300 OFFCURVE",
"199 340 OFFCURVE",
"234 442 CURVE SMOOTH",
"256 508 OFFCURVE",
"288 537 OFFCURVE",
"285 612 CURVE SMOOTH",
"282 688 OFFCURVE",
"224 737 OFFCURVE",
"184 753 CURVE SMOOTH",
"147 768 OFFCURVE",
"148 760 OFFCURVE",
"162 731 CURVE SMOOTH",
"204 648 OFFCURVE",
"169 571 OFFCURVE",
"135 393 CURVE SMOOTH",
"102 217 OFFCURVE",
"123 131 OFFCURVE",
"162 59 CURVE SMOOTH",
"191 6 OFFCURVE",
"262 -37 OFFCURVE",
"275 23 CURVE SMOOTH"
);
},
{
closed = 1;
nodes = (
"598 443 OFFCURVE",
"709 474 OFFCURVE",
"766 502 CURVE SMOOTH",
"820 528 OFFCURVE",
"845 565 OFFCURVE",
"832 597 CURVE SMOOTH",
"820 628 OFFCURVE",
"796 614 OFFCURVE",
"744 637 CURVE SMOOTH",
"726 646 OFFCURVE",
"710 666 OFFCURVE",
"704 674 CURVE",
"702 670 OFFCURVE",
"699 664 OFFCURVE",
"702 656 CURVE SMOOTH",
"706 640 OFFCURVE",
"722 620 OFFCURVE",
"740 610 CURVE SMOOTH",
"761 599 OFFCURVE",
"760 594 OFFCURVE",
"736 580 CURVE SMOOTH",
"715 569 OFFCURVE",
"638 552 OFFCURVE",
"576 542 CURVE SMOOTH",
"513 532 OFFCURVE",
"485 553 OFFCURVE",
"450 571 CURVE SMOOTH",
"426 583 OFFCURVE",
"422 579 OFFCURVE",
"435 546 CURVE SMOOTH",
"450 506 OFFCURVE",
"469 474 OFFCURVE",
"534 459 CURVE SMOOTH"
);
}
);
width = 1000;
}
);
unicode = 306F;
},
{
glyphname = "ba-hira";
lastChange = "2020-03-22 15:08:02 +0000";
layers = (
{
anchors = (
{
name = LSB;
position = "{48.649, 380}";
},
{
name = RSB;
position = "{1065.389, 380}";
}
);
layerId = "BE1754C0-A605-45AC-AA12-D3A1FC0C380B";
paths = (
{
closed = 1;
nodes = (
"678 5 OFFCURVE",
"736 63 OFFCURVE",
"727 166 CURVE SMOOTH",
"718 263 OFFCURVE",
"707 524 OFFCURVE",
"709 576 CURVE SMOOTH",
"711 631 OFFCURVE",
"720 629 OFFCURVE",
"727 670 CURVE SMOOTH",
"734 714 OFFCURVE",
"724 727 OFFCURVE",
"669 759 CURVE SMOOTH",
"647 773 OFFCURVE",
"614 770 OFFCURVE",
"571 751 CURVE SMOOTH",
"553 743 OFFCURVE",
"552 734 OFFCURVE",
"572 720 CURVE SMOOTH",
"597 703 OFFCURVE",
"618 706 OFFCURVE",
"625 640 CURVE SMOOTH",
"632 576 OFFCURVE",
"644 276 OFFCURVE",
"638 174 CURVE SMOOTH",
"635 106 OFFCURVE",
"614 81 OFFCURVE",
"555 76 CURVE SMOOTH",
"499 72 OFFCURVE",
"449 99 OFFCURVE",
"452 129 CURVE SMOOTH",
"455 156 OFFCURVE",
"507 183 OFFCURVE",
"558 186 CURVE SMOOTH",
"608 189 OFFCURVE",
"695 184 OFFCURVE",
"806 60 CURVE SMOOTH",
"839 23 OFFCURVE",
"878 33 OFFCURVE",
"890 42 CURVE SMOOTH",
"903 54 OFFCURVE",
"919 93 OFFCURVE",
"879 136 CURVE SMOOTH",
"838 180 OFFCURVE",
"714 271 OFFCURVE",
"559 253 CURVE SMOOTH",
"409 235 OFFCURVE",
"383 153 OFFCURVE",
"384 120 CURVE SMOOTH",
"385 76 OFFCURVE",
"443 5 OFFCURVE",
"565 5 CURVE SMOOTH"
);
},
{
closed = 1;
nodes = (
"285 73 OFFCURVE",
"255 90 OFFCURVE",
"261 159 CURVE SMOOTH",
"265 204 OFFCURVE",
"323 402 OFFCURVE",
"338 446 CURVE SMOOTH",
"348 479 OFFCURVE",
"344 486 OFFCURVE",
"331 463 CURVE SMOOTH",
"284 382 OFFCURVE",
"241 271 OFFCURVE",
"221 235 CURVE SMOOTH",
"208 211 OFFCURVE",
"205 235 OFFCURVE",
"204 244 CURVE SMOOTH",
"197 300 OFFCURVE",
"199 340 OFFCURVE",
"234 442 CURVE SMOOTH",
"256 508 OFFCURVE",
"288 537 OFFCURVE",
"285 612 CURVE SMOOTH",
"282 688 OFFCURVE",
"224 737 OFFCURVE",
"184 753 CURVE SMOOTH",
"147 768 OFFCURVE",
"148 760 OFFCURVE",
"162 731 CURVE SMOOTH",
"204 648 OFFCURVE",
"169 571 OFFCURVE",
"135 393 CURVE SMOOTH",
"102 217 OFFCURVE",
"123 131 OFFCURVE",
"162 59 CURVE SMOOTH",
"191 6 OFFCURVE",
"262 -37 OFFCURVE",
"275 23 CURVE SMOOTH"
);
},
{
closed = 1;
nodes = (
"598 443 OFFCURVE",
"709 474 OFFCURVE",
"766 502 CURVE SMOOTH",
"820 528 OFFCURVE",
"845 565 OFFCURVE",
"832 597 CURVE SMOOTH",
"820 628 OFFCURVE",
"796 614 OFFCURVE",
"744 637 CURVE SMOOTH",
"726 646 OFFCURVE",
"710 666 OFFCURVE",
"704 674 CURVE",
"702 670 OFFCURVE",
"699 664 OFFCURVE",
"701 656 CURVE SMOOTH",
"706 640 OFFCURVE",
"722 620 OFFCURVE",
"740 610 CURVE SMOOTH",
"761 599 OFFCURVE",
"760 594 OFFCURVE",
"736 580 CURVE SMOOTH",
"715 569 OFFCURVE",
"638 552 OFFCURVE",
"576 542 CURVE SMOOTH",
"513 532 OFFCURVE",
"485 553 OFFCURVE",
"450 571 CURVE SMOOTH",
"426 583 OFFCURVE",
"422 579 OFFCURVE",
"435 546 CURVE SMOOTH",
"450 506 OFFCURVE",
"469 474 OFFCURVE",
"534 459 CURVE SMOOTH"
);
},
{
closed = 1;
nodes = (
"913 602 OFFCURVE",
"942 623 OFFCURVE",
"923 667 CURVE SMOOTH",
"899 726 OFFCURVE",
"807 740 OFFCURVE",
"761 745 CURVE SMOOTH",
"742 747 OFFCURVE",
"740 741 OFFCURVE",
"752 734 CURVE SMOOTH",
"772 722 OFFCURVE",
"796 704 OFFCURVE",
"817 682 CURVE SMOOTH",
"859 638 OFFCURVE",
"857 612 OFFCURVE",
"887 607 CURVE SMOOTH"
);
},
{
closed = 1;
nodes = (
"984 703 OFFCURVE",
"1009 727 OFFCURVE",
"987 770 CURVE SMOOTH",
"960 825 OFFCURVE",
"868 835 OFFCURVE",
"818 837 CURVE SMOOTH",
"800 838 OFFCURVE",
"798 832 OFFCURVE",
"812 825 CURVE SMOOTH",
"831 815 OFFCURVE",
"852 800 OFFCURVE",
"879 779 CURVE SMOOTH",
"926 742 OFFCURVE",
"927 712 OFFCURVE",
"955 708 CURVE SMOOTH"
);
}
);
width = 1000;
}
);
unicode = 3070;
},
{
glyphname = "pa-hira";
lastChange = "2020-03-22 15:08:02 +0000";
layers = (
{
anchors = (
{
name = LSB;
position = "{48.92, 380}";
},
{
name = RSB;
position = "{1046, 380}";
}
);
layerId = "BE1754C0-A605-45AC-AA12-D3A1FC0C380B";
paths = (
{
closed = 1;
nodes = (
"679 6 OFFCURVE",
"737 64 OFFCURVE",
"727 167 CURVE SMOOTH",
"718 264 OFFCURVE",
"708 525 OFFCURVE",
"710 577 CURVE SMOOTH",
"712 632 OFFCURVE",
"720 630 OFFCURVE",
"727 671 CURVE SMOOTH",
"734 715 OFFCURVE",
"724 728 OFFCURVE",
"669 760 CURVE SMOOTH",
"648 774 OFFCURVE",
"615 771 OFFCURVE",
"571 752 CURVE SMOOTH",
"553 744 OFFCURVE",
"552 735 OFFCURVE",
"572 722 CURVE SMOOTH",
"597 704 OFFCURVE",
"618 707 OFFCURVE",
"625 641 CURVE SMOOTH",
"632 577 OFFCURVE",
"645 277 OFFCURVE",
"639 175 CURVE SMOOTH",
"635 108 OFFCURVE",
"615 82 OFFCURVE",
"555 77 CURVE SMOOTH",
"499 73 OFFCURVE",
"450 100 OFFCURVE",
"453 130 CURVE SMOOTH",
"455 157 OFFCURVE",
"508 184 OFFCURVE",
"558 187 CURVE SMOOTH",
"609 190 OFFCURVE",
"695 185 OFFCURVE",
"807 61 CURVE SMOOTH",
"840 24 OFFCURVE",
"878 34 OFFCURVE",
"890 44 CURVE SMOOTH",
"904 55 OFFCURVE",
"919 94 OFFCURVE",
"879 137 CURVE SMOOTH",
"839 181 OFFCURVE",
"714 272 OFFCURVE",
"559 254 CURVE SMOOTH",
"409 237 OFFCURVE",
"384 154 OFFCURVE",
"385 121 CURVE SMOOTH",
"386 77 OFFCURVE",
"444 6 OFFCURVE",
"565 6 CURVE SMOOTH"
);
},
{
closed = 1;
nodes = (
"286 74 OFFCURVE",
"256 91 OFFCURVE",
"261 160 CURVE SMOOTH",
"265 206 OFFCURVE",
"324 403 OFFCURVE",
"338 447 CURVE SMOOTH",
"349 480 OFFCURVE",
"344 487 OFFCURVE",
"331 465 CURVE SMOOTH",
"285 383 OFFCURVE",
"242 272 OFFCURVE",
"222 236 CURVE SMOOTH",
"209 212 OFFCURVE",
"206 236 OFFCURVE",
"204 245 CURVE",
"197 302 OFFCURVE",
"199 341 OFFCURVE",
"234 443 CURVE SMOOTH",
"257 509 OFFCURVE",
"289 538 OFFCURVE",
"286 613 CURVE SMOOTH",
"283 689 OFFCURVE",
"225 738 OFFCURVE",
"184 755 CURVE SMOOTH",
"147 769 OFFCURVE",
"148 761 OFFCURVE",
"163 732 CURVE SMOOTH",
"204 649 OFFCURVE",
"169 572 OFFCURVE",
"135 394 CURVE SMOOTH",
"102 218 OFFCURVE",
"124 132 OFFCURVE",
"163 60 CURVE SMOOTH",
"192 7 OFFCURVE",
"262 -36 OFFCURVE",
"275 24 CURVE SMOOTH"
);
},
{
closed = 1;
nodes = (
"598 444 OFFCURVE",
"710 475 OFFCURVE",
"767 503 CURVE SMOOTH",
"820 530 OFFCURVE",
"845 566 OFFCURVE",
"833 598 CURVE SMOOTH",
"820 629 OFFCURVE",
"796 615 OFFCURVE",
"745 638 CURVE SMOOTH",
"726 647 OFFCURVE",
"711 667 OFFCURVE",
"705 675 CURVE",
"703 671 OFFCURVE",
"699 665 OFFCURVE",
"702 658 CURVE SMOOTH",
"707 641 OFFCURVE",
"722 621 OFFCURVE",
"741 611 CURVE SMOOTH",
"761 600 OFFCURVE",
"760 595 OFFCURVE",
"737 581 CURVE SMOOTH",
"715 570 OFFCURVE",
"639 553 OFFCURVE",
"577 543 CURVE SMOOTH",
"514 533 OFFCURVE",
"486 554 OFFCURVE",
"451 572 CURVE SMOOTH",
"426 584 OFFCURVE",
"422 580 OFFCURVE",
"435 547 CURVE SMOOTH",
"451 507 OFFCURVE",
"469 475 OFFCURVE",
"534 460 CURVE SMOOTH"
);
},
{
closed = 1;
nodes = (
"930 629 OFFCURVE",
"976 677 OFFCURVE",
"976 734 CURVE SMOOTH",
"976 792 OFFCURVE",
"930 839 OFFCURVE",
"872 839 CURVE SMOOTH",
"812 839 OFFCURVE",
"767 792 OFFCURVE",
"767 734 CURVE SMOOTH",
"767 676 OFFCURVE",
"813 629 OFFCURVE",
"872 629 CURVE SMOOTH"
);
},
{
closed = 1;
nodes = (
"841 677 OFFCURVE",
"814 702 OFFCURVE",
"814 734 CURVE SMOOTH",
"814 765 OFFCURVE",
"840 791 OFFCURVE",
"872 791 CURVE SMOOTH",
"903 791 OFFCURVE",
"929 766 OFFCURVE",
"929 734 CURVE SMOOTH",
"929 703 OFFCURVE",
"904 677 OFFCURVE",
"872 677 CURVE SMOOTH"
);
}
);
width = 1000;
}
);
unicode = 3071;
},
{
glyphname = "hi-hira";
lastChange = "2020-03-22 15:08:02 +0000";
layers = (
{
anchors = (
{
name = LSB;
position = "{91.712, 380}";
},
{
name = RSB;
position = "{990.189, 380}";
}
);
layerId = "BE1754C0-A605-45AC-AA12-D3A1FC0C380B";
paths = (
{
closed = 1;
nodes = (
"735 398 OFFCURVE",
"758 355 OFFCURVE",
"797 315 CURVE",
"840 269 OFFCURVE",
"881 258 OFFCURVE",
"907 282 CURVE",
"934 307 OFFCURVE",
"919 353 OFFCURVE",
"867 394 CURVE",
"726 505 OFFCURVE",
"708 681 OFFCURVE",
"705 722 CURVE",
"701 763 OFFCURVE",
"675 787 OFFCURVE",
"640 787 CURVE",
"604 787 OFFCURVE",
"596 746 OFFCURVE",
"604 715 CURVE",
"611 684 OFFCURVE",
"629 651 OFFCURVE",
"641 605 CURVE",
"699 36 OFFCURVE",
"444 66 OFFCURVE",
"399 67 CURVE",
"338 70 OFFCURVE",
"238 103 OFFCURVE",
"239 247 CURVE",
"241 450 OFFCURVE",
"358 564 OFFCURVE",
"414 595 CURVE",
"455 618 OFFCURVE",
"483 629 OFFCURVE",
"481 656 CURVE",
"480 684 OFFCURVE",
"448 712 OFFCURVE",
"423 721 CURVE",
"400 730 OFFCURVE",
"354 688 OFFCURVE",
"319 679 CURVE",
"283 669 OFFCURVE",
"223 679 OFFCURVE",
"194 694 CURVE",
"155 714 OFFCURVE",
"156 702 OFFCURVE",
"176 643 CURVE",
"214 535 OFFCURVE",
"319 596 OFFCURVE",
"325 598 CURVE",
"332 599 OFFCURVE",
"332 597 OFFCURVE",
"329 594 CURVE",
"282 544 OFFCURVE",
"181 438 OFFCURVE",
"163 245 CURVE",
"148 77 OFFCURVE",
"266 -39 OFFCURVE",
"413 -39 CURVE",
"815 -39 OFFCURVE",
"697 463 OFFCURVE",
"695 475 CURVE SMOOTH",
"693 485 OFFCURVE",
"696 487 OFFCURVE",
"701 477 CURVE"
);
}
);
width = 1000;
}
);
unicode = 3072;
},
{
glyphname = "bi-hira";
lastChange = "2020-03-22 15:08:02 +0000";
layers = (
{
anchors = (
{
name = LSB;
position = "{91.673, 380}";
},
{
name = RSB;
position = "{1039.327, 380}";
}
);
layerId = "BE1754C0-A605-45AC-AA12-D3A1FC0C380B";
paths = (
{
closed = 1;
nodes = (
"815 -38 OFFCURVE",
"696 466 OFFCURVE",
"695 476 CURVE SMOOTH",
"694 486 OFFCURVE",
"696 488 OFFCURVE",
"700 478 CURVE SMOOTH",
"735 399 OFFCURVE",
"758 356 OFFCURVE",
"796 316 CURVE SMOOTH",
"840 270 OFFCURVE",
"881 259 OFFCURVE",
"907 283 CURVE SMOOTH",
"934 308 OFFCURVE",
"919 354 OFFCURVE",
"866 395 CURVE SMOOTH",
"726 506 OFFCURVE",
"708 682 OFFCURVE",
"704 723 CURVE SMOOTH",
"700 764 OFFCURVE",
"675 788 OFFCURVE",
"639 788 CURVE SMOOTH",
"603 788 OFFCURVE",
"596 746 OFFCURVE",
"603 716 CURVE SMOOTH",
"611 685 OFFCURVE",
"629 652 OFFCURVE",
"640 606 CURVE",
"698 37 OFFCURVE",
"443 66 OFFCURVE",
"399 68 CURVE SMOOTH",
"338 71 OFFCURVE",
"238 104 OFFCURVE",
"239 248 CURVE SMOOTH",
"241 451 OFFCURVE",
"358 565 OFFCURVE",
"413 596 CURVE SMOOTH",
"455 619 OFFCURVE",
"483 630 OFFCURVE",
"481 657 CURVE SMOOTH",
"479 685 OFFCURVE",
"447 712 OFFCURVE",
"423 722 CURVE SMOOTH",
"400 731 OFFCURVE",
"354 689 OFFCURVE",
"319 679 CURVE SMOOTH",
"283 670 OFFCURVE",
"223 680 OFFCURVE",
"194 695 CURVE SMOOTH",
"154 715 OFFCURVE",
"155 703 OFFCURVE",
"176 644 CURVE SMOOTH",
"214 536 OFFCURVE",
"319 597 OFFCURVE",
"325 599 CURVE SMOOTH",
"332 600 OFFCURVE",
"332 598 OFFCURVE",
"329 595 CURVE SMOOTH",
"281 545 OFFCURVE",
"181 439 OFFCURVE",
"163 246 CURVE SMOOTH",
"148 78 OFFCURVE",
"266 -38 OFFCURVE",
"412 -38 CURVE SMOOTH"
);
},
{
closed = 1;
nodes = (
"858 645 OFFCURVE",
"888 659 OFFCURVE",
"875 706 CURVE SMOOTH",
"860 761 OFFCURVE",
"777 783 OFFCURVE",
"731 791 CURVE SMOOTH",
"713 794 OFFCURVE",
"711 790 OFFCURVE",
"722 781 CURVE SMOOTH",
"737 770 OFFCURVE",
"753 753 OFFCURVE",
"776 730 CURVE SMOOTH",
"814 687 OFFCURVE",
"809 664 OFFCURVE",
"836 653 CURVE SMOOTH"
);
},
{
closed = 1;
nodes = (
"957 728 OFFCURVE",
"983 748 OFFCURVE",
"961 791 CURVE SMOOTH",
"935 841 OFFCURVE",
"852 849 OFFCURVE",
"806 846 CURVE SMOOTH",
"785 845 OFFCURVE",
"785 841 OFFCURVE",
"795 836 CURVE SMOOTH",
"813 827 OFFCURVE",
"833 814 OFFCURVE",
"859 796 CURVE SMOOTH",
"898 767 OFFCURVE",
"906 736 OFFCURVE",
"934 732 CURVE SMOOTH"
);
}
);
width = 1000;
}
);
unicode = 3073;
},
{
glyphname = "pi-hira";
lastChange = "2020-03-22 15:08:02 +0000";
layers = (
{
anchors = (
{
name = LSB;
position = "{91.712, 380}";
},
{
name = RSB;
position = "{1050, 380}";
}
);
layerId = "BE1754C0-A605-45AC-AA12-D3A1FC0C380B";
paths = (
{
closed = 1;
nodes = (
"815 -39 OFFCURVE",
"696 465 OFFCURVE",
"695 475 CURVE SMOOTH",
"694 485 OFFCURVE",
"696 487 OFFCURVE",
"701 477 CURVE SMOOTH",
"735 398 OFFCURVE",
"758 355 OFFCURVE",
"797 315 CURVE SMOOTH",
"840 269 OFFCURVE",
"881 258 OFFCURVE",
"907 282 CURVE SMOOTH",
"934 307 OFFCURVE",
"919 353 OFFCURVE",
"867 394 CURVE SMOOTH",
"726 505 OFFCURVE",
"708 681 OFFCURVE",
"705 722 CURVE SMOOTH",
"701 763 OFFCURVE",
"675 787 OFFCURVE",
"640 787 CURVE SMOOTH",
"604 787 OFFCURVE",
"596 746 OFFCURVE",
"604 715 CURVE SMOOTH",
"611 684 OFFCURVE",
"629 651 OFFCURVE",
"641 605 CURVE",
"699 36 OFFCURVE",
"444 66 OFFCURVE",
"399 67 CURVE SMOOTH",
"338 70 OFFCURVE",
"238 103 OFFCURVE",
"239 247 CURVE SMOOTH",
"241 450 OFFCURVE",
"358 564 OFFCURVE",
"414 595 CURVE SMOOTH",
"455 618 OFFCURVE",
"483 629 OFFCURVE",
"481 656 CURVE SMOOTH",
"480 684 OFFCURVE",
"448 712 OFFCURVE",
"423 721 CURVE SMOOTH",
"400 730 OFFCURVE",
"354 688 OFFCURVE",
"319 679 CURVE SMOOTH",
"283 669 OFFCURVE",
"223 679 OFFCURVE",
"194 694 CURVE SMOOTH",
"155 714 OFFCURVE",
"156 702 OFFCURVE",
"176 643 CURVE SMOOTH",
"214 535 OFFCURVE",
"319 596 OFFCURVE",
"325 598 CURVE SMOOTH",
"332 599 OFFCURVE",
"332 597 OFFCURVE",
"329 594 CURVE SMOOTH",
"282 544 OFFCURVE",
"181 438 OFFCURVE",
"163 245 CURVE SMOOTH",
"148 77 OFFCURVE",
"266 -39 OFFCURVE",
"413 -39 CURVE SMOOTH"
);
},
{
closed = 1;
nodes = (
"933 571 OFFCURVE",
"980 617 OFFCURVE",
"980 677 CURVE SMOOTH",
"980 735 OFFCURVE",
"933 781 OFFCURVE",
"875 781 CURVE SMOOTH",
"817 781 OFFCURVE",
"771 734 OFFCURVE",
"771 677 CURVE SMOOTH",
"771 617 OFFCURVE",
"818 571 OFFCURVE",
"875 571 CURVE SMOOTH"
);
},
{
closed = 1;
nodes = (
"843 618 OFFCURVE",
"818 645 OFFCURVE",
"818 677 CURVE SMOOTH",
"818 708 OFFCURVE",
"843 734 OFFCURVE",
"875 734 CURVE SMOOTH",
"907 734 OFFCURVE",
"933 709 OFFCURVE",
"933 677 CURVE SMOOTH",
"933 645 OFFCURVE",
"908 618 OFFCURVE",
"875 618 CURVE SMOOTH"
);
}
);
width = 1000;
}
);
unicode = 3074;
},
{
glyphname = "hu-hira";
lastChange = "2020-03-22 15:08:02 +0000";
layers = (
{
anchors = (
{
name = LSB;
position = "{-4.072, 380}";
},
{
name = RSB;
position = "{1005.891, 380}";
}
);
layerId = "BE1754C0-A605-45AC-AA12-D3A1FC0C380B";
paths = (
{
closed = 1;
nodes = (
"473 50 OFFCURVE",
"621 13 OFFCURVE",
"640 121 CURVE SMOOTH",
"673 300 OFFCURVE",
"416 388 OFFCURVE",
"419 478 CURVE SMOOTH",
"420 532 OFFCURVE",
"526 548 OFFCURVE",
"561 552 CURVE SMOOTH",
"597 555 OFFCURVE",
"677 563 OFFCURVE",
"641 641 CURVE SMOOTH",
"607 716 OFFCURVE",
"515 718 OFFCURVE",
"445 756 CURVE SMOOTH",
"418 770 OFFCURVE",
"408 762 OFFCURVE",
"427 739 CURVE SMOOTH",
"458 703 OFFCURVE",
"473 702 OFFCURVE",
"493 668 CURVE SMOOTH",
"507 642 OFFCURVE",
"497 619 OFFCURVE",
"463 597 CURVE SMOOTH",
"430 576 OFFCURVE",
"363 526 OFFCURVE",
"363 469 CURVE SMOOTH",
"363 374 OFFCURVE",
"490 299 OFFCURVE",
"504 183 CURVE SMOOTH",
"514 105 OFFCURVE",
"439 128 OFFCURVE",
"371 136 CURVE SMOOTH",
"321 141 OFFCURVE",
"258 134 OFFCURVE",
"245 132 CURVE",
"242 100 LINE",
"309 99 OFFCURVE",
"385 80 OFFCURVE",
"429 64 CURVE SMOOTH"
);
},
{
closed = 1;
nodes = (
"228 32 OFFCURVE",
"281 109 OFFCURVE",
"352 158 CURVE SMOOTH",
"424 210 OFFCURVE",
"515 313 OFFCURVE",
"611 310 CURVE SMOOTH",
"706 307 OFFCURVE",
"799 209 OFFCURVE",
"821 143 CURVE SMOOTH",
"841 78 OFFCURVE",
"849 47 OFFCURVE",
"886 50 CURVE SMOOTH",
"922 53 OFFCURVE",
"954 115 OFFCURVE",
"924 179 CURVE SMOOTH",
"895 243 OFFCURVE",
"787 336 OFFCURVE",
"617 340 CURVE SMOOTH",
"446 343 OFFCURVE",
"278 151 OFFCURVE",
"204 151 CURVE SMOOTH",
"144 151 OFFCURVE",
"139 156 OFFCURVE",
"123 159 CURVE SMOOTH",
"94 165 OFFCURVE",
"47 162 OFFCURVE",
"74 110 CURVE SMOOTH",
"87 85 OFFCURVE",
"115 26 OFFCURVE",
"171 29 CURVE SMOOTH"
);
}
);
width = 1000;
}
);
unicode = 3075;
},
{
glyphname = "bu-hira";
lastChange = "2020-03-22 15:08:02 +0000";
layers = (
{
anchors = (
{
name = LSB;
position = "{-3.466, 380}";
},
{
name = RSB;
position = "{1057.253, 380}";
}
);
layerId = "BE1754C0-A605-45AC-AA12-D3A1FC0C380B";
paths = (
{
closed = 1;
nodes = (
"474 50 OFFCURVE",
"622 13 OFFCURVE",
"641 121 CURVE SMOOTH",
"674 300 OFFCURVE",
"417 388 OFFCURVE",
"420 478 CURVE SMOOTH",
"421 532 OFFCURVE",
"527 548 OFFCURVE",
"562 552 CURVE SMOOTH",
"597 555 OFFCURVE",
"678 563 OFFCURVE",
"642 641 CURVE SMOOTH",
"608 716 OFFCURVE",
"516 718 OFFCURVE",
"446 756 CURVE SMOOTH",
"419 770 OFFCURVE",
"409 762 OFFCURVE",
"428 739 CURVE SMOOTH",
"459 703 OFFCURVE",
"474 702 OFFCURVE",
"494 668 CURVE SMOOTH",
"508 642 OFFCURVE",
"498 619 OFFCURVE",
"464 597 CURVE SMOOTH",
"431 576 OFFCURVE",
"364 526 OFFCURVE",
"364 469 CURVE SMOOTH",
"364 374 OFFCURVE",
"491 299 OFFCURVE",
"505 183 CURVE SMOOTH",
"515 105 OFFCURVE",
"439 128 OFFCURVE",
"371 136 CURVE SMOOTH",
"322 141 OFFCURVE",
"259 134 OFFCURVE",
"245 132 CURVE",
"242 100 LINE",
"309 99 OFFCURVE",
"386 80 OFFCURVE",
"430 64 CURVE SMOOTH"
);
},
{
closed = 1;
nodes = (
"229 32 OFFCURVE",
"282 109 OFFCURVE",
"353 158 CURVE SMOOTH",
"425 210 OFFCURVE",
"516 313 OFFCURVE",
"612 310 CURVE SMOOTH",
"707 307 OFFCURVE",
"800 209 OFFCURVE",
"821 143 CURVE SMOOTH",
"842 78 OFFCURVE",
"850 47 OFFCURVE",
"886 50 CURVE SMOOTH",
"922 53 OFFCURVE",
"954 115 OFFCURVE",
"924 179 CURVE SMOOTH",
"896 243 OFFCURVE",
"788 336 OFFCURVE",
"618 340 CURVE SMOOTH",
"447 343 OFFCURVE",
"278 151 OFFCURVE",
"205 151 CURVE SMOOTH",
"144 151 OFFCURVE",
"140 156 OFFCURVE",
"124 159 CURVE SMOOTH",
"95 165 OFFCURVE",
"47 162 OFFCURVE",
"75 110 CURVE SMOOTH",
"88 85 OFFCURVE",
"115 26 OFFCURVE",
"172 29 CURVE SMOOTH"
);
},
{
closed = 1;
nodes = (
"887 459 OFFCURVE",
"922 483 OFFCURVE",
"900 530 CURVE SMOOTH",
"872 593 OFFCURVE",
"782 604 OFFCURVE",
"732 605 CURVE SMOOTH",
"714 605 OFFCURVE",
"715 602 OFFCURVE",
"727 594 CURVE SMOOTH",
"748 581 OFFCURVE",
"765 567 OFFCURVE",
"788 545 CURVE SMOOTH",
"833 504 OFFCURVE",
"828 475 OFFCURVE",
"862 467 CURVE SMOOTH"
);
},
{
closed = 1;
nodes = (
"975 576 OFFCURVE",
"1001 604 OFFCURVE",
"979 644 CURVE SMOOTH",
"948 698 OFFCURVE",
"856 713 OFFCURVE",
"807 707 CURVE SMOOTH",
"787 705 OFFCURVE",
"788 702 OFFCURVE",
"801 695 CURVE SMOOTH",
"821 685 OFFCURVE",
"850 665 OFFCURVE",
"867 651 CURVE SMOOTH",
"914 613 OFFCURVE",
"921 584 OFFCURVE",
"948 580 CURVE SMOOTH"
);
}
);
width = 1000;
}
);
unicode = 3076;
},
{
glyphname = "pu-hira";
lastChange = "2020-03-22 15:08:02 +0000";
layers = (
{
anchors = (
{
name = LSB;
position = "{-4.072, 380}";
},
{
name = RSB;
position = "{1005.891, 380}";
}
);
layerId = "BE1754C0-A605-45AC-AA12-D3A1FC0C380B";
paths = (
{
closed = 1;
nodes = (
"473 50 OFFCURVE",
"621 13 OFFCURVE",
"640 121 CURVE SMOOTH",
"673 300 OFFCURVE",
"416 388 OFFCURVE",
"419 478 CURVE SMOOTH",
"420 532 OFFCURVE",
"526 548 OFFCURVE",
"561 552 CURVE SMOOTH",
"597 555 OFFCURVE",
"677 563 OFFCURVE",
"641 641 CURVE SMOOTH",
"607 716 OFFCURVE",
"515 718 OFFCURVE",
"445 756 CURVE SMOOTH",
"418 770 OFFCURVE",
"408 762 OFFCURVE",
"427 739 CURVE SMOOTH",
"458 703 OFFCURVE",
"473 702 OFFCURVE",
"493 668 CURVE SMOOTH",
"507 642 OFFCURVE",
"497 619 OFFCURVE",
"463 597 CURVE SMOOTH",
"430 576 OFFCURVE",
"363 526 OFFCURVE",
"363 469 CURVE SMOOTH",
"363 374 OFFCURVE",
"490 299 OFFCURVE",
"504 183 CURVE SMOOTH",
"514 105 OFFCURVE",
"439 128 OFFCURVE",
"371 136 CURVE SMOOTH",
"321 141 OFFCURVE",
"258 134 OFFCURVE",
"245 132 CURVE",
"242 100 LINE",
"309 99 OFFCURVE",
"385 80 OFFCURVE",
"429 64 CURVE SMOOTH"
);
},
{
closed = 1;
nodes = (
"228 32 OFFCURVE",
"281 109 OFFCURVE",
"352 158 CURVE SMOOTH",
"424 210 OFFCURVE",
"515 313 OFFCURVE",
"611 310 CURVE SMOOTH",
"706 307 OFFCURVE",
"799 209 OFFCURVE",
"821 143 CURVE SMOOTH",
"841 78 OFFCURVE",
"849 47 OFFCURVE",
"886 50 CURVE SMOOTH",
"922 53 OFFCURVE",
"954 115 OFFCURVE",
"924 179 CURVE SMOOTH",
"895 243 OFFCURVE",
"787 336 OFFCURVE",
"617 340 CURVE SMOOTH",
"446 343 OFFCURVE",
"278 151 OFFCURVE",
"204 151 CURVE SMOOTH",
"144 151 OFFCURVE",
"139 156 OFFCURVE",
"123 159 CURVE SMOOTH",
"94 165 OFFCURVE",
"47 162 OFFCURVE",
"74 110 CURVE SMOOTH",
"87 85 OFFCURVE",
"115 26 OFFCURVE",
"171 29 CURVE SMOOTH"
);
},
{
closed = 1;
nodes = (
"885 432 OFFCURVE",
"931 479 OFFCURVE",
"931 537 CURVE SMOOTH",
"931 596 OFFCURVE",
"884 642 OFFCURVE",
"827 642 CURVE SMOOTH",
"769 642 OFFCURVE",
"722 596 OFFCURVE",
"722 537 CURVE SMOOTH",
"722 478 OFFCURVE",
"769 432 OFFCURVE",
"827 432 CURVE SMOOTH"
);
},
{
closed = 1;
nodes = (
"795 479 OFFCURVE",
"769 505 OFFCURVE",
"769 537 CURVE SMOOTH",
"769 570 OFFCURVE",
"795 595 OFFCURVE",
"827 595 CURVE SMOOTH",
"858 595 OFFCURVE",
"884 570 OFFCURVE",
"884 537 CURVE SMOOTH",
"884 506 OFFCURVE",
"859 479 OFFCURVE",
"827 479 CURVE SMOOTH"
);
}
);
width = 1000;
}
);
unicode = 3077;
},
{
glyphname = "he-hira";
lastChange = "2020-03-22 15:08:02 +0000";
layers = (
{
anchors = (
{
name = LSB;
position = "{-1.394, 380}";
},
{
name = RSB;
position = "{1006.166, 380}";
}
);
layerId = "BE1754C0-A605-45AC-AA12-D3A1FC0C380B";
paths = (
{
closed = 1;
nodes = (
"880 152 OFFCURVE",
"919 170 OFFCURVE",
"932 197 CURVE SMOOTH",
"947 226 OFFCURVE",
"920 267 OFFCURVE",
"875 282 CURVE SMOOTH",
"705 341 OFFCURVE",
"553 466 OFFCURVE",
"470 535 CURVE SMOOTH",
"423 573 OFFCURVE",
"382 573 OFFCURVE",
"335 535 CURVE SMOOTH",
"290 501 OFFCURVE",
"249 466 OFFCURVE",
"178 401 CURVE SMOOTH",
"153 380 OFFCURVE",
"121 372 OFFCURVE",
"90 381 CURVE SMOOTH",
"60 392 OFFCURVE",
"66 362 OFFCURVE",
"81 340 CURVE",
"119 275 OFFCURVE",
"183 268 OFFCURVE",
"208 281 CURVE SMOOTH",
"230 291 OFFCURVE",
"248 316 OFFCURVE",
"270 348 CURVE SMOOTH",
"301 393 OFFCURVE",
"334 431 OFFCURVE",
"360 455 CURVE SMOOTH",
"390 483 OFFCURVE",
"416 481 OFFCURVE",
"449 450 CURVE SMOOTH",
"590 316 OFFCURVE",
"752 203 OFFCURVE",
"807 181 CURVE SMOOTH"
);
}
);
width = 1000;
}
);
unicode = 3078;
},
{
glyphname = "be-hira";
lastChange = "2020-03-22 15:08:02 +0000";
layers = (
{
anchors = (
{
name = LSB;
position = "{-1.645, 380}";
},
{
name = RSB;
position = "{1005.173, 380}";
}
);
layerId = "BE1754C0-A605-45AC-AA12-D3A1FC0C380B";
paths = (
{
closed = 1;
nodes = (
"868 158 OFFCURVE",
"916 166 OFFCURVE",
"931 199 CURVE SMOOTH",
"946 228 OFFCURVE",
"919 269 OFFCURVE",
"875 284 CURVE SMOOTH",
"705 343 OFFCURVE",
"552 468 OFFCURVE",
"469 537 CURVE SMOOTH",
"422 575 OFFCURVE",
"382 575 OFFCURVE",
"334 537 CURVE SMOOTH",
"290 503 OFFCURVE",
"248 468 OFFCURVE",
"178 403 CURVE SMOOTH",
"154 381 OFFCURVE",
"120 374 OFFCURVE",
"89 383 CURVE SMOOTH",
"60 393 OFFCURVE",
"66 364 OFFCURVE",
"80 342 CURVE SMOOTH",
"118 277 OFFCURVE",
"182 270 OFFCURVE",
"207 283 CURVE SMOOTH",
"229 293 OFFCURVE",
"247 317 OFFCURVE",
"269 349 CURVE SMOOTH",
"301 395 OFFCURVE",
"334 433 OFFCURVE",
"359 457 CURVE SMOOTH",
"389 485 OFFCURVE",
"416 483 OFFCURVE",
"449 452 CURVE SMOOTH",
"589 317 OFFCURVE",
"751 205 OFFCURVE",
"807 183 CURVE SMOOTH"
);
},
{
closed = 1;
nodes = (
"799 456 OFFCURVE",
"830 477 OFFCURVE",
"809 526 CURVE SMOOTH",
"786 582 OFFCURVE",
"696 597 OFFCURVE",
"644 602 CURVE SMOOTH",
"616 605 OFFCURVE",
"620 598 OFFCURVE",
"632 591 CURVE SMOOTH",
"650 579 OFFCURVE",
"671 564 OFFCURVE",
"697 541 CURVE SMOOTH",
"744 500 OFFCURVE",
"745 474 OFFCURVE",
"772 465 CURVE SMOOTH"
);
},
{
closed = 1;
nodes = (
"917 562 OFFCURVE",
"945 583 OFFCURVE",
"923 627 CURVE SMOOTH",
"897 677 OFFCURVE",
"815 686 OFFCURVE",
"767 689 CURVE SMOOTH",
"746 690 OFFCURVE",
"748 683 OFFCURVE",
"759 678 CURVE SMOOTH",
"777 669 OFFCURVE",
"795 658 OFFCURVE",
"821 637 CURVE SMOOTH",
"866 601 OFFCURVE",
"867 573 OFFCURVE",
"894 567 CURVE SMOOTH"
);
}
);
width = 1000;
}
);
unicode = 3079;
},
{
glyphname = "pe-hira";
lastChange = "2020-03-22 15:08:02 +0000";
layers = (
{
anchors = (
{
name = LSB;
position = "{-1.18, 380}";
},
{
name = RSB;
position = "{1006.087, 380}";
}
);
layerId = "BE1754C0-A605-45AC-AA12-D3A1FC0C380B";
paths = (
{
closed = 1;
nodes = (
"880 152 OFFCURVE",
"918 170 OFFCURVE",
"932 197 CURVE SMOOTH",
"947 226 OFFCURVE",
"919 267 OFFCURVE",
"876 282 CURVE SMOOTH",
"705 341 OFFCURVE",
"553 466 OFFCURVE",
"469 535 CURVE SMOOTH",
"423 573 OFFCURVE",
"382 573 OFFCURVE",
"335 535 CURVE SMOOTH",
"290 501 OFFCURVE",
"249 466 OFFCURVE",
"177 401 CURVE SMOOTH",
"153 380 OFFCURVE",
"121 372 OFFCURVE",
"90 381 CURVE SMOOTH",
"61 392 OFFCURVE",
"66 362 OFFCURVE",
"80 340 CURVE SMOOTH",
"119 275 OFFCURVE",
"183 268 OFFCURVE",
"207 281 CURVE SMOOTH",
"230 291 OFFCURVE",
"248 316 OFFCURVE",
"270 348 CURVE SMOOTH",
"301 393 OFFCURVE",
"334 431 OFFCURVE",
"360 455 CURVE SMOOTH",
"390 483 OFFCURVE",
"416 481 OFFCURVE",
"449 450 CURVE SMOOTH",
"590 316 OFFCURVE",
"752 203 OFFCURVE",
"807 181 CURVE SMOOTH"
);
},
{
closed = 1;
nodes = (
"783 494 OFFCURVE",
"830 541 OFFCURVE",
"830 598 CURVE SMOOTH",
"830 656 OFFCURVE",
"783 703 OFFCURVE",
"724 703 CURVE SMOOTH",
"666 703 OFFCURVE",
"619 656 OFFCURVE",
"619 598 CURVE SMOOTH",
"619 540 OFFCURVE",
"667 494 OFFCURVE",
"724 494 CURVE SMOOTH"
);
},
{
closed = 1;
nodes = (
"693 541 OFFCURVE",
"667 566 OFFCURVE",
"667 598 CURVE SMOOTH",
"667 629 OFFCURVE",
"692 656 OFFCURVE",
"724 656 CURVE SMOOTH",
"755 656 OFFCURVE",
"781 630 OFFCURVE",
"781 598 CURVE SMOOTH",
"781 567 OFFCURVE",
"756 541 OFFCURVE",
"724 541 CURVE SMOOTH"
);
}
);
width = 1000;
}
);
unicode = 307A;
},
{
glyphname = "ho-hira";
lastChange = "2020-03-22 15:08:02 +0000";
layers = (
{
anchors = (
{
name = LSB;
position = "{43.087, 380}";
},
{
name = RSB;
position = "{968.681, 380}";
}
);
layerId = "BE1754C0-A605-45AC-AA12-D3A1FC0C380B";
paths = (
{
closed = 1;
nodes = (
"671 -20 OFFCURVE",
"741 48 OFFCURVE",
"737 119 CURVE SMOOTH",
"733 191 OFFCURVE",
"714 247 OFFCURVE",
"710 347 CURVE SMOOTH",
"708 415 OFFCURVE",
"704 502 OFFCURVE",
"707 523 CURVE SMOOTH",
"709 543 OFFCURVE",
"723 552 OFFCURVE",
"718 576 CURVE SMOOTH",
"714 603 OFFCURVE",
"680 638 OFFCURVE",
"631 635 CURVE SMOOTH",
"587 632 OFFCURVE",
"562 618 OFFCURVE",
"582 608 CURVE SMOOTH",
"608 596 OFFCURVE",
"619 583 OFFCURVE",
"623 560 CURVE SMOOTH",
"627 534 OFFCURVE",
"644 300 OFFCURVE",
"646 260 CURVE SMOOTH",
"649 220 OFFCURVE",
"662 145 OFFCURVE",
"650 106 CURVE SMOOTH",
"641 74 OFFCURVE",
"607 54 OFFCURVE",
"553 51 CURVE SMOOTH",
"512 48 OFFCURVE",
"473 66 OFFCURVE",
"473 90 CURVE SMOOTH",
"473 113 OFFCURVE",
"512 134 OFFCURVE",
"559 137 CURVE SMOOTH",
"604 140 OFFCURVE",
"708 124 OFFCURVE",
"777 44 CURVE SMOOTH",
"817 -1 OFFCURVE",
"861 -19 OFFCURVE",
"885 1 CURVE SMOOTH",
"908 20 OFFCURVE",
"902 54 OFFCURVE",
"867 93 CURVE SMOOTH",
"831 133 OFFCURVE",
"717 218 OFFCURVE",
"547 198 CURVE SMOOTH",
"425 183 OFFCURVE",
"399 114 OFFCURVE",
"399 84 CURVE SMOOTH",
"399 43 OFFCURVE",
"450 -20 OFFCURVE",
"559 -20 CURVE SMOOTH"
);
},
{
closed = 1;
nodes = (
"280 -3 OFFCURVE",
"284 22 OFFCURVE",
"266 85 CURVE SMOOTH",
"247 159 OFFCURVE",
"282 337 OFFCURVE",
"304 405 CURVE SMOOTH",
"316 441 OFFCURVE",
"299 430 OFFCURVE",
"289 406 CURVE SMOOTH",
"279 383 OFFCURVE",
"236 295 OFFCURVE",
"217 223 CURVE SMOOTH",
"204 178 OFFCURVE",
"193 180 OFFCURVE",
"187 225 CURVE SMOOTH",
"179 272 OFFCURVE",
"187 354 OFFCURVE",
"204 407 CURVE SMOOTH",
"222 461 OFFCURVE",
"300 593 OFFCURVE",
"296 648 CURVE SMOOTH",
"293 703 OFFCURVE",
"256 753 OFFCURVE",
"199 777 CURVE SMOOTH",
"149 799 OFFCURVE",
"155 788 OFFCURVE",
"163 777 CURVE SMOOTH",
"189 745 OFFCURVE",
"203 695 OFFCURVE",
"199 659 CURVE SMOOTH",
"195 623 OFFCURVE",
"103 378 OFFCURVE",
"114 232 CURVE SMOOTH",
"125 87 OFFCURVE",
"185 -50 OFFCURVE",
"249 -18 CURVE SMOOTH"
);
},
{
closed = 1;
nodes = (
"596 365 OFFCURVE",
"740 408 OFFCURVE",
"797 436 CURVE SMOOTH",
"840 457 OFFCURVE",
"862 486 OFFCURVE",
"851 516 CURVE SMOOTH",
"843 536 OFFCURVE",
"809 535 OFFCURVE",
"791 538 CURVE SMOOTH",
"761 542 OFFCURVE",
"748 551 OFFCURVE",
"726 558 CURVE SMOOTH",
"690 569 OFFCURVE",
"691 569 OFFCURVE",
"731 537 CURVE SMOOTH",
"747 524 OFFCURVE",
"747 506 OFFCURVE",
"730 497 CURVE SMOOTH",
"698 480 OFFCURVE",
"566 457 OFFCURVE",
"526 454 CURVE SMOOTH",
"486 452 OFFCURVE",
"475 449 OFFCURVE",
"438 464 CURVE SMOOTH",
"414 473 OFFCURVE",
"410 467 OFFCURVE",
"422 447 CURVE SMOOTH",
"437 423 OFFCURVE",
"466 399 OFFCURVE",
"513 387 CURVE SMOOTH"
);
},
{
closed = 1;
nodes = (
"588 626 OFFCURVE",
"711 669 OFFCURVE",
"742 682 CURVE SMOOTH",
"759 688 OFFCURVE",
"785 703 OFFCURVE",
"777 731 CURVE SMOOTH",
"770 762 OFFCURVE",
"739 775 OFFCURVE",
"699 761 CURVE SMOOTH",
"655 747 OFFCURVE",
"597 728 OFFCURVE",
"558 732 CURVE SMOOTH",
"521 736 OFFCURVE",
"500 742 OFFCURVE",
"482 754 CURVE SMOOTH",
"467 764 OFFCURVE",
"463 760 OFFCURVE",
"469 743 CURVE SMOOTH",
"479 718 OFFCURVE",
"488 704 OFFCURVE",
"519 681 CURVE SMOOTH"
);
}
);
width = 1000;
}
);
unicode = 307B;
},
{
glyphname = "bo-hira";
lastChange = "2020-03-22 15:08:02 +0000";
layers = (
{
anchors = (
{
name = LSB;
position = "{15.241, 380}";
},
{
name = RSB;
position = "{1066.389, 380}";
}
);
layerId = "BE1754C0-A605-45AC-AA12-D3A1FC0C380B";
paths = (
{
closed = 1;
nodes = (
"643 -20 OFFCURVE",
"713 48 OFFCURVE",
"709 119 CURVE SMOOTH",
"705 191 OFFCURVE",
"687 247 OFFCURVE",
"683 347 CURVE SMOOTH",
"680 415 OFFCURVE",
"676 502 OFFCURVE",
"679 523 CURVE SMOOTH",
"682 543 OFFCURVE",
"695 552 OFFCURVE",
"690 576 CURVE SMOOTH",
"687 603 OFFCURVE",
"653 638 OFFCURVE",
"603 635 CURVE SMOOTH",
"560 632 OFFCURVE",
"534 618 OFFCURVE",
"555 608 CURVE SMOOTH",
"580 596 OFFCURVE",
"592 583 OFFCURVE",
"595 560 CURVE SMOOTH",
"599 534 OFFCURVE",
"616 300 OFFCURVE",
"619 260 CURVE SMOOTH",
"622 220 OFFCURVE",
"634 145 OFFCURVE",
"623 106 CURVE SMOOTH",
"613 74 OFFCURVE",
"579 54 OFFCURVE",
"526 51 CURVE SMOOTH",
"484 48 OFFCURVE",
"445 66 OFFCURVE",
"445 90 CURVE SMOOTH",
"445 113 OFFCURVE",
"484 134 OFFCURVE",
"531 137 CURVE SMOOTH",
"576 140 OFFCURVE",
"680 124 OFFCURVE",
"750 44 CURVE SMOOTH",
"789 -1 OFFCURVE",
"833 -19 OFFCURVE",
"857 1 CURVE SMOOTH",
"881 20 OFFCURVE",
"874 54 OFFCURVE",
"839 93 CURVE SMOOTH",
"803 133 OFFCURVE",
"690 218 OFFCURVE",
"520 198 CURVE SMOOTH",
"398 183 OFFCURVE",
"371 114 OFFCURVE",
"371 84 CURVE SMOOTH",
"371 43 OFFCURVE",
"422 -20 OFFCURVE",
"531 -20 CURVE SMOOTH"
);
},
{
closed = 1;
nodes = (
"252 -3 OFFCURVE",
"256 22 OFFCURVE",
"238 85 CURVE SMOOTH",
"219 159 OFFCURVE",
"254 337 OFFCURVE",
"276 405 CURVE SMOOTH",
"288 441 OFFCURVE",
"271 430 OFFCURVE",
"262 406 CURVE SMOOTH",
"251 383 OFFCURVE",
"208 295 OFFCURVE",
"189 223 CURVE SMOOTH",
"176 178 OFFCURVE",
"166 180 OFFCURVE",
"159 225 CURVE SMOOTH",
"151 272 OFFCURVE",
"159 354 OFFCURVE",
"176 407 CURVE SMOOTH",
"194 461 OFFCURVE",
"272 593 OFFCURVE",
"269 648 CURVE SMOOTH",
"266 703 OFFCURVE",
"228 753 OFFCURVE",
"172 777 CURVE SMOOTH",
"121 799 OFFCURVE",
"127 788 OFFCURVE",
"136 777 CURVE SMOOTH",
"161 745 OFFCURVE",
"175 695 OFFCURVE",
"172 659 CURVE SMOOTH",
"168 623 OFFCURVE",
"76 378 OFFCURVE",
"86 232 CURVE SMOOTH",
"97 87 OFFCURVE",
"157 -50 OFFCURVE",
"221 -18 CURVE SMOOTH"
);
},
{
closed = 1;
nodes = (
"568 365 OFFCURVE",
"712 408 OFFCURVE",
"769 436 CURVE SMOOTH",
"813 457 OFFCURVE",
"834 486 OFFCURVE",
"823 516 CURVE SMOOTH",
"816 536 OFFCURVE",
"782 535 OFFCURVE",
"763 538 CURVE SMOOTH",
"733 542 OFFCURVE",
"721 551 OFFCURVE",
"698 558 CURVE SMOOTH",
"662 569 OFFCURVE",
"663 569 OFFCURVE",
"703 537 CURVE SMOOTH",
"720 524 OFFCURVE",
"720 506 OFFCURVE",
"702 497 CURVE SMOOTH",
"670 480 OFFCURVE",
"538 457 OFFCURVE",
"498 454 CURVE SMOOTH",
"459 452 OFFCURVE",
"447 449 OFFCURVE",
"410 464 CURVE SMOOTH",
"386 473 OFFCURVE",
"382 467 OFFCURVE",
"395 447 CURVE SMOOTH",
"409 423 OFFCURVE",
"438 399 OFFCURVE",
"485 387 CURVE SMOOTH"
);
},
{
closed = 1;
nodes = (
"561 626 OFFCURVE",
"684 669 OFFCURVE",
"715 682 CURVE SMOOTH",
"731 688 OFFCURVE",
"757 703 OFFCURVE",
"750 731 CURVE SMOOTH",
"742 762 OFFCURVE",
"711 775 OFFCURVE",
"671 761 CURVE SMOOTH",
"627 747 OFFCURVE",
"569 728 OFFCURVE",
"530 732 CURVE SMOOTH",
"494 736 OFFCURVE",
"472 742 OFFCURVE",
"454 754 CURVE SMOOTH",
"439 764 OFFCURVE",
"435 760 OFFCURVE",
"441 743 CURVE SMOOTH",
"451 718 OFFCURVE",
"461 704 OFFCURVE",
"492 681 CURVE SMOOTH"
);
},
{
closed = 1;
nodes = (
"914 518 OFFCURVE",
"943 539 OFFCURVE",
"924 583 CURVE SMOOTH",
"899 642 OFFCURVE",
"808 655 OFFCURVE",
"762 660 CURVE SMOOTH",
"742 662 OFFCURVE",
"741 656 OFFCURVE",
"753 650 CURVE SMOOTH",
"773 638 OFFCURVE",
"797 619 OFFCURVE",
"818 597 CURVE SMOOTH",
"860 553 OFFCURVE",
"857 528 OFFCURVE",
"887 523 CURVE SMOOTH"
);
},
{
closed = 1;
nodes = (
"985 619 OFFCURVE",
"1010 642 OFFCURVE",
"988 686 CURVE SMOOTH",
"961 740 OFFCURVE",
"869 750 OFFCURVE",
"819 753 CURVE SMOOTH",
"801 754 OFFCURVE",
"799 748 OFFCURVE",
"813 741 CURVE SMOOTH",
"832 730 OFFCURVE",
"853 716 OFFCURVE",
"880 695 CURVE SMOOTH",
"927 658 OFFCURVE",
"927 628 OFFCURVE",
"956 624 CURVE SMOOTH"
);
}
);
width = 1000;
}
);
unicode = 307C;
},
{
glyphname = "po-hira";
lastChange = "2020-03-22 15:08:02 +0000";
layers = (
{
anchors = (
{
name = LSB;
position = "{35.241, 380}";
},
{
name = RSB;
position = "{1068, 380}";
}
);
layerId = "BE1754C0-A605-45AC-AA12-D3A1FC0C380B";
paths = (
{
closed = 1;
nodes = (
"663 -20 OFFCURVE",
"733 48 OFFCURVE",
"729 119 CURVE SMOOTH",
"725 191 OFFCURVE",
"707 247 OFFCURVE",
"703 347 CURVE SMOOTH",
"700 415 OFFCURVE",
"696 502 OFFCURVE",
"699 523 CURVE SMOOTH",
"702 543 OFFCURVE",
"715 552 OFFCURVE",
"711 576 CURVE SMOOTH",
"707 603 OFFCURVE",
"673 638 OFFCURVE",
"623 635 CURVE SMOOTH",
"580 632 OFFCURVE",
"554 618 OFFCURVE",
"575 608 CURVE SMOOTH",
"600 596 OFFCURVE",
"612 583 OFFCURVE",
"615 560 CURVE SMOOTH",
"619 534 OFFCURVE",
"636 300 OFFCURVE",
"639 260 CURVE SMOOTH",
"642 220 OFFCURVE",
"654 145 OFFCURVE",
"643 106 CURVE SMOOTH",
"633 74 OFFCURVE",
"599 54 OFFCURVE",
"546 51 CURVE SMOOTH",
"504 48 OFFCURVE",
"465 66 OFFCURVE",
"465 90 CURVE SMOOTH",
"465 113 OFFCURVE",
"504 134 OFFCURVE",
"551 137 CURVE SMOOTH",
"596 140 OFFCURVE",
"700 124 OFFCURVE",
"770 44 CURVE SMOOTH",
"809 -1 OFFCURVE",
"853 -19 OFFCURVE",
"877 1 CURVE SMOOTH",
"901 20 OFFCURVE",
"894 54 OFFCURVE",
"859 93 CURVE SMOOTH",
"823 133 OFFCURVE",
"710 218 OFFCURVE",
"540 198 CURVE SMOOTH",
"418 183 OFFCURVE",
"391 114 OFFCURVE",
"391 84 CURVE SMOOTH",
"391 43 OFFCURVE",
"442 -20 OFFCURVE",
"551 -20 CURVE SMOOTH"
);
},
{
closed = 1;
nodes = (
"272 -3 OFFCURVE",
"276 22 OFFCURVE",
"259 85 CURVE SMOOTH",
"239 159 OFFCURVE",
"274 337 OFFCURVE",
"296 405 CURVE SMOOTH",
"308 441 OFFCURVE",
"292 430 OFFCURVE",
"282 406 CURVE SMOOTH",
"271 383 OFFCURVE",
"228 295 OFFCURVE",
"209 223 CURVE SMOOTH",
"196 178 OFFCURVE",
"186 180 OFFCURVE",
"179 225 CURVE SMOOTH",
"171 272 OFFCURVE",
"179 354 OFFCURVE",
"196 407 CURVE SMOOTH",
"214 461 OFFCURVE",
"292 593 OFFCURVE",
"289 648 CURVE SMOOTH",
"286 703 OFFCURVE",
"248 753 OFFCURVE",
"192 777 CURVE SMOOTH",
"141 799 OFFCURVE",
"147 788 OFFCURVE",
"156 777 CURVE SMOOTH",
"181 745 OFFCURVE",
"195 695 OFFCURVE",
"192 659 CURVE SMOOTH",
"188 623 OFFCURVE",
"96 378 OFFCURVE",
"106 232 CURVE SMOOTH",
"117 87 OFFCURVE",
"177 -50 OFFCURVE",
"241 -18 CURVE SMOOTH"
);
},
{
closed = 1;
nodes = (
"588 365 OFFCURVE",
"732 408 OFFCURVE",
"789 436 CURVE SMOOTH",
"833 457 OFFCURVE",
"854 486 OFFCURVE",
"843 516 CURVE SMOOTH",
"836 536 OFFCURVE",
"802 535 OFFCURVE",
"783 538 CURVE SMOOTH",
"753 542 OFFCURVE",
"741 551 OFFCURVE",
"718 558 CURVE SMOOTH",
"682 569 OFFCURVE",
"683 569 OFFCURVE",
"723 537 CURVE SMOOTH",
"740 524 OFFCURVE",
"740 506 OFFCURVE",
"722 497 CURVE SMOOTH",
"690 480 OFFCURVE",
"558 457 OFFCURVE",
"518 454 CURVE SMOOTH",
"479 452 OFFCURVE",
"467 449 OFFCURVE",
"430 464 CURVE SMOOTH",
"406 473 OFFCURVE",
"402 467 OFFCURVE",
"415 447 CURVE SMOOTH",
"429 423 OFFCURVE",
"458 399 OFFCURVE",
"505 387 CURVE SMOOTH"
);
},
{
closed = 1;
nodes = (
"581 626 OFFCURVE",
"704 669 OFFCURVE",
"735 682 CURVE SMOOTH",
"751 688 OFFCURVE",
"777 703 OFFCURVE",
"770 731 CURVE SMOOTH",
"762 762 OFFCURVE",
"731 775 OFFCURVE",
"691 761 CURVE SMOOTH",
"648 747 OFFCURVE",
"589 728 OFFCURVE",
"551 732 CURVE SMOOTH",
"514 736 OFFCURVE",
"492 742 OFFCURVE",
"474 754 CURVE SMOOTH",
"459 764 OFFCURVE",
"455 760 OFFCURVE",
"461 743 CURVE SMOOTH",
"471 718 OFFCURVE",
"481 704 OFFCURVE",
"512 681 CURVE SMOOTH"
);
},
{
closed = 1;
nodes = (
"951 550 OFFCURVE",
"998 597 OFFCURVE",
"998 655 CURVE SMOOTH",
"998 714 OFFCURVE",
"950 760 OFFCURVE",
"892 760 CURVE SMOOTH",
"835 760 OFFCURVE",
"787 714 OFFCURVE",
"787 655 CURVE SMOOTH",
"787 596 OFFCURVE",
"835 550 OFFCURVE",
"892 550 CURVE SMOOTH"
);
},
{
closed = 1;
nodes = (
"861 597 OFFCURVE",
"835 623 OFFCURVE",
"835 655 CURVE SMOOTH",
"835 687 OFFCURVE",
"860 713 OFFCURVE",
"892 713 CURVE SMOOTH",
"923 713 OFFCURVE",
"950 687 OFFCURVE",
"950 655 CURVE SMOOTH",
"950 623 OFFCURVE",
"924 597 OFFCURVE",
"892 597 CURVE SMOOTH"
);
}
);
width = 1000;
}
);
unicode = 307D;
},
{
glyphname = "ma-hira";
lastChange = "2020-03-22 15:08:02 +0000";
layers = (
{
anchors = (
{
name = LSB;
position = "{135.812, 380}";
},
{
name = RSB;
position = "{826.876, 380}";
}
);
layerId = "BE1754C0-A605-45AC-AA12-D3A1FC0C380B";
paths = (
{
closed = 1;
nodes = (
"479 -42 OFFCURVE",
"575 4 OFFCURVE",
"575 114 CURVE SMOOTH",
"575 225 OFFCURVE",
"535 354 OFFCURVE",
"536 477 CURVE SMOOTH",
"537 561 OFFCURVE",
"544 626 OFFCURVE",
"570 703 CURVE SMOOTH",
"591 765 OFFCURVE",
"582 783 OFFCURVE",
"552 815 CURVE SMOOTH",
"520 850 OFFCURVE",
"470 844 OFFCURVE",
"453 837 CURVE SMOOTH",
"424 828 OFFCURVE",
"423 822 OFFCURVE",
"446 811 CURVE SMOOTH",
"469 800 OFFCURVE",
"483 768 OFFCURVE",
"485 725 CURVE SMOOTH",
"486 678 OFFCURVE",
"454 532 OFFCURVE",
"459 387 CURVE SMOOTH",
"463 264 OFFCURVE",
"484 207 OFFCURVE",
"479 141 CURVE SMOOTH",
"476 98 OFFCURVE",
"466 36 OFFCURVE",
"385 34 CURVE SMOOTH",
"336 33 OFFCURVE",
"296 47 OFFCURVE",
"290 68 CURVE SMOOTH",
"281 92 OFFCURVE",
"324 128 OFFCURVE",
"411 129 CURVE SMOOTH",
"497 130 OFFCURVE",
"598 68 OFFCURVE",
"647 7 CURVE SMOOTH",
"679 -32 OFFCURVE",
"717 -43 OFFCURVE",
"742 -23 CURVE SMOOTH",
"754 -12 OFFCURVE",
"778 31 OFFCURVE",
"717 90 CURVE SMOOTH",
"656 148 OFFCURVE",
"513 203 OFFCURVE",
"407 198 CURVE SMOOTH",
"291 192 OFFCURVE",
"213 144 OFFCURVE",
"213 70 CURVE SMOOTH",
"213 -4 OFFCURVE",
"312 -52 OFFCURVE",
"399 -47 CURVE SMOOTH"
);
},
{
closed = 1;
nodes = (
"394 293 OFFCURVE",
"557 338 OFFCURVE",
"625 356 CURVE SMOOTH",
"688 374 OFFCURVE",
"722 402 OFFCURVE",
"732 445 CURVE SMOOTH",
"740 478 OFFCURVE",
"716 500 OFFCURVE",
"673 500 CURVE SMOOTH",
"640 500 OFFCURVE",
"624 510 OFFCURVE",
"594 527 CURVE SMOOTH",
"570 541 OFFCURVE",
"569 540 OFFCURVE",
"577 517 CURVE SMOOTH",
"581 507 OFFCURVE",
"587 493 OFFCURVE",
"599 479 CURVE SMOOTH",
"616 458 OFFCURVE",
"596 448 OFFCURVE",
"572 438 CURVE SMOOTH",
"542 424 OFFCURVE",
"410 397 OFFCURVE",
"348 399 CURVE SMOOTH",
"310 400 OFFCURVE",
"256 414 OFFCURVE",
"223 444 CURVE SMOOTH",
"205 459 OFFCURVE",
"202 456 OFFCURVE",
"210 422 CURVE SMOOTH",
"226 353 OFFCURVE",
"279 327 OFFCURVE",
"324 314 CURVE SMOOTH"
);
},
{
closed = 1;
nodes = (
"490 528 OFFCURVE",
"608 577 OFFCURVE",
"643 597 CURVE SMOOTH",
"698 628 OFFCURVE",
"652 668 OFFCURVE",
"629 672 CURVE SMOOTH",
"592 677 OFFCURVE",
"498 635 OFFCURVE",
"438 635 CURVE SMOOTH",
"393 635 OFFCURVE",
"361 646 OFFCURVE",
"338 671 CURVE SMOOTH",
"321 689 OFFCURVE",
"314 684 OFFCURVE",
"323 657 CURVE SMOOTH",
"334 620 OFFCURVE",
"344 589 OFFCURVE",
"414 560 CURVE SMOOTH"
);
}
);
width = 1000;
}
);
unicode = 307E;
},
{
glyphname = "mi-hira";
lastChange = "2020-03-22 15:08:02 +0000";
layers = (
{
anchors = (
{
name = LSB;
position = "{37.656, 380}";
},
{
name = RSB;
position = "{1014.686, 380}";
}
);
layerId = "BE1754C0-A605-45AC-AA12-D3A1FC0C380B";
paths = (
{
closed = 1;
nodes = (
"167 53 OFFCURVE",
"230 50 OFFCURVE",
"270 97 CURVE SMOOTH",
"340 181 OFFCURVE",
"402 353 OFFCURVE",
"490 478 CURVE SMOOTH",
"547 558 OFFCURVE",
"597 607 OFFCURVE",
"626 655 CURVE SMOOTH",
"645 687 OFFCURVE",
"625 721 OFFCURVE",
"572 747 CURVE SMOOTH",
"524 771 OFFCURVE",
"449 729 OFFCURVE",
"396 703 CURVE SMOOTH",
"341 676 OFFCURVE",
"310 671 OFFCURVE",
"283 687 CURVE SMOOTH",
"259 700 OFFCURVE",
"260 689 OFFCURVE",
"267 675 CURVE SMOOTH",
"298 612 OFFCURVE",
"335 578 OFFCURVE",
"369 585 CURVE SMOOTH",
"403 592 OFFCURVE",
"477 654 OFFCURVE",
"493 665 CURVE",
"517 678 OFFCURVE",
"517 672 OFFCURVE",
"498 640 CURVE SMOOTH",
"478 607 OFFCURVE",
"389 454 OFFCURVE",
"360 397 CURVE SMOOTH",
"331 341 OFFCURVE",
"248 169 OFFCURVE",
"204 167 CURVE SMOOTH",
"176 166 OFFCURVE",
"173 229 OFFCURVE",
"207 271 CURVE SMOOTH",
"252 327 OFFCURVE",
"328 358 OFFCURVE",
"423 362 CURVE SMOOTH",
"589 369 OFFCURVE",
"737 254 OFFCURVE",
"849 141 CURVE SMOOTH",
"902 87 OFFCURVE",
"930 116 OFFCURVE",
"939 136 CURVE SMOOTH",
"947 153 OFFCURVE",
"954 186 OFFCURVE",
"905 235 CURVE SMOOTH",
"784 356 OFFCURVE",
"618 426 OFFCURVE",
"489 426 CURVE SMOOTH",
"353 427 OFFCURVE",
"243 397 OFFCURVE",
"160 298 CURVE SMOOTH",
"102 229 OFFCURVE",
"92 128 OFFCURVE",
"131 89 CURVE SMOOTH"
);
},
{
closed = 1;
nodes = (
"441 -16 OFFCURVE",
"755 11 OFFCURVE",
"797 335 CURVE SMOOTH",
"800 360 OFFCURVE",
"820 388 OFFCURVE",
"813 422 CURVE SMOOTH",
"805 462 OFFCURVE",
"750 491 OFFCURVE",
"714 499 CURVE SMOOTH",
"689 504 OFFCURVE",
"686 498 OFFCURVE",
"699 478 CURVE SMOOTH",
"709 464 OFFCURVE",
"711 442 OFFCURVE",
"711 413 CURVE SMOOTH",
"712 290 OFFCURVE",
"630 72 OFFCURVE",
"396 -6 CURVE SMOOTH",
"359 -19 OFFCURVE",
"361 -28 OFFCURVE",
"399 -22 CURVE SMOOTH"
);
}
);
width = 1000;
}
);
unicode = 307F;
},
{
glyphname = "mu-hira";
lastChange = "2020-03-22 15:08:02 +0000";
layers = (
{
anchors = (
{
name = LSB;
position = "{42.104, 380}";
},
{
name = RSB;
position = "{978.443, 380}";
}
);
layerId = "BE1754C0-A605-45AC-AA12-D3A1FC0C380B";
paths = (
{
closed = 1;
nodes = (
"646 -25 OFFCURVE",
"764 30 OFFCURVE",
"762 107 CURVE SMOOTH",
"759 182 OFFCURVE",
"733 159 OFFCURVE",
"707 310 CURVE SMOOTH",
"679 481 OFFCURVE",
"683 548 OFFCURVE",
"722 558 CURVE SMOOTH",
"768 568 OFFCURVE",
"801 505 OFFCURVE",
"802 472 CURVE SMOOTH",
"803 438 OFFCURVE",
"769 415 OFFCURVE",
"744 405 CURVE SMOOTH",
"723 397 OFFCURVE",
"722 396 OFFCURVE",
"748 394 CURVE SMOOTH",
"772 393 OFFCURVE",
"788 393 OFFCURVE",
"823 372 CURVE SMOOTH",
"868 342 OFFCURVE",
"884 362 OFFCURVE",
"897 385 CURVE SMOOTH",
"908 407 OFFCURVE",
"916 423 OFFCURVE",
"897 478 CURVE SMOOTH",
"874 541 OFFCURVE",
"812 626 OFFCURVE",
"732 601 CURVE SMOOTH",
"685 587 OFFCURVE",
"662 535 OFFCURVE",
"656 436 CURVE SMOOTH",
"651 355 OFFCURVE",
"653 221 OFFCURVE",
"656 184 CURVE SMOOTH",
"658 147 OFFCURVE",
"659 121 OFFCURVE",
"614 92 CURVE SMOOTH",
"569 62 OFFCURVE",
"417 40 OFFCURVE",
"333 75 CURVE SMOOTH",
"310 84 OFFCURVE",
"300 111 OFFCURVE",
"302 157 CURVE SMOOTH",
"304 213 OFFCURVE",
"336 387 OFFCURVE",
"348 511 CURVE SMOOTH",
"360 635 OFFCURVE",
"360 665 OFFCURVE",
"370 693 CURVE SMOOTH",
"380 720 OFFCURVE",
"391 762 OFFCURVE",
"347 789 CURVE SMOOTH",
"320 806 OFFCURVE",
"276 815 OFFCURVE",
"248 808 CURVE SMOOTH",
"218 801 OFFCURVE",
"217 796 OFFCURVE",
"241 779 CURVE SMOOTH",
"266 761 OFFCURVE",
"281 743 OFFCURVE",
"285 699 CURVE SMOOTH",
"287 658 OFFCURVE",
"290 453 OFFCURVE",
"271 344 CURVE SMOOTH",
"252 238 OFFCURVE",
"224 155 OFFCURVE",
"226 97 CURVE SMOOTH",
"229 39 OFFCURVE",
"281 -40 OFFCURVE",
"468 -32 CURVE SMOOTH"
);
},
{
closed = 1;
nodes = (
"370 184 OFFCURVE",
"316 214 OFFCURVE",
"331 298 CURVE SMOOTH",
"343 364 OFFCURVE",
"375 379 OFFCURVE",
"380 416 CURVE SMOOTH",
"384 455 OFFCURVE",
"363 503 OFFCURVE",
"294 508 CURVE SMOOTH",
"224 513 OFFCURVE",
"135 444 OFFCURVE",
"136 353 CURVE SMOOTH",
"139 186 OFFCURVE",
"277 139 OFFCURVE",
"316 158 CURVE SMOOTH"
);
},
{
closed = 1;
nodes = (
"179 341 OFFCURVE",
"224 443 OFFCURVE",
"263 443 CURVE SMOOTH",
"297 443 OFFCURVE",
"266 350 OFFCURVE",
"263 316 CURVE SMOOTH",
"260 269 OFFCURVE",
"256 265 OFFCURVE",
"227 295 CURVE SMOOTH"
);
},
{
closed = 1;
nodes = (
"259 554 OFFCURVE",
"352 572 OFFCURVE",
"414 597 CURVE SMOOTH",
"465 618 OFFCURVE",
"475 628 OFFCURVE",
"475 658 CURVE SMOOTH",
"475 688 OFFCURVE",
"454 696 OFFCURVE",
"418 711 CURVE SMOOTH",
"390 722 OFFCURVE",
"374 736 OFFCURVE",
"367 744 CURVE",
"363 726 LINE",
"365 723 OFFCURVE",
"373 705 OFFCURVE",
"385 699 CURVE",
"409 690 OFFCURVE",
"411 684 OFFCURVE",
"393 674 CURVE SMOOTH",
"376 664 OFFCURVE",
"271 647 OFFCURVE",
"217 637 CURVE SMOOTH",
"159 629 OFFCURVE",
"148 644 OFFCURVE",
"131 663 CURVE SMOOTH",
"110 688 OFFCURVE",
"109 685 OFFCURVE",
"116 635 CURVE SMOOTH",
"126 573 OFFCURVE",
"184 551 OFFCURVE",
"221 552 CURVE SMOOTH"
);
}
);
width = 1000;
}
);
unicode = 3080;
},
{
glyphname = "me-hira";
lastChange = "2020-03-22 15:08:02 +0000";
layers = (
{
anchors = (
{
name = LSB;
position = "{61.912, 380}";
},
{
name = RSB;
position = "{974.077, 380}";
}
);
layerId = "BE1754C0-A605-45AC-AA12-D3A1FC0C380B";
paths = (
{
closed = 1;
nodes = (
"543 12 OFFCURVE",
"927 49 OFFCURVE",
"903 344 CURVE SMOOTH",
"883 585 OFFCURVE",
"613 619 OFFCURVE",
"489 598 CURVE SMOOTH",
"357 575 OFFCURVE",
"161 466 OFFCURVE",
"134 271 CURVE SMOOTH",
"122 171 OFFCURVE",
"163 89 OFFCURVE",
"224 88 CURVE SMOOTH",
"283 88 OFFCURVE",
"510 214 OFFCURVE",
"583 598 CURVE SMOOTH",
"585 605 OFFCURVE",
"599 654 OFFCURVE",
"606 676 CURVE SMOOTH",
"617 711 OFFCURVE",
"603 732 OFFCURVE",
"576 757 CURVE SMOOTH",
"531 797 OFFCURVE",
"492 781 OFFCURVE",
"475 776 CURVE SMOOTH",
"458 771 OFFCURVE",
"456 764 OFFCURVE",
"465 761 CURVE SMOOTH",
"482 753 OFFCURVE",
"505 737 OFFCURVE",
"503 704 CURVE SMOOTH",
"495 602 OFFCURVE",
"421 260 OFFCURVE",
"249 183 CURVE SMOOTH",
"208 166 OFFCURVE",
"190 212 OFFCURVE",
"206 294 CURVE SMOOTH",
"225 386 OFFCURVE",
"334 517 OFFCURVE",
"516 534 CURVE SMOOTH",
"670 547 OFFCURVE",
"784 473 OFFCURVE",
"793 344 CURVE SMOOTH",
"803 188 OFFCURVE",
"674 73 OFFCURVE",
"436 14 CURVE SMOOTH",
"416 9 OFFCURVE",
"423 0 OFFCURVE",
"447 2 CURVE SMOOTH"
);
},
{
closed = 1;
nodes = (
"485 208 OFFCURVE",
"527 227 OFFCURVE",
"530 253 CURVE SMOOTH",
"532 281 OFFCURVE",
"512 309 OFFCURVE",
"484 314 CURVE SMOOTH",
"329 348 OFFCURVE",
"311 515 OFFCURVE",
"278 576 CURVE SMOOTH",
"253 626 OFFCURVE",
"208 647 OFFCURVE",
"172 656 CURVE SMOOTH",
"141 665 OFFCURVE",
"133 653 OFFCURVE",
"156 635 CURVE SMOOTH",
"186 612 OFFCURVE",
"205 582 OFFCURVE",
"217 540 CURVE SMOOTH",
"261 386 OFFCURVE",
"330 287 OFFCURVE",
"433 235 CURVE SMOOTH"
);
}
);
width = 1000;
}
);
unicode = 3081;
},
{
glyphname = "mo-hira";
lastChange = "2020-03-22 15:08:02 +0000";
layers = (
{
anchors = (
{
name = LSB;
position = "{165.317, 380}";
},
{
name = RSB;
position = "{845.617, 380}";
}
);
layerId = "BE1754C0-A605-45AC-AA12-D3A1FC0C380B";
paths = (
{
closed = 1;
nodes = (
"753 -7 OFFCURVE",
"819 138 OFFCURVE",
"745 252 CURVE SMOOTH",
"680 353 OFFCURVE",
"588 400 OFFCURVE",
"541 421 CURVE SMOOTH",
"501 438 OFFCURVE",
"497 435 OFFCURVE",
"526 408 CURVE SMOOTH",
"581 359 OFFCURVE",
"618 302 OFFCURVE",
"643 235 CURVE SMOOTH",
"674 151 OFFCURVE",
"648 59 OFFCURVE",
"585 27 CURVE SMOOTH",
"548 9 OFFCURVE",
"466 -6 OFFCURVE",
"429 49 CURVE SMOOTH",
"372 136 OFFCURVE",
"463 526 OFFCURVE",
"480 584 CURVE SMOOTH",
"498 642 OFFCURVE",
"521 660 OFFCURVE",
"523 699 CURVE SMOOTH",
"528 797 OFFCURVE",
"405 822 OFFCURVE",
"380 826 CURVE",
"344 835 OFFCURVE",
"338 830 OFFCURVE",
"362 811 CURVE SMOOTH",
"393 786 OFFCURVE",
"394 723 OFFCURVE",
"396 702 CURVE SMOOTH",
"412 531 OFFCURVE",
"318 273 OFFCURVE",
"338 104 CURVE SMOOTH",
"352 -20 OFFCURVE",
"462 -80 OFFCURVE",
"610 -43 CURVE SMOOTH"
);
},
{
closed = 1;
nodes = (
"524 193 OFFCURVE",
"571 206 OFFCURVE",
"568 232 CURVE SMOOTH",
"559 311 OFFCURVE",
"413 293 OFFCURVE",
"399 295 CURVE SMOOTH",
"335 304 OFFCURVE",
"280 300 OFFCURVE",
"285 346 CURVE SMOOTH",
"291 391 OFFCURVE",
"387 457 OFFCURVE",
"465 472 CURVE SMOOTH",
"535 486 OFFCURVE",
"560 513 OFFCURVE",
"544 557 CURVE SMOOTH",
"526 608 OFFCURVE",
"364 600 OFFCURVE",
"273 636 CURVE SMOOTH",
"250 645 OFFCURVE",
"246 644 OFFCURVE",
"261 623 CURVE SMOOTH",
"290 582 OFFCURVE",
"347 557 OFFCURVE",
"380 542 CURVE SMOOTH",
"419 524 OFFCURVE",
"422 519 OFFCURVE",
"394 504 CURVE SMOOTH",
"314 463 OFFCURVE",
"242 395 OFFCURVE",
"236 338 CURVE SMOOTH",
"225 235 OFFCURVE",
"349 205 OFFCURVE",
"448 198 CURVE SMOOTH"
);
}
);
width = 1000;
}
);
unicode = 3082;
},
{
glyphname = "ya-hira";
lastChange = "2020-03-22 15:08:02 +0000";
layers = (
{
anchors = (
{
name = LSB;
position = "{20.509, 380}";
},
{
name = RSB;
position = "{985.308, 380}";
}
);
layerId = "BE1754C0-A605-45AC-AA12-D3A1FC0C380B";
paths = (
{
closed = 1;
nodes = (
"539 -32 OFFCURVE",
"580 3 OFFCURVE",
"538 111 CURVE SMOOTH",
"495 221 OFFCURVE",
"359 466 OFFCURVE",
"296 557 CURVE SMOOTH",
"231 651 OFFCURVE",
"281 681 OFFCURVE",
"308 679 CURVE SMOOTH",
"387 670 OFFCURVE",
"502 569 OFFCURVE",
"568 614 CURVE SMOOTH",
"579 622 OFFCURVE",
"661 733 OFFCURVE",
"472 780 CURVE SMOOTH",
"450 785 OFFCURVE",
"432 784 OFFCURVE",
"452 768 CURVE SMOOTH",
"472 750 OFFCURVE",
"493 717 OFFCURVE",
"482 703 CURVE SMOOTH",
"464 679 OFFCURVE",
"415 703 OFFCURVE",
"347 719 CURVE SMOOTH",
"282 735 OFFCURVE",
"191 726 OFFCURVE",
"183 636 CURVE SMOOTH",
"175 544 OFFCURVE",
"287 459 OFFCURVE",
"342 343 CURVE SMOOTH",
"397 226 OFFCURVE",
"435 104 OFFCURVE",
"447 39 CURVE SMOOTH",
"458 -25 OFFCURVE",
"493 -46 OFFCURVE",
"516 -39 CURVE SMOOTH"
);
},
{
closed = 1;
nodes = (
"816 247 OFFCURVE",
"896 362 OFFCURVE",
"911 429 CURVE SMOOTH",
"930 510 OFFCURVE",
"889 628 OFFCURVE",
"731 651 CURVE SMOOTH",
"551 678 OFFCURVE",
"263 471 OFFCURVE",
"215 438 CURVE SMOOTH",
"169 407 OFFCURVE",
"132 406 OFFCURVE",
"105 431 CURVE SMOOTH",
"93 443 OFFCURVE",
"89 440 OFFCURVE",
"91 418 CURVE SMOOTH",
"94 385 OFFCURVE",
"106 357 OFFCURVE",
"132 335 CURVE SMOOTH",
"173 300 OFFCURVE",
"232 318 OFFCURVE",
"266 355 CURVE SMOOTH",
"378 476 OFFCURVE",
"520 564 OFFCURVE",
"672 571 CURVE SMOOTH",
"763 575 OFFCURVE",
"813 514 OFFCURVE",
"808 459 CURVE SMOOTH",
"802 407 OFFCURVE",
"759 375 OFFCURVE",
"691 365 CURVE SMOOTH",
"642 358 OFFCURVE",
"555 384 OFFCURVE",
"489 439 CURVE SMOOTH",
"463 461 OFFCURVE",
"457 458 OFFCURVE",
"474 428 CURVE SMOOTH",
"496 389 OFFCURVE",
"558 322 OFFCURVE",
"632 300 CURVE SMOOTH"
);
}
);
width = 1000;
}
);
unicode = 3084;
},
{
glyphname = "yasmall-hira";
lastChange = "2020-03-22 15:08:02 +0000";
layers = (
{
anchors = (
{
name = LSB;
position = "{107.574, 380}";
},
{
name = RSB;
position = "{896.993, 380}";
}
);
layerId = "BE1754C0-A605-45AC-AA12-D3A1FC0C380B";
paths = (
{
closed = 1;
nodes = (
"531 -38 OFFCURVE",
"566 -8 OFFCURVE",
"532 78 CURVE SMOOTH",
"499 164 OFFCURVE",
"393 356 OFFCURVE",
"343 428 CURVE SMOOTH",
"294 498 OFFCURVE",
"330 519 OFFCURVE",
"350 517 CURVE SMOOTH",
"411 511 OFFCURVE",
"501 431 OFFCURVE",
"555 468 CURVE SMOOTH",
"563 474 OFFCURVE",
"630 565 OFFCURVE",
"479 602 CURVE SMOOTH",
"453 608 OFFCURVE",
"445 600 OFFCURVE",
"460 588 CURVE SMOOTH",
"478 572 OFFCURVE",
"490 549 OFFCURVE",
"484 541 CURVE SMOOTH",
"471 524 OFFCURVE",
"433 542 OFFCURVE",
"381 555 CURVE SMOOTH",
"330 567 OFFCURVE",
"256 560 OFFCURVE",
"249 487 CURVE SMOOTH",
"243 414 OFFCURVE",
"330 348 OFFCURVE",
"374 257 CURVE SMOOTH",
"417 167 OFFCURVE",
"446 71 OFFCURVE",
"455 20 CURVE SMOOTH",
"463 -22 OFFCURVE",
"489 -50 OFFCURVE",
"513 -43 CURVE SMOOTH"
);
},
{
closed = 1;
nodes = (
"748 180 OFFCURVE",
"812 272 OFFCURVE",
"824 325 CURVE SMOOTH",
"838 388 OFFCURVE",
"805 484 OFFCURVE",
"680 502 CURVE SMOOTH",
"539 522 OFFCURVE",
"313 360 OFFCURVE",
"275 334 CURVE SMOOTH",
"242 311 OFFCURVE",
"214 310 OFFCURVE",
"194 329 CURVE SMOOTH",
"181 341 OFFCURVE",
"176 336 OFFCURVE",
"178 317 CURVE SMOOTH",
"180 290 OFFCURVE",
"190 268 OFFCURVE",
"211 250 CURVE SMOOTH",
"241 225 OFFCURVE",
"288 231 OFFCURVE",
"320 265 CURVE SMOOTH",
"415 368 OFFCURVE",
"526 428 OFFCURVE",
"634 433 CURVE SMOOTH",
"704 436 OFFCURVE",
"741 390 OFFCURVE",
"737 349 CURVE SMOOTH",
"732 311 OFFCURVE",
"702 286 OFFCURVE",
"649 279 CURVE SMOOTH",
"610 273 OFFCURVE",
"544 293 OFFCURVE",
"494 335 CURVE SMOOTH",
"470 356 OFFCURVE",
"461 350 OFFCURVE",
"477 323 CURVE SMOOTH",
"495 292 OFFCURVE",
"543 239 OFFCURVE",
"602 222 CURVE SMOOTH"
);
}
);
width = 1000;
}
);
unicode = 3083;
},
{
glyphname = "yu-hira";
lastChange = "2020-03-22 15:08:02 +0000";
layers = (
{
anchors = (
{
name = LSB;
position = "{47.426, 380}";
},
{
name = RSB;
position = "{971.009, 380}";
}
);
layerId = "BE1754C0-A605-45AC-AA12-D3A1FC0C380B";
paths = (
{
closed = 1;
nodes = (
"570 33 OFFCURVE",
"685 191 OFFCURVE",
"694 455 CURVE SMOOTH",
"700 673 OFFCURVE",
"625 816 OFFCURVE",
"513 800 CURVE SMOOTH",
"406 785 OFFCURVE",
"330 631 OFFCURVE",
"338 444 CURVE SMOOTH",
"345 255 OFFCURVE",
"491 157 OFFCURVE",
"590 152 CURVE SMOOTH",
"854 140 OFFCURVE",
"899 354 OFFCURVE",
"901 461 CURVE SMOOTH",
"902 575 OFFCURVE",
"819 759 OFFCURVE",
"591 732 CURVE SMOOTH",
"335 703 OFFCURVE",
"231 440 OFFCURVE",
"220 400 CURVE SMOOTH",
"213 374 OFFCURVE",
"205 388 OFFCURVE",
"202 394 CURVE SMOOTH",
"175 442 OFFCURVE",
"244 597 OFFCURVE",
"253 637 CURVE SMOOTH",
"272 722 OFFCURVE",
"195 746 OFFCURVE",
"157 759 CURVE SMOOTH",
"126 771 OFFCURVE",
"120 765 OFFCURVE",
"138 745 CURVE SMOOTH",
"156 726 OFFCURVE",
"158 716 OFFCURVE",
"156 667 CURVE SMOOTH",
"153 620 OFFCURVE",
"104 456 OFFCURVE",
"121 350 CURVE SMOOTH",
"136 257 OFFCURVE",
"197 148 OFFCURVE",
"262 185 CURVE SMOOTH",
"298 204 OFFCURVE",
"244 248 OFFCURVE",
"254 321 CURVE SMOOTH",
"292 574 OFFCURVE",
"467 661 OFFCURVE",
"536 678 CURVE SMOOTH",
"732 725 OFFCURVE",
"807 616 OFFCURVE",
"814 479 CURVE SMOOTH",
"823 305 OFFCURVE",
"700 248 OFFCURVE",
"620 236 CURVE SMOOTH",
"555 226 OFFCURVE",
"410 275 OFFCURVE",
"393 445 CURVE SMOOTH",
"374 625 OFFCURVE",
"446 752 OFFCURVE",
"510 766 CURVE SMOOTH",
"574 779 OFFCURVE",
"595 567 OFFCURVE",
"590 463 CURVE SMOOTH",
"577 147 OFFCURVE",
"439 50 OFFCURVE",
"349 -2 CURVE SMOOTH",
"321 -18 OFFCURVE",
"317 -27 OFFCURVE",
"351 -19 CURVE SMOOTH"
);
}
);
width = 1000;
}
);
unicode = 3086;
},
{
glyphname = "yusmall-hira";
lastChange = "2020-03-22 15:08:02 +0000";
layers = (
{
anchors = (
{
name = LSB;
position = "{129.238, 380}";
},
{
name = RSB;
position = "{885.011, 380}";
}
);
layerId = "BE1754C0-A605-45AC-AA12-D3A1FC0C380B";
paths = (
{
closed = 1;
nodes = (
"557 17 OFFCURVE",
"647 142 OFFCURVE",
"654 348 CURVE SMOOTH",
"659 520 OFFCURVE",
"600 633 OFFCURVE",
"510 621 CURVE SMOOTH",
"425 610 OFFCURVE",
"365 489 OFFCURVE",
"371 341 CURVE SMOOTH",
"377 191 OFFCURVE",
"492 113 OFFCURVE",
"570 110 CURVE SMOOTH",
"779 100 OFFCURVE",
"814 270 OFFCURVE",
"815 353 CURVE SMOOTH",
"816 443 OFFCURVE",
"751 589 OFFCURVE",
"571 568 CURVE SMOOTH",
"370 545 OFFCURVE",
"288 338 OFFCURVE",
"279 307 CURVE SMOOTH",
"275 294 OFFCURVE",
"275 294 OFFCURVE",
"271 303 CURVE",
"250 338 OFFCURVE",
"304 459 OFFCURVE",
"311 491 CURVE SMOOTH",
"326 560 OFFCURVE",
"264 578 OFFCURVE",
"233 589 CURVE SMOOTH",
"206 599 OFFCURVE",
"199 592 OFFCURVE",
"216 573 CURVE SMOOTH",
"229 559 OFFCURVE",
"230 551 OFFCURVE",
"228 514 CURVE SMOOTH",
"226 477 OFFCURVE",
"189 350 OFFCURVE",
"202 266 CURVE SMOOTH",
"213 194 OFFCURVE",
"263 105 OFFCURVE",
"317 135 CURVE SMOOTH",
"347 153 OFFCURVE",
"304 189 OFFCURVE",
"312 245 CURVE SMOOTH",
"341 439 OFFCURVE",
"476 506 OFFCURVE",
"529 520 CURVE SMOOTH",
"680 557 OFFCURVE",
"736 473 OFFCURVE",
"742 367 CURVE SMOOTH",
"749 235 OFFCURVE",
"655 190 OFFCURVE",
"593 182 CURVE SMOOTH",
"543 174 OFFCURVE",
"433 210 OFFCURVE",
"419 341 CURVE SMOOTH",
"404 481 OFFCURVE",
"460 578 OFFCURVE",
"508 588 CURVE SMOOTH",
"556 597 OFFCURVE",
"572 436 OFFCURVE",
"568 356 CURVE SMOOTH",
"557 110 OFFCURVE",
"450 36 OFFCURVE",
"381 -6 CURVE SMOOTH",
"354 -21 OFFCURVE",
"357 -30 OFFCURVE",
"384 -23 CURVE SMOOTH"
);
}
);
width = 1000;
}
);
unicode = 3085;
},
{
glyphname = "yo-hira";
lastChange = "2020-03-22 15:08:02 +0000";
layers = (
{
anchors = (
{
name = LSB;
position = "{113.933, 380}";
},
{
name = RSB;
position = "{851.233, 380}";
}
);
layerId = "BE1754C0-A605-45AC-AA12-D3A1FC0C380B";
paths = (
{
closed = 1;
nodes = (
"490 -20 OFFCURVE",
"567 24 OFFCURVE",
"571 127 CURVE SMOOTH",
"574 214 OFFCURVE",
"532 289 OFFCURVE",
"532 412 CURVE SMOOTH",
"532 535 OFFCURVE",
"534 599 OFFCURVE",
"562 680 CURVE SMOOTH",
"583 741 OFFCURVE",
"562 768 OFFCURVE",
"509 786 CURVE SMOOTH",
"472 797 OFFCURVE",
"426 795 OFFCURVE",
"399 782 CURVE SMOOTH",
"372 768 OFFCURVE",
"369 758 OFFCURVE",
"389 756 CURVE SMOOTH",
"426 750 OFFCURVE",
"442 731 OFFCURVE",
"441 686 CURVE SMOOTH",
"438 604 OFFCURVE",
"433 545 OFFCURVE",
"439 437 CURVE SMOOTH",
"444 328 OFFCURVE",
"472 209 OFFCURVE",
"469 125 CURVE SMOOTH",
"466 71 OFFCURVE",
"449 51 OFFCURVE",
"379 49 CURVE SMOOTH",
"311 47 OFFCURVE",
"255 69 OFFCURVE",
"258 98 CURVE SMOOTH",
"260 128 OFFCURVE",
"312 147 OFFCURVE",
"382 145 CURVE SMOOTH",
"488 143 OFFCURVE",
"592 102 OFFCURVE",
"679 26 CURVE SMOOTH",
"709 0 OFFCURVE",
"747 -1 OFFCURVE",
"770 22 CURVE SMOOTH",
"792 44 OFFCURVE",
"781 80 OFFCURVE",
"743 113 CURVE SMOOTH",
"693 156 OFFCURVE",
"547 218 OFFCURVE",
"394 218 CURVE SMOOTH",
"260 218 OFFCURVE",
"185 156 OFFCURVE",
"184 97 CURVE SMOOTH",
"181 21 OFFCURVE",
"279 -20 OFFCURVE",
"382 -20 CURVE SMOOTH"
);
},
{
closed = 1;
nodes = (
"703 481 OFFCURVE",
"746 515 OFFCURVE",
"748 540 CURVE SMOOTH",
"751 572 OFFCURVE",
"709 598 OFFCURVE",
"668 588 CURVE SMOOTH",
"623 576 OFFCURVE",
"583 563 OFFCURVE",
"518 571 CURVE",
"506 526 LINE",
"538 500 OFFCURVE",
"568 490 OFFCURVE",
"630 486 CURVE SMOOTH"
);
}
);
width = 1000;
}
);
unicode = 3088;
},
{
glyphname = "yosmall-hira";
lastChange = "2020-03-22 15:08:02 +0000";
layers = (
{
anchors = (
{
name = LSB;
position = "{175.963, 380}";
},
{
name = RSB;
position = "{787.918, 380}";
}
);
layerId = "BE1754C0-A605-45AC-AA12-D3A1FC0C380B";
paths = (
{
closed = 1;
nodes = (
"498 -35 OFFCURVE",
"551 7 OFFCURVE",
"554 83 CURVE SMOOTH",
"556 152 OFFCURVE",
"523 209 OFFCURVE",
"523 305 CURVE SMOOTH",
"523 401 OFFCURVE",
"526 450 OFFCURVE",
"548 513 CURVE SMOOTH",
"562 560 OFFCURVE",
"550 584 OFFCURVE",
"504 599 CURVE SMOOTH",
"476 609 OFFCURVE",
"438 607 OFFCURVE",
"416 596 CURVE SMOOTH",
"392 584 OFFCURVE",
"389 574 OFFCURVE",
"408 570 CURVE SMOOTH",
"437 565 OFFCURVE",
"448 552 OFFCURVE",
"447 519 CURVE SMOOTH",
"445 455 OFFCURVE",
"441 409 OFFCURVE",
"445 325 CURVE SMOOTH",
"450 239 OFFCURVE",
"472 147 OFFCURVE",
"469 81 CURVE SMOOTH",
"467 40 OFFCURVE",
"453 27 OFFCURVE",
"401 25 CURVE SMOOTH",
"349 24 OFFCURVE",
"307 41 OFFCURVE",
"310 60 CURVE SMOOTH",
"311 81 OFFCURVE",
"349 96 OFFCURVE",
"403 95 CURVE SMOOTH",
"486 92 OFFCURVE",
"568 59 OFFCURVE",
"633 3 CURVE SMOOTH",
"656 -19 OFFCURVE",
"688 -21 OFFCURVE",
"708 -1 CURVE SMOOTH",
"727 18 OFFCURVE",
"718 48 OFFCURVE",
"687 75 CURVE SMOOTH",
"648 108 OFFCURVE",
"533 157 OFFCURVE",
"414 157 CURVE SMOOTH",
"308 157 OFFCURVE",
"248 107 OFFCURVE",
"246 60 CURVE SMOOTH",
"244 -1 OFFCURVE",
"323 -35 OFFCURVE",
"403 -35 CURVE SMOOTH"
);
},
{
closed = 1;
nodes = (
"655 356 OFFCURVE",
"691 385 OFFCURVE",
"692 405 CURVE SMOOTH",
"695 432 OFFCURVE",
"659 454 OFFCURVE",
"625 445 CURVE SMOOTH",
"591 436 OFFCURVE",
"561 426 OFFCURVE",
"510 432 CURVE",
"507 431 LINE",
"497 395 LINE",
"498 392 LINE",
"525 370 OFFCURVE",
"550 363 OFFCURVE",
"597 360 CURVE SMOOTH"
);
}
);
width = 1000;
}
);
unicode = 3087;
},
{
glyphname = "ra-hira";
lastChange = "2020-03-22 15:08:02 +0000";
layers = (
{
anchors = (
{
name = LSB;
position = "{150.405, 380}";
},
{
name = RSB;
position = "{906.041, 380}";
}
);
layerId = "BE1754C0-A605-45AC-AA12-D3A1FC0C380B";
paths = (
{
closed = 1;
nodes = (
"580 -53 OFFCURVE",
"817 8 OFFCURVE",
"835 193 CURVE SMOOTH",
"849 330 OFFCURVE",
"719 401 OFFCURVE",
"611 394 CURVE SMOOTH",
"465 386 OFFCURVE",
"366 296 OFFCURVE",
"352 283 CURVE SMOOTH",
"334 264 OFFCURVE",
"320 289 OFFCURVE",
"324 338 CURVE SMOOTH",
"328 392 OFFCURVE",
"337 491 OFFCURVE",
"332 523 CURVE SMOOTH",
"326 557 OFFCURVE",
"323 599 OFFCURVE",
"340 617 CURVE SMOOTH",
"364 643 OFFCURVE",
"388 646 OFFCURVE",
"407 647 CURVE SMOOTH",
"450 650 OFFCURVE",
"456 621 OFFCURVE",
"504 613 CURVE SMOOTH",
"535 607 OFFCURVE",
"573 661 OFFCURVE",
"545 724 CURVE SMOOTH",
"519 786 OFFCURVE",
"437 810 OFFCURVE",
"370 805 CURVE SMOOTH",
"327 803 OFFCURVE",
"327 798 OFFCURVE",
"373 776 CURVE SMOOTH",
"414 754 OFFCURVE",
"452 700 OFFCURVE",
"372 678 CURVE SMOOTH",
"297 657 OFFCURVE",
"255 607 OFFCURVE",
"246 543 CURVE SMOOTH",
"239 490 OFFCURVE",
"246 344 OFFCURVE",
"233 284 CURVE SMOOTH",
"218 225 OFFCURVE",
"204 171 OFFCURVE",
"269 134 CURVE SMOOTH",
"315 106 OFFCURVE",
"340 114 OFFCURVE",
"372 168 CURVE SMOOTH",
"407 228 OFFCURVE",
"488 313 OFFCURVE",
"588 313 CURVE SMOOTH",
"660 313 OFFCURVE",
"720 284 OFFCURVE",
"712 194 CURVE SMOOTH",
"700 66 OFFCURVE",
"499 -9 OFFCURVE",
"340 -35 CURVE SMOOTH",
"309 -40 OFFCURVE",
"312 -53 OFFCURVE",
"342 -53 CURVE SMOOTH"
);
}
);
width = 1000;
}
);
unicode = 3089;
},
{
glyphname = "ri-hira";
lastChange = "2020-03-22 15:08:02 +0000";
layers = (
{
anchors = (
{
name = LSB;
position = "{205.084, 380}";
},
{
name = RSB;
position = "{814.5, 380}";
}
);
layerId = "BE1754C0-A605-45AC-AA12-D3A1FC0C380B";
paths = (
{
closed = 1;
nodes = (
"518 -15 OFFCURVE",
"707 66 OFFCURVE",
"739 337 CURVE SMOOTH",
"771 610 OFFCURVE",
"656 728 OFFCURVE",
"584 728 CURVE SMOOTH",
"487 728 OFFCURVE",
"420 637 OFFCURVE",
"376 554 CURVE",
"376 554 OFFCURVE",
"380 602 OFFCURVE",
"400 649 CURVE SMOOTH",
"433 726 OFFCURVE",
"424 788 OFFCURVE",
"369 808 CURVE SMOOTH",
"347 816 OFFCURVE",
"324 817 OFFCURVE",
"305 814 CURVE SMOOTH",
"284 810 OFFCURVE",
"286 803 OFFCURVE",
"305 791 CURVE SMOOTH",
"340 771 OFFCURVE",
"321 733 OFFCURVE",
"309 677 CURVE SMOOTH",
"287 570 OFFCURVE",
"262 463 OFFCURVE",
"283 328 CURVE SMOOTH",
"290 288 OFFCURVE",
"323 218 OFFCURVE",
"373 230 CURVE SMOOTH",
"400 237 OFFCURVE",
"408 270 OFFCURVE",
"392 327 CURVE SMOOTH",
"379 378 OFFCURVE",
"378 410 OFFCURVE",
"399 481 CURVE SMOOTH",
"421 556 OFFCURVE",
"487 659 OFFCURVE",
"547 655 CURVE SMOOTH",
"592 652 OFFCURVE",
"644 549 OFFCURVE",
"627 328 CURVE SMOOTH",
"612 139 OFFCURVE",
"510 22 OFFCURVE",
"408 -20 CURVE SMOOTH",
"382 -31 OFFCURVE",
"363 -52 OFFCURVE",
"417 -39 CURVE SMOOTH"
);
}
);
width = 1000;
}
);
unicode = 308A;
},
{
glyphname = "ru-hira";
lastChange = "2020-03-22 15:08:02 +0000";
layers = (
{
anchors = (
{
name = LSB;
position = "{124.123, 380}";
},
{
name = RSB;
position = "{879.567, 380}";
}
);
layerId = "BE1754C0-A605-45AC-AA12-D3A1FC0C380B";
paths = (
{
closed = 1;
nodes = (
"670 -3 OFFCURVE",
"827 84 OFFCURVE",
"808 258 CURVE SMOOTH",
"781 506 OFFCURVE",
"481 463 OFFCURVE",
"429 402 CURVE",
"479 460 OFFCURVE",
"558 569 OFFCURVE",
"612 632 CURVE SMOOTH",
"665 693 OFFCURVE",
"619 731 OFFCURVE",
"584 750 CURVE SMOOTH",
"538 774 OFFCURVE",
"493 775 OFFCURVE",
"464 751 CURVE SMOOTH",
"427 718 OFFCURVE",
"371 693 OFFCURVE",
"358 690 CURVE SMOOTH",
"337 687 OFFCURVE",
"314 691 OFFCURVE",
"303 702 CURVE SMOOTH",
"279 723 OFFCURVE",
"279 723 OFFCURVE",
"276 687 CURVE SMOOTH",
"271 635 OFFCURVE",
"312 576 OFFCURVE",
"353 574 CURVE SMOOTH",
"399 572 OFFCURVE",
"453 638 OFFCURVE",
"476 673 CURVE SMOOTH",
"505 716 OFFCURVE",
"529 685 OFFCURVE",
"509 656 CURVE",
"496 633 OFFCURVE",
"393 462 OFFCURVE",
"320 364 CURVE SMOOTH",
"268 293 OFFCURVE",
"231 270 OFFCURVE",
"211 243 CURVE SMOOTH",
"189 215 OFFCURVE",
"188 166 OFFCURVE",
"211 149 CURVE SMOOTH",
"236 131 OFFCURVE",
"274 139 OFFCURVE",
"290 168 CURVE SMOOTH",
"382 329 OFFCURVE",
"476 366 OFFCURVE",
"541 374 CURVE SMOOTH",
"608 382 OFFCURVE",
"694 343 OFFCURVE",
"698 256 CURVE SMOOTH",
"703 132 OFFCURVE",
"600 97 OFFCURVE",
"591 93 CURVE",
"498 255 OFFCURVE",
"367 201 OFFCURVE",
"339 130 CURVE SMOOTH",
"308 53 OFFCURVE",
"386 -8 OFFCURVE",
"513 -6 CURVE SMOOTH"
);
},
{
closed = 1;
nodes = (
"456 35 OFFCURVE",
"397 80 OFFCURVE",
"411 108 CURVE SMOOTH",
"426 141 OFFCURVE",
"481 128 OFFCURVE",
"515 67 CURVE"
);
}
);
width = 1000;
}
);
unicode = 308B;
},
{
glyphname = "re-hira";
lastChange = "2020-03-22 15:08:02 +0000";
layers = (
{
anchors = (
{
name = LSB;
position = "{33.998, 380}";
},
{
name = RSB;
position = "{1064.834, 380}";
}
);
layerId = "BE1754C0-A605-45AC-AA12-D3A1FC0C380B";
paths = (
{
closed = 1;
nodes = (
"333 -41 OFFCURVE",
"350 -15 OFFCURVE",
"356 32 CURVE SMOOTH",
"362 80 OFFCURVE",
"330 180 OFFCURVE",
"335 286 CURVE SMOOTH",
"340 393 OFFCURVE",
"350 559 OFFCURVE",
"361 595 CURVE SMOOTH",
"372 630 OFFCURVE",
"405 687 OFFCURVE",
"372 738 CURVE SMOOTH",
"338 789 OFFCURVE",
"268 803 OFFCURVE",
"247 797 CURVE SMOOTH",
"191 781 OFFCURVE",
"230 767 OFFCURVE",
"247 751 CURVE SMOOTH",
"262 735 OFFCURVE",
"294 699 OFFCURVE",
"294 656 CURVE SMOOTH",
"294 588 OFFCURVE",
"269 195 OFFCURVE",
"270 151 CURVE SMOOTH",
"271 112 OFFCURVE",
"273 96 OFFCURVE",
"260 115 CURVE SMOOTH",
"248 134 OFFCURVE",
"180 288 OFFCURVE",
"171 333 CURVE SMOOTH",
"162 381 OFFCURVE",
"150 413 OFFCURVE",
"163 428 CURVE SMOOTH",
"174 441 OFFCURVE",
"201 461 OFFCURVE",
"253 468 CURVE SMOOTH",
"288 473 OFFCURVE",
"285 458 OFFCURVE",
"279 431 CURVE SMOOTH",
"272 404 OFFCURVE",
"171 260 OFFCURVE",
"134 196 CURVE SMOOTH",
"97 132 OFFCURVE",
"103 82 OFFCURVE",
"118 71 CURVE SMOOTH",
"131 62 OFFCURVE",
"159 70 OFFCURVE",
"183 91 CURVE SMOOTH",
"207 113 OFFCURVE",
"304 330 OFFCURVE",
"321 363 CURVE SMOOTH",
"383 480 OFFCURVE",
"590 645 OFFCURVE",
"662 604 CURVE SMOOTH",
"691 588 OFFCURVE",
"693 520 OFFCURVE",
"670 418 CURVE SMOOTH",
"638 272 OFFCURVE",
"587 71 OFFCURVE",
"738 47 CURVE SMOOTH",
"892 24 OFFCURVE",
"984 234 OFFCURVE",
"992 259 CURVE SMOOTH",
"997 272 OFFCURVE",
"996 276 OFFCURVE",
"984 262 CURVE SMOOTH",
"905 170 OFFCURVE",
"823 123 OFFCURVE",
"764 141 CURVE SMOOTH",
"688 165 OFFCURVE",
"749 369 OFFCURVE",
"765 437 CURVE SMOOTH",
"780 506 OFFCURVE",
"795 598 OFFCURVE",
"710 642 CURVE SMOOTH",
"575 712 OFFCURVE",
"379 496 OFFCURVE",
"379 496 CURVE",
"400 523 OFFCURVE",
"408 563 OFFCURVE",
"390 578 CURVE SMOOTH",
"365 599 OFFCURVE",
"194 540 OFFCURVE",
"150 516 CURVE SMOOTH",
"107 493 OFFCURVE",
"90 478 OFFCURVE",
"117 378 CURVE SMOOTH",
"147 265 OFFCURVE",
"209 202 OFFCURVE",
"256 43 CURVE SMOOTH",
"276 -21 OFFCURVE",
"286 -36 OFFCURVE",
"310 -39 CURVE SMOOTH"
);
}
);
width = 1000;
}
);
unicode = 308C;
},
{
glyphname = "ro-hira";
lastChange = "2020-03-22 15:08:02 +0000";
layers = (
{
anchors = (
{
name = LSB;
position = "{62.476, 380}";
},
{
name = RSB;
position = "{933.892, 380}";
}
);
layerId = "BE1754C0-A605-45AC-AA12-D3A1FC0C380B";
paths = (
{
closed = 1;
nodes = (
"640 -20 OFFCURVE",
"903 64 OFFCURVE",
"859 285 CURVE SMOOTH",
"821 479 OFFCURVE",
"527 495 OFFCURVE",
"364 361 CURVE",
"364 361 OFFCURVE",
"422 442 OFFCURVE",
"452 481 CURVE SMOOTH",
"488 525 OFFCURVE",
"520 567 OFFCURVE",
"569 610 CURVE SMOOTH",
"629 663 OFFCURVE",
"656 699 OFFCURVE",
"585 749 CURVE SMOOTH",
"544 777 OFFCURVE",
"526 774 OFFCURVE",
"475 757 CURVE SMOOTH",
"379 724 OFFCURVE",
"308 683 OFFCURVE",
"275 699 CURVE SMOOTH",
"239 715 OFFCURVE",
"233 707 OFFCURVE",
"246 683 CURVE SMOOTH",
"272 635 OFFCURVE",
"290 588 OFFCURVE",
"351 594 CURVE SMOOTH",
"392 598 OFFCURVE",
"430 634 OFFCURVE",
"459 655 CURVE SMOOTH",
"481 671 OFFCURVE",
"487 666 OFFCURVE",
"470 640 CURVE SMOOTH",
"451 611 OFFCURVE",
"303 409 OFFCURVE",
"238 323 CURVE SMOOTH",
"191 260 OFFCURVE",
"168 249 OFFCURVE",
"142 204 CURVE SMOOTH",
"122 170 OFFCURVE",
"135 119 OFFCURVE",
"167 99 CURVE SMOOTH",
"198 80 OFFCURVE",
"222 117 OFFCURVE",
"251 162 CURVE SMOOTH",
"278 204 OFFCURVE",
"293 228 OFFCURVE",
"321 263 CURVE SMOOTH",
"403 363 OFFCURVE",
"679 503 OFFCURVE",
"745 302 CURVE SMOOTH",
"789 167 OFFCURVE",
"634 22 OFFCURVE",
"462 -23 CURVE SMOOTH",
"427 -32 OFFCURVE",
"437 -38 OFFCURVE",
"478 -35 CURVE SMOOTH"
);
}
);
width = 1000;
}
);
unicode = 308D;
},
{
glyphname = "wa-hira";
lastChange = "2020-03-22 15:08:02 +0000";
layers = (
{
anchors = (
{
name = LSB;
position = "{19.094, 380}";
},
{
name = RSB;
position = "{962.859, 380}";
}
);
layerId = "BE1754C0-A605-45AC-AA12-D3A1FC0C380B";
paths = (
{
closed = 1;
nodes = (
"663 0 OFFCURVE",
"972 113 OFFCURVE",
"874 390 CURVE SMOOTH",
"823 539 OFFCURVE",
"580 610 OFFCURVE",
"396 452 CURVE SMOOTH",
"393 449 OFFCURVE",
"393 451 OFFCURVE",
"395 453 CURVE SMOOTH",
"417 475 OFFCURVE",
"451 519 OFFCURVE",
"425 558 CURVE SMOOTH",
"405 588 OFFCURVE",
"376 593 OFFCURVE",
"347 567 CURVE SMOOTH",
"317 540 OFFCURVE",
"253 491 OFFCURVE",
"215 476 CURVE SMOOTH",
"158 456 OFFCURVE",
"101 472 OFFCURVE",
"91 441 CURVE SMOOTH",
"80 407 OFFCURVE",
"119 402 OFFCURVE",
"147 374 CURVE SMOOTH",
"183 336 OFFCURVE",
"235 160 OFFCURVE",
"247 133 CURVE SMOOTH",
"263 95 OFFCURVE",
"261 -37 OFFCURVE",
"326 -19 CURVE SMOOTH",
"382 -6 OFFCURVE",
"366 56 OFFCURVE",
"356 129 CURVE SMOOTH",
"342 242 OFFCURVE",
"356 498 OFFCURVE",
"366 555 CURVE SMOOTH",
"375 612 OFFCURVE",
"392 618 OFFCURVE",
"404 688 CURVE SMOOTH",
"417 757 OFFCURVE",
"357 790 OFFCURVE",
"329 800 CURVE SMOOTH",
"266 827 OFFCURVE",
"257 801 OFFCURVE",
"269 795 CURVE",
"306 771 OFFCURVE",
"319 738 OFFCURVE",
"309 687 CURVE SMOOTH",
"294 607 OFFCURVE",
"286 197 OFFCURVE",
"289 159 CURVE SMOOTH",
"292 108 OFFCURVE",
"274 149 OFFCURVE",
"267 164 CURVE SMOOTH",
"248 207 OFFCURVE",
"209 360 OFFCURVE",
"177 390 CURVE",
"175 394 OFFCURVE",
"174 395 OFFCURVE",
"178 395 CURVE",
"178 395 OFFCURVE",
"264 411 OFFCURVE",
"304 458 CURVE",
"309 456 LINE",
"309 456 OFFCURVE",
"303 390 OFFCURVE",
"252 332 CURVE SMOOTH",
"201 276 OFFCURVE",
"125 196 OFFCURVE",
"119 167 CURVE SMOOTH",
"113 137 OFFCURVE",
"107 110 OFFCURVE",
"124 95 CURVE SMOOTH",
"141 82 OFFCURVE",
"180 73 OFFCURVE",
"205 124 CURVE SMOOTH",
"232 178 OFFCURVE",
"326 352 OFFCURVE",
"421 411 CURVE SMOOTH",
"498 459 OFFCURVE",
"700 527 OFFCURVE",
"765 387 CURVE SMOOTH",
"834 241 OFFCURVE",
"711 52 OFFCURVE",
"508 -9 CURVE SMOOTH",
"466 -21 OFFCURVE",
"476 -32 OFFCURVE",
"523 -23 CURVE SMOOTH"
);
}
);
width = 1000;
}
);
unicode = 308F;
},
{
glyphname = "wasmall-hira";
lastChange = "2020-03-22 15:08:02 +0000";
layers = (
{
anchors = (
{
name = LSB;
position = "{86.205, 380}";
},
{
name = RSB;
position = "{880.065, 380}";
}
);
layerId = "BE1754C0-A605-45AC-AA12-D3A1FC0C380B";
paths = (
{
closed = 1;
nodes = (
"622 -25 OFFCURVE",
"874 67 OFFCURVE",
"795 293 CURVE SMOOTH",
"752 414 OFFCURVE",
"554 472 OFFCURVE",
"406 344 CURVE",
"406 343 OFFCURVE",
"408 341 OFFCURVE",
"408 341 CURVE",
"426 358 OFFCURVE",
"455 395 OFFCURVE",
"433 429 CURVE SMOOTH",
"415 455 OFFCURVE",
"389 458 OFFCURVE",
"365 436 CURVE SMOOTH",
"341 415 OFFCURVE",
"291 376 OFFCURVE",
"260 364 CURVE SMOOTH",
"214 348 OFFCURVE",
"168 362 OFFCURVE",
"158 334 CURVE SMOOTH",
"148 304 OFFCURVE",
"182 300 OFFCURVE",
"205 277 CURVE SMOOTH",
"232 246 OFFCURVE",
"274 106 OFFCURVE",
"284 84 CURVE SMOOTH",
"297 54 OFFCURVE",
"296 -55 OFFCURVE",
"352 -40 CURVE SMOOTH",
"399 -28 OFFCURVE",
"386 25 OFFCURVE",
"378 82 CURVE SMOOTH",
"366 173 OFFCURVE",
"378 379 OFFCURVE",
"386 424 CURVE SMOOTH",
"393 469 OFFCURVE",
"407 473 OFFCURVE",
"416 531 CURVE SMOOTH",
"426 589 OFFCURVE",
"377 616 OFFCURVE",
"354 625 CURVE SMOOTH",
"300 647 OFFCURVE",
"291 622 OFFCURVE",
"303 614 CURVE SMOOTH",
"332 597 OFFCURVE",
"342 570 OFFCURVE",
"334 532 CURVE SMOOTH",
"322 467 OFFCURVE",
"315 137 OFFCURVE",
"317 106 CURVE SMOOTH",
"319 79 OFFCURVE",
"320 83 OFFCURVE",
"306 111 CURVE SMOOTH",
"291 146 OFFCURVE",
"260 270 OFFCURVE",
"233 294 CURVE",
"233 293 OFFCURVE",
"303 306 OFFCURVE",
"335 345 CURVE",
"332 344 LINE",
"336 342 LINE",
"334 345 LINE",
"334 345 OFFCURVE",
"329 293 OFFCURVE",
"289 247 CURVE SMOOTH",
"248 202 OFFCURVE",
"186 137 OFFCURVE",
"181 114 CURVE SMOOTH",
"176 89 OFFCURVE",
"172 66 OFFCURVE",
"186 53 CURVE SMOOTH",
"201 41 OFFCURVE",
"235 34 OFFCURVE",
"256 77 CURVE SMOOTH",
"278 120 OFFCURVE",
"353 260 OFFCURVE",
"428 306 CURVE SMOOTH",
"490 344 OFFCURVE",
"649 398 OFFCURVE",
"700 289 CURVE SMOOTH",
"755 173 OFFCURVE",
"658 23 OFFCURVE",
"496 -26 CURVE SMOOTH",
"458 -37 OFFCURVE",
"467 -51 OFFCURVE",
"510 -43 CURVE SMOOTH"
);
}
);
width = 1000;
}
);
unicode = 308E;
},
{
glyphname = "wi-hira";
lastChange = "2020-03-22 15:08:02 +0000";
layers = (
{
anchors = (
{
name = LSB;
position = "{35.492, 380}";
},
{
name = RSB;
position = "{966.378, 380}";
}
);
layerId = "BE1754C0-A605-45AC-AA12-D3A1FC0C380B";
paths = (
{
closed = 1;
nodes = (
"737 -38 OFFCURVE",
"866 64 OFFCURVE",
"891 246 CURVE SMOOTH",
"916 426 OFFCURVE",
"851 552 OFFCURVE",
"755 589 CURVE SMOOTH",
"672 622 OFFCURVE",
"583 601 OFFCURVE",
"502 570 CURVE SMOOTH",
"467 557 OFFCURVE",
"397 526 OFFCURVE",
"345 494 CURVE SMOOTH",
"261 442 OFFCURVE",
"134 316 OFFCURVE",
"114 274 CURVE SMOOTH",
"92 232 OFFCURVE",
"118 209 OFFCURVE",
"132 171 CURVE SMOOTH",
"148 128 OFFCURVE",
"185 14 OFFCURVE",
"217 2 CURVE SMOOTH",
"248 -10 OFFCURVE",
"288 33 OFFCURVE",
"310 77 CURVE SMOOTH",
"332 120 OFFCURVE",
"362 239 OFFCURVE",
"392 341 CURVE SMOOTH",
"434 484 OFFCURVE",
"478 555 OFFCURVE",
"497 585 CURVE SMOOTH",
"517 615 OFFCURVE",
"548 646 OFFCURVE",
"552 694 CURVE SMOOTH",
"556 741 OFFCURVE",
"529 758 OFFCURVE",
"478 770 CURVE SMOOTH",
"426 781 OFFCURVE",
"347 721 OFFCURVE",
"318 707 CURVE SMOOTH",
"289 692 OFFCURVE",
"278 678 OFFCURVE",
"235 707 CURVE SMOOTH",
"192 736 OFFCURVE",
"194 722 OFFCURVE",
"205 679 CURVE SMOOTH",
"215 642 OFFCURVE",
"249 608 OFFCURVE",
"288 598 CURVE SMOOTH",
"327 588 OFFCURVE",
"388 648 OFFCURVE",
"403 665 CURVE SMOOTH",
"412 676 OFFCURVE",
"437 694 OFFCURVE",
"430 660 CURVE SMOOTH",
"419 603 OFFCURVE",
"277 192 OFFCURVE",
"256 149 CURVE SMOOTH",
"235 105 OFFCURVE",
"212 125 OFFCURVE",
"196 149 CURVE SMOOTH",
"182 170 OFFCURVE",
"140 232 OFFCURVE",
"149 258 CURVE SMOOTH",
"159 285 OFFCURVE",
"214 298 OFFCURVE",
"242 308 CURVE SMOOTH",
"265 316 OFFCURVE",
"314 373 OFFCURVE",
"344 416 CURVE SMOOTH",
"359 435 OFFCURVE",
"423 491 OFFCURVE",
"453 507 CURVE SMOOTH",
"545 557 OFFCURVE",
"652 567 OFFCURVE",
"698 551 CURVE SMOOTH",
"787 519 OFFCURVE",
"799 367 OFFCURVE",
"789 257 CURVE SMOOTH",
"776 122 OFFCURVE",
"698 79 OFFCURVE",
"698 79 CURVE",
"694 81 LINE",
"666 145 OFFCURVE",
"626 177 OFFCURVE",
"568 183 CURVE SMOOTH",
"485 193 OFFCURVE",
"433 121 OFFCURVE",
"430 78 CURVE SMOOTH",
"427 36 OFFCURVE",
"460 -15 OFFCURVE",
"553 -23 CURVE SMOOTH"
);
},
{
closed = 1;
nodes = (
"601 34 OFFCURVE",
"511 33 OFFCURVE",
"487 70 CURVE SMOOTH",
"473 93 OFFCURVE",
"525 134 OFFCURVE",
"558 127 CURVE SMOOTH",
"595 119 OFFCURVE",
"634 61 OFFCURVE",
"629 46 CURVE",
"627 44 LINE"
);
}
);
width = 1000;
}
);
unicode = 3090;
},
{
glyphname = "we-hira";
lastChange = "2020-03-22 15:08:02 +0000";
layers = (
{
anchors = (
{
name = LSB;
position = "{72.297, 380}";
},
{
name = RSB;
position = "{956.474, 380}";
}
);
layerId = "BE1754C0-A605-45AC-AA12-D3A1FC0C380B";
paths = (
{
closed = 1;
nodes = (
"678 316 OFFCURVE",
"795 394 OFFCURVE",
"750 502 CURVE SMOOTH",
"686 657 OFFCURVE",
"458 560 OFFCURVE",
"421 533 CURVE SMOOTH",
"401 520 OFFCURVE",
"412 542 OFFCURVE",
"434 559 CURVE SMOOTH",
"478 596 OFFCURVE",
"631 678 OFFCURVE",
"639 715 CURVE SMOOTH",
"647 751 OFFCURVE",
"610 786 OFFCURVE",
"578 795 CURVE SMOOTH",
"546 804 OFFCURVE",
"445 752 OFFCURVE",
"393 735 CURVE SMOOTH",
"342 717 OFFCURVE",
"306 717 OFFCURVE",
"271 738 CURVE SMOOTH",
"252 749 OFFCURVE",
"250 735 OFFCURVE",
"266 710 CURVE SMOOTH",
"281 686 OFFCURVE",
"304 642 OFFCURVE",
"365 648 CURVE SMOOTH",
"427 653 OFFCURVE",
"484 708 OFFCURVE",
"506 717 CURVE SMOOTH",
"521 723 OFFCURVE",
"534 722 OFFCURVE",
"509 697 CURVE SMOOTH",
"427 616 OFFCURVE",
"251 478 OFFCURVE",
"223 403 CURVE SMOOTH",
"203 355 OFFCURVE",
"238 338 OFFCURVE",
"265 332 CURVE SMOOTH",
"292 326 OFFCURVE",
"311 339 OFFCURVE",
"324 378 CURVE SMOOTH",
"340 422 OFFCURVE",
"423 509 OFFCURVE",
"523 530 CURVE SMOOTH",
"625 553 OFFCURVE",
"639 496 OFFCURVE",
"645 478 CURVE SMOOTH",
"650 459 OFFCURVE",
"660 372 OFFCURVE",
"532 340 CURVE",
"532 340 OFFCURVE",
"539 356 OFFCURVE",
"534 373 CURVE SMOOTH",
"525 407 OFFCURVE",
"478 428 OFFCURVE",
"439 417 CURVE SMOOTH",
"397 404 OFFCURVE",
"371 378 OFFCURVE",
"368 347 CURVE SMOOTH",
"360 257 OFFCURVE",
"535 271 OFFCURVE",
"595 290 CURVE SMOOTH"
);
},
{
closed = 1;
nodes = (
"207 -51 OFFCURVE",
"241 13 OFFCURVE",
"267 45 CURVE SMOOTH",
"323 117 OFFCURVE",
"365 116 OFFCURVE",
"395 38 CURVE SMOOTH",
"415 -14 OFFCURVE",
"434 -34 OFFCURVE",
"464 -34 CURVE SMOOTH",
"495 -34 OFFCURVE",
"527 17 OFFCURVE",
"540 54 CURVE SMOOTH",
"551 90 OFFCURVE",
"599 181 OFFCURVE",
"676 179 CURVE SMOOTH",
"760 177 OFFCURVE",
"770 107 OFFCURVE",
"734 77 CURVE SMOOTH",
"709 57 OFFCURVE",
"685 36 OFFCURVE",
"634 -3 CURVE SMOOTH",
"622 -12 OFFCURVE",
"622 -25 OFFCURVE",
"648 -16 CURVE SMOOTH",
"679 -7 OFFCURVE",
"721 2 OFFCURVE",
"760 2 CURVE SMOOTH",
"799 2 OFFCURVE",
"880 -13 OFFCURVE",
"886 26 CURVE SMOOTH",
"892 69 OFFCURVE",
"842 216 OFFCURVE",
"681 216 CURVE SMOOTH",
"578 216 OFFCURVE",
"496 126 OFFCURVE",
"480 94 CURVE SMOOTH",
"465 68 OFFCURVE",
"442 71 OFFCURVE",
"416 103 CURVE SMOOTH",
"385 136 OFFCURVE",
"347 143 OFFCURVE",
"313 120 CURVE SMOOTH",
"282 98 OFFCURVE",
"275 114 OFFCURVE",
"303 141 CURVE SMOOTH",
"315 154 OFFCURVE",
"438 239 OFFCURVE",
"488 288 CURVE",
"448 297 LINE",
"407 258 OFFCURVE",
"195 137 OFFCURVE",
"159 70 CURVE SMOOTH",
"137 29 OFFCURVE",
"133 -28 OFFCURVE",
"170 -40 CURVE SMOOTH"
);
},
{
closed = 1;
nodes = (
"434 327 OFFCURVE",
"400 336 OFFCURVE",
"401 354 CURVE SMOOTH",
"401 371 OFFCURVE",
"421 385 OFFCURVE",
"447 386 CURVE SMOOTH",
"491 389 OFFCURVE",
"487 335 OFFCURVE",
"473 333 CURVE SMOOTH"
);
}
);
width = 1000;
}
);
unicode = 3091;
},
{
glyphname = "wo-hira";
lastChange = "2020-03-22 15:08:02 +0000";
layers = (
{
anchors = (
{
name = LSB;
position = "{80.292, 380}";
},
{
name = RSB;
position = "{973.01, 380}";
}
);
layerId = "BE1754C0-A605-45AC-AA12-D3A1FC0C380B";
paths = (
{
closed = 1;
nodes = (
"604 -54 OFFCURVE",
"771 -38 OFFCURVE",
"739 34 CURVE SMOOTH",
"723 71 OFFCURVE",
"652 69 OFFCURVE",
"610 54 CURVE SMOOTH",
"559 37 OFFCURVE",
"336 18 OFFCURVE",
"324 100 CURVE SMOOTH",
"314 166 OFFCURVE",
"417 237 OFFCURVE",
"463 257 CURVE SMOOTH",
"507 277 OFFCURVE",
"649 341 OFFCURVE",
"745 364 CURVE SMOOTH",
"811 379 OFFCURVE",
"902 396 OFFCURVE",
"903 442 CURVE SMOOTH",
"904 488 OFFCURVE",
"831 551 OFFCURVE",
"775 555 CURVE SMOOTH",
"692 560 OFFCURVE",
"514 470 OFFCURVE",
"501 252 CURVE",
"501 223 OFFCURVE",
"510 209 OFFCURVE",
"526 222 CURVE",
"531 301 OFFCURVE",
"570 418 OFFCURVE",
"655 475 CURVE SMOOTH",
"712 514 OFFCURVE",
"751 528 OFFCURVE",
"772 513 CURVE SMOOTH",
"788 502 OFFCURVE",
"731 447 OFFCURVE",
"674 413 CURVE SMOOTH",
"622 382 OFFCURVE",
"489 308 OFFCURVE",
"443 286 CURVE SMOOTH",
"399 265 OFFCURVE",
"255 191 OFFCURVE",
"268 76 CURVE SMOOTH",
"280 -36 OFFCURVE",
"408 -54 OFFCURVE",
"530 -54 CURVE SMOOTH"
);
},
{
closed = 1;
nodes = (
"513 107 OFFCURVE",
"530 145 OFFCURVE",
"528 207 CURVE SMOOTH",
"525 298 OFFCURVE",
"513 444 OFFCURVE",
"437 459 CURVE SMOOTH",
"392 467 OFFCURVE",
"368 452 OFFCURVE",
"350 436 CURVE",
"345 439 LINE",
"345 439 OFFCURVE",
"385 542 OFFCURVE",
"404 607 CURVE SMOOTH",
"427 681 OFFCURVE",
"449 722 OFFCURVE",
"454 754 CURVE SMOOTH",
"458 782 OFFCURVE",
"441 803 OFFCURVE",
"403 815 CURVE SMOOTH",
"364 827 OFFCURVE",
"315 809 OFFCURVE",
"312 799 CURVE SMOOTH",
"308 789 OFFCURVE",
"324 789 OFFCURVE",
"339 772 CURVE SMOOTH",
"354 755 OFFCURVE",
"359 731 OFFCURVE",
"353 697 CURVE SMOOTH",
"343 639 OFFCURVE",
"294 466 OFFCURVE",
"240 405 CURVE SMOOTH",
"188 345 OFFCURVE",
"160 341 OFFCURVE",
"153 306 CURVE SMOOTH",
"144 261 OFFCURVE",
"159 250 OFFCURVE",
"175 241 CURVE SMOOTH",
"203 224 OFFCURVE",
"225 232 OFFCURVE",
"244 263 CURVE SMOOTH",
"273 309 OFFCURVE",
"342 398 OFFCURVE",
"398 398 CURVE SMOOTH",
"409 398 OFFCURVE",
"443 386 OFFCURVE",
"443 321 CURVE SMOOTH",
"443 258 OFFCURVE",
"426 171 OFFCURVE",
"433 141 CURVE SMOOTH",
"440 117 OFFCURVE",
"460 103 OFFCURVE",
"481 104 CURVE SMOOTH"
);
},
{
closed = 1;
nodes = (
"472 592 OFFCURVE",
"563 670 OFFCURVE",
"568 721 CURVE SMOOTH",
"570 743 OFFCURVE",
"560 754 OFFCURVE",
"535 754 CURVE SMOOTH",
"519 754 OFFCURVE",
"478 761 OFFCURVE",
"457 767 CURVE SMOOTH",
"449 769 OFFCURVE",
"442 750 OFFCURVE",
"452 751 CURVE SMOOTH",
"469 753 OFFCURVE",
"487 729 OFFCURVE",
"476 715 CURVE SMOOTH",
"451 686 OFFCURVE",
"340 668 OFFCURVE",
"292 661 CURVE SMOOTH",
"239 654 OFFCURVE",
"207 664 OFFCURVE",
"196 667 CURVE SMOOTH",
"176 673 OFFCURVE",
"169 673 OFFCURVE",
"167 670 CURVE SMOOTH",
"165 665 OFFCURVE",
"168 658 OFFCURVE",
"177 643 CURVE",
"195 606 OFFCURVE",
"254 579 OFFCURVE",
"304 582 CURVE SMOOTH"
);
}
);
width = 1000;
}
);
unicode = 3092;
},
{
glyphname = "n-hira";
lastChange = "2020-03-22 15:08:02 +0000";
layers = (
{
anchors = (
{
name = LSB;
position = "{68.179, 380}";
},
{
name = RSB;
position = "{1008.438, 380}";
}
);
layerId = "BE1754C0-A605-45AC-AA12-D3A1FC0C380B";
paths = (
{
closed = 1;
nodes = (
"247 -37 OFFCURVE",
"239 71 OFFCURVE",
"248 124 CURVE SMOOTH",
"278 310 OFFCURVE",
"480 394 OFFCURVE",
"525 385 CURVE SMOOTH",
"577 374 OFFCURVE",
"562 280 OFFCURVE",
"550 210 CURVE SMOOTH",
"518 14 OFFCURVE",
"607 -1 OFFCURVE",
"648 -8 CURVE SMOOTH",
"836 -39 OFFCURVE",
"917 195 OFFCURVE",
"931 253 CURVE SMOOTH",
"945 309 OFFCURVE",
"939 310 OFFCURVE",
"915 260 CURVE SMOOTH",
"861 146 OFFCURVE",
"789 106 OFFCURVE",
"736 84 CURVE SMOOTH",
"701 70 OFFCURVE",
"617 48 OFFCURVE",
"644 197 CURVE SMOOTH",
"671 340 OFFCURVE",
"650 396 OFFCURVE",
"596 434 CURVE SMOOTH",
"502 500 OFFCURVE",
"340 361 OFFCURVE",
"340 361 CURVE",
"410 491 OFFCURVE",
"598 626 OFFCURVE",
"566 713 CURVE SMOOTH",
"554 745 OFFCURVE",
"527 774 OFFCURVE",
"465 794 CURVE SMOOTH",
"438 802 OFFCURVE",
"430 797 OFFCURVE",
"445 781 CURVE SMOOTH",
"478 742 OFFCURVE",
"462 699 OFFCURVE",
"444 668 CURVE SMOOTH",
"348 507 OFFCURVE",
"210 317 OFFCURVE",
"158 156 CURVE SMOOTH",
"124 50 OFFCURVE",
"134 -7 OFFCURVE",
"186 -20 CURVE SMOOTH"
);
}
);
width = 1000;
}
);
unicode = 3093;
},
{
glyphname = "vu-hira";
lastChange = "2020-03-22 15:08:02 +0000";
layers = (
{
anchors = (
{
name = LSB;
position = "{167.797, 380}";
},
{
name = RSB;
position = "{1021.427, 380}";
}
);
layerId = "BE1754C0-A605-45AC-AA12-D3A1FC0C380B";
paths = (
{
closed = 1;
nodes = (
"559 -24 OFFCURVE",
"701 145 OFFCURVE",
"727 290 CURVE SMOOTH",
"752 430 OFFCURVE",
"735 508 OFFCURVE",
"664 557 CURVE SMOOTH",
"589 608 OFFCURVE",
"450 560 OFFCURVE",
"416 548 CURVE SMOOTH",
"382 536 OFFCURVE",
"300 523 OFFCURVE",
"260 547 CURVE SMOOTH",
"239 560 OFFCURVE",
"237 560 OFFCURVE",
"238 535 CURVE SMOOTH",
"239 521 OFFCURVE",
"246 479 OFFCURVE",
"262 459 CURVE SMOOTH",
"298 414 OFFCURVE",
"343 406 OFFCURVE",
"398 438 CURVE SMOOTH",
"455 471 OFFCURVE",
"530 521 OFFCURVE",
"574 510 CURVE SMOOTH",
"621 499 OFFCURVE",
"636 432 OFFCURVE",
"619 312 CURVE SMOOTH",
"586 81 OFFCURVE",
"387 -22 OFFCURVE",
"330 -54 CURVE SMOOTH",
"297 -73 OFFCURVE",
"297 -75 OFFCURVE",
"326 -69 CURVE SMOOTH"
);
},
{
closed = 1;
nodes = (
"459 692 OFFCURVE",
"530 694 OFFCURVE",
"576 699 CURVE SMOOTH",
"621 704 OFFCURVE",
"656 703 OFFCURVE",
"664 735 CURVE SMOOTH",
"673 765 OFFCURVE",
"623 790 OFFCURVE",
"580 800 CURVE SMOOTH",
"520 814 OFFCURVE",
"468 804 OFFCURVE",
"427 802 CURVE SMOOTH",
"387 800 OFFCURVE",
"336 815 OFFCURVE",
"309 829 CURVE SMOOTH",
"291 840 OFFCURVE",
"288 838 OFFCURVE",
"298 813 CURVE SMOOTH",
"309 785 OFFCURVE",
"360 742 OFFCURVE",
"386 735 CURVE SMOOTH",
"414 728 OFFCURVE",
"421 716 OFFCURVE",
"403 701 CURVE SMOOTH",
"384 684 OFFCURVE",
"374 678 OFFCURVE",
"357 662 CURVE",
"328 639 OFFCURVE",
"336 633 OFFCURVE",
"374 652 CURVE SMOOTH"
);
},
{
closed = 1;
nodes = (
"836 513 OFFCURVE",
"868 530 OFFCURVE",
"852 579 CURVE SMOOTH",
"833 638 OFFCURVE",
"733 668 OFFCURVE",
"683 665 CURVE SMOOTH",
"674 665 OFFCURVE",
"671 661 OFFCURVE",
"683 654 CURVE SMOOTH",
"705 639 OFFCURVE",
"717 630 OFFCURVE",
"743 603 CURVE SMOOTH",
"785 558 OFFCURVE",
"782 531 OFFCURVE",
"812 521 CURVE SMOOTH"
);
},
{
closed = 1;
nodes = (
"940 601 OFFCURVE",
"965 626 OFFCURVE",
"943 668 CURVE SMOOTH",
"915 722 OFFCURVE",
"823 735 OFFCURVE",
"765 728 CURVE SMOOTH",
"755 726 OFFCURVE",
"752 723 OFFCURVE",
"765 717 CURVE SMOOTH",
"787 706 OFFCURVE",
"803 700 OFFCURVE",
"832 676 CURVE SMOOTH",
"883 635 OFFCURVE",
"886 608 OFFCURVE",
"913 605 CURVE SMOOTH"
);
}
);
width = 1000;
}
);
unicode = 3094;
},
{
glyphname = "a-kata";
lastChange = "2020-03-22 15:08:02 +0000";
layers = (
{
anchors = (
{
name = LSB;
position = "{56.577, 380}";
},
{
name = RSB;
position = "{956.68, 380}";
}
);
layerId = "BE1754C0-A605-45AC-AA12-D3A1FC0C380B";
paths = (
{
closed = 1;
nodes = (
"261 -11 OFFCURVE",
"504 123 OFFCURVE",
"577 448 CURVE SMOOTH",
"580 465 OFFCURVE",
"595 475 OFFCURVE",
"599 488 CURVE SMOOTH",
"603 500 OFFCURVE",
"590 531 OFFCURVE",
"557 547 CURVE SMOOTH",
"522 563 OFFCURVE",
"449 566 OFFCURVE",
"396 541 CURVE SMOOTH",
"369 529 OFFCURVE",
"374 525 OFFCURVE",
"396 520 CURVE SMOOTH",
"429 514 OFFCURVE",
"441 488 OFFCURVE",
"438 446 CURVE SMOOTH",
"430 337 OFFCURVE",
"386 133 OFFCURVE",
"223 -11 CURVE",
"208 -26 OFFCURVE",
"214 -34 OFFCURVE",
"235 -24 CURVE SMOOTH"
);
},
{
closed = 1;
nodes = (
"692 496 OFFCURVE",
"777 539 OFFCURVE",
"825 561 CURVE SMOOTH",
"854 575 OFFCURVE",
"898 591 OFFCURVE",
"884 614 CURVE SMOOTH",
"869 641 OFFCURVE",
"801 702 OFFCURVE",
"775 726 CURVE SMOOTH",
"750 748 OFFCURVE",
"731 741 OFFCURVE",
"701 731 CURVE SMOOTH",
"671 721 OFFCURVE",
"372 694 OFFCURVE",
"305 687 CURVE SMOOTH",
"242 680 OFFCURVE",
"181 682 OFFCURVE",
"142 702 CURVE SMOOTH",
"126 709 OFFCURVE",
"124 702 OFFCURVE",
"129 677 CURVE SMOOTH",
"135 648 OFFCURVE",
"158 608 OFFCURVE",
"199 576 CURVE SMOOTH",
"240 546 OFFCURVE",
"271 553 OFFCURVE",
"319 570 CURVE SMOOTH",
"368 587 OFFCURVE",
"661 639 OFFCURVE",
"689 640 CURVE SMOOTH",
"721 640 OFFCURVE",
"709 628 OFFCURVE",
"703 620 CURVE SMOOTH",
"665 574 OFFCURVE",
"625 539 OFFCURVE",
"558 488 CURVE",
"567 464 LINE"
);
}
);
width = 1000;
}
);
unicode = 30A2;
},
{
glyphname = "asmall-kata";
lastChange = "2020-03-22 15:08:02 +0000";
layers = (
{
anchors = (
{
name = LSB;
position = "{135.525, 380}";
},
{
name = RSB;
position = "{875.288, 380}";
}
);
layerId = "BE1754C0-A605-45AC-AA12-D3A1FC0C380B";
paths = (
{
closed = 1;
nodes = (
"314 -31 OFFCURVE",
"506 74 OFFCURVE",
"563 329 CURVE SMOOTH",
"566 342 OFFCURVE",
"578 349 OFFCURVE",
"581 360 CURVE SMOOTH",
"583 371 OFFCURVE",
"572 397 OFFCURVE",
"545 410 CURVE SMOOTH",
"518 422 OFFCURVE",
"459 425 OFFCURVE",
"418 406 CURVE SMOOTH",
"396 395 OFFCURVE",
"396 388 OFFCURVE",
"418 383 CURVE SMOOTH",
"441 379 OFFCURVE",
"451 362 OFFCURVE",
"449 328 CURVE SMOOTH",
"443 243 OFFCURVE",
"408 86 OFFCURVE",
"282 -26 CURVE SMOOTH",
"267 -40 OFFCURVE",
"275 -50 OFFCURVE",
"295 -41 CURVE SMOOTH"
);
},
{
closed = 1;
nodes = (
"651 365 OFFCURVE",
"717 398 OFFCURVE",
"754 415 CURVE SMOOTH",
"777 426 OFFCURVE",
"815 440 OFFCURVE",
"803 462 CURVE SMOOTH",
"790 482 OFFCURVE",
"737 530 OFFCURVE",
"717 549 CURVE SMOOTH",
"696 567 OFFCURVE",
"679 561 OFFCURVE",
"656 553 CURVE SMOOTH",
"632 546 OFFCURVE",
"400 525 OFFCURVE",
"348 519 CURVE SMOOTH",
"299 514 OFFCURVE",
"253 515 OFFCURVE",
"222 531 CURVE SMOOTH",
"207 538 OFFCURVE",
"202 530 OFFCURVE",
"208 508 CURVE SMOOTH",
"213 485 OFFCURVE",
"231 452 OFFCURVE",
"263 428 CURVE SMOOTH",
"296 403 OFFCURVE",
"322 409 OFFCURVE",
"360 422 CURVE SMOOTH",
"399 435 OFFCURVE",
"626 476 OFFCURVE",
"648 476 CURVE SMOOTH",
"664 477 OFFCURVE",
"664 476 OFFCURVE",
"656 466 CURVE SMOOTH",
"627 430 OFFCURVE",
"595 403 OFFCURVE",
"543 363 CURVE",
"542 360 LINE",
"550 342 LINE",
"554 340 LINE"
);
}
);
width = 1000;
}
);
unicode = 30A1;
},
